<svg width="1339" height="1080" viewBox="0 0 1339 1080" fill="none" xmlns="http://www.w3.org/2000/svg">
<path d="M1335.1 219.056C1324.53 223.898 1319.49 242.431 1326.85 248.87C1331.79 253.259 1337.36 252.465 1343.55 246.628C1350.59 239.978 1353.27 231.913 1350.78 224.936C1349.03 220.235 1345.43 216.877 1341.7 216.75C1340.73 216.717 1337.65 217.736 1335.1 219.056Z" fill="black" fill-opacity="0.4"/>
<path d="M1291.42 231.626C1287.69 234.733 1286.64 236.807 1286 242.551C1285.07 248.426 1285.42 250.126 1287.8 252.739C1298.01 263.917 1314.1 242.387 1304.47 230.525C1301.43 226.905 1296.57 227.302 1291.42 231.626Z" fill="black" fill-opacity="0.4"/>
<path d="M1316.53 264.691C1315.4 265.074 1312.72 266.53 1310.72 267.868C1307.74 269.875 1306.21 269.964 1302.11 268.698C1286.67 263.811 1270.11 279.7 1273.75 295.997C1275.62 304.64 1280.4 309.586 1291.02 314.167C1298.23 317.227 1301.86 319.882 1306.21 325.235C1317.17 338.548 1327.41 341.852 1338.86 335.914C1350.6 329.705 1354.95 314.244 1347.91 303.455C1345.05 298.857 1344.83 297.583 1346.1 293.548C1349.22 284.654 1344.99 272.696 1336.91 267.216C1332.59 264.396 1321.58 263.035 1316.53 264.691Z" fill="black" fill-opacity="0.4"/>
<path d="M1108.46 278.505C1102.95 281.786 1102.31 282.799 1100.04 290.797C1097.79 298.658 1097.8 299.954 1100.33 304.664C1103.93 311.618 1109.33 312.774 1116.57 307.994C1125.96 301.802 1129.11 288.383 1122.92 280.301C1118.62 274.636 1115.61 274.138 1108.46 278.505Z" fill="black" fill-opacity="0.4"/>
<path d="M1151.45 296.899C1143.67 296.96 1134.76 305.555 1132.73 315.044C1129.62 329.621 1145.7 335.072 1156.21 322.937C1165.61 312.005 1162.9 296.902 1151.45 296.899Z" fill="black" fill-opacity="0.4"/>
<path d="M1072.35 292.068C1067.56 292.627 1061.67 301.003 1061.43 307.423C1061.18 317.867 1070.61 323.335 1077.77 316.955C1087.21 308.477 1083.38 290.689 1072.35 292.068Z" fill="black" fill-opacity="0.4"/>
<path d="M1100.38 324.234C1097.88 324.706 1093.75 326.842 1091.19 328.884C1087.48 331.687 1085.22 332.354 1080.97 331.733C1073.82 330.78 1064.67 334.577 1060.54 340.021C1055.47 346.558 1053.89 356.575 1056.63 363.631C1059.78 371.352 1064.39 374.925 1076.56 378.821C1084.73 381.576 1088.39 383.651 1094.8 389.337C1101.81 395.58 1103.58 396.535 1110.05 397.343C1119.29 398.454 1126.28 395.491 1131.53 388.128C1137.55 379.781 1137.61 371.595 1131.79 362.442C1128.22 356.647 1127.51 354.049 1127.92 348.816C1128.68 341.933 1126.77 336.346 1121.93 330.566C1118.2 326.174 1106.51 322.669 1100.38 324.234Z" fill="black" fill-opacity="0.4"/>
<path d="M1153.08 344.847C1147.68 348.294 1146.48 349.909 1145.46 354.722C1143.93 361.873 1146.85 367.387 1152.28 367.11C1157.98 366.89 1162.74 364.456 1166.09 359.997C1170.23 354.553 1170.77 351.361 1168.33 346.238C1165.39 340.145 1160.81 339.741 1153.08 344.847Z" fill="black" fill-opacity="0.4"/>
<path d="M1156.92 468.489C1149.87 470.431 1146.15 475.246 1144.06 485.01C1142.33 493.124 1142.5 494.311 1145.23 498.059C1150.76 505.279 1158.69 504.531 1165.15 496.133C1171.06 488.335 1171.86 479.303 1167.3 472.863C1163.48 467.589 1162.18 467.025 1156.92 468.489Z" fill="black" fill-opacity="0.4"/>
<path d="M1194 488.782C1189.13 489.753 1180.62 497.139 1178.43 502.134C1169.67 523.271 1195.11 529.861 1204.82 508.926C1206.99 504.069 1207.07 495.746 1204.84 492.968C1202.74 490.218 1197.37 488.209 1194 488.782Z" fill="black" fill-opacity="0.4"/>
<path d="M1113.5 485.811C1110.66 487.216 1109.32 489.518 1107.52 495.316C1105.45 502.352 1105.54 503.235 1108.61 508.061C1111.15 512.055 1112.59 513.227 1115.07 512.893C1119.96 512.5 1121.93 511.197 1124.67 506.317C1131.82 494.04 1124.31 480.212 1113.5 485.811Z" fill="black" fill-opacity="0.4"/>
<path d="M1142.44 517.738C1138.92 518.999 1135 521.468 1133.67 523.054C1131.79 525.24 1130.16 525.61 1126.1 524.743C1115.96 522.576 1105.31 528.783 1101.26 539.134C1098.39 546.575 1099.52 553.863 1104.51 560.968C1108.75 566.908 1111.14 568.282 1124.93 572.525C1130.66 574.18 1134.25 576.531 1139.3 581.349C1147.6 589.452 1155.87 591.793 1164.95 588.989C1179.97 584.148 1185.84 562.679 1175.3 551.798C1173.22 549.628 1172.5 547.03 1172.83 542.21C1173.43 533.423 1171.67 528.445 1165.99 522.628C1159.48 516.059 1151.1 514.268 1142.44 517.738Z" fill="black" fill-opacity="0.4"/>
<path d="M1198.13 536.258C1185.13 544.839 1187.27 561.26 1200.85 558.555C1210.13 556.8 1217.04 544.327 1212.7 537.504C1209.53 532.511 1204.38 532.13 1198.13 536.258Z" fill="black" fill-opacity="0.4"/>
<path d="M888.556 520.673C882.696 521.155 875.234 525.234 871.957 529.662C870.265 532.007 868.565 532.525 865.488 532.021C859.821 530.912 850.096 535.429 845.803 541.264C838.21 551.214 840.153 565.989 849.767 573.58C854.306 577.113 856.225 577.901 863.411 578.571C873.93 579.849 877.513 581.319 885.033 587.443C893.141 593.961 900.192 595.335 908.774 592.172C924.782 586.13 929.125 566.491 917.169 553.988C913.864 550.353 912.884 547.976 912.995 544.375C913.964 531.251 901.821 519.583 888.556 520.673Z" fill="black" fill-opacity="0.4"/>
<path d="M849.377 493.961C843.39 496.974 840.214 507.065 842.92 514.404C845.452 521.065 850.028 523.398 855.369 520.88C862.206 517.609 865.267 503.368 860.493 497.459C857.571 493.981 852.679 492.43 849.377 493.961Z" fill="black" fill-opacity="0.4"/>
<path d="M928.337 488.228C923.214 489.469 917.973 495.066 914.818 502.887C912.715 508.101 912.618 510.189 914.322 514.838C916.801 521.629 921.046 523.674 927.952 521.343C938.619 517.819 945.102 502.856 939.845 493.71C937.193 488.824 933.46 486.988 928.337 488.228Z" fill="black" fill-opacity="0.4"/>
<path d="M943.09 531.504C939.412 532.122 933.501 537.9 931.451 542.984C929.452 547.937 931.617 555.51 935.327 557.033C939.549 558.765 946.507 556.303 950.326 551.641C958.326 542.162 953.841 529.991 943.09 531.504Z" fill="black" fill-opacity="0.4"/>
<path d="M889.18 472.92C879.573 475.663 874.098 489.976 878.468 500.581C881.083 506.668 885.148 508.792 891.278 506.901C900.885 504.159 906.361 489.845 901.99 479.24C899.375 473.153 895.311 471.03 889.18 472.92Z" fill="black" fill-opacity="0.4"/>
<path d="M815.959 633.205C804.734 636.126 796.634 653.521 802.775 661.161C806.894 666.356 812.506 666.549 819.583 661.878C827.646 656.555 831.649 649.07 830.387 641.754C829.464 636.811 826.491 632.868 822.842 632.087C821.895 631.885 818.686 632.35 815.959 633.205Z" fill="black" fill-opacity="0.4"/>
<path d="M770.848 637.941C766.658 640.353 765.27 642.214 763.66 647.766C761.749 653.397 761.802 655.134 763.706 658.13C771.85 670.944 791.334 652.531 783.877 639.145C781.503 635.042 776.655 634.581 770.848 637.941Z" fill="black" fill-opacity="0.4"/>
<path d="M840.692 664.952C834.374 668.06 832.282 669.913 829.26 675.451C823.811 685.072 829.676 694.666 840.278 693.338C852.86 692.001 863.388 677.138 858.246 668.13C855.767 663.861 846.381 662.142 840.692 664.952Z" fill="black" fill-opacity="0.4"/>
<path d="M789.932 674.953C788.763 675.135 785.871 676.098 783.685 677.069C780.405 678.525 778.889 678.345 775.069 676.378C760.707 668.849 741.723 681.617 742.532 698.328C742.901 707.179 746.768 712.895 756.429 719.274C763.005 723.556 766.125 726.812 769.498 732.854C778.012 747.904 787.532 752.959 799.804 749.111C812.404 745.046 819.317 730.561 814.223 718.686C812.19 713.65 812.184 712.354 814.118 708.597C818.703 700.374 816.577 687.839 809.555 681.017C805.788 677.48 795.18 674.206 789.932 674.953Z" fill="black" fill-opacity="0.4"/>
<path d="M835.381 712.28C829.756 716.111 828.787 717.342 828.222 721.967C826.887 732.179 836.595 735.693 847.292 728.632C857.002 722.223 856.668 711.222 846.665 709.084C842.881 708.275 840.483 708.913 835.381 712.28Z" fill="black" fill-opacity="0.4"/>
<path d="M531.921 611.077C526.414 614.358 525.773 615.371 523.498 623.37C521.252 631.23 521.258 632.526 523.785 637.236C527.386 644.19 532.793 645.346 540.034 640.566C549.414 634.374 552.566 620.955 546.378 612.873C542.077 607.208 539.074 606.71 531.921 611.077Z" fill="black" fill-opacity="0.4"/>
<path d="M574.914 629.471C567.127 629.533 558.222 638.127 556.194 647.616C553.077 662.193 569.156 667.644 579.665 655.51C589.07 644.577 586.362 629.474 574.914 629.471Z" fill="black" fill-opacity="0.4"/>
<path d="M495.805 624.64C491.021 625.2 485.131 633.576 484.89 639.995C484.636 650.439 494.068 655.907 501.227 649.528C510.672 641.049 506.842 623.261 495.805 624.64Z" fill="black" fill-opacity="0.4"/>
<path d="M523.842 656.807C521.338 657.278 517.207 659.415 514.65 661.457C510.941 664.259 508.679 664.926 504.43 664.305C497.283 663.353 488.132 667.149 484 672.593C478.928 679.131 477.352 689.148 480.084 696.203C483.239 703.924 487.846 707.498 500.017 711.394C508.192 714.148 511.847 716.223 518.264 721.91C525.269 728.153 527.043 729.107 533.514 729.915C542.746 731.026 549.74 728.063 554.989 720.7C561.014 712.353 561.068 704.168 555.25 695.015C551.684 689.219 550.967 686.621 551.379 681.388C552.143 674.505 550.228 668.919 545.386 663.138C541.661 658.746 529.972 655.241 523.842 656.807Z" fill="black" fill-opacity="0.4"/>
<path d="M576.538 677.419C571.137 680.866 569.943 682.481 568.914 687.294C567.386 694.445 570.306 699.959 575.736 699.682C581.437 699.462 586.198 697.029 589.554 692.569C593.686 687.125 594.227 683.933 591.788 678.81C588.851 672.717 584.272 672.314 576.538 677.419Z" fill="black" fill-opacity="0.4"/>
<path d="M591.007 909.415C583.948 911.357 580.233 916.172 578.146 925.936C576.412 934.05 576.582 935.236 579.314 938.984C584.838 946.205 592.772 945.456 599.232 937.058C605.139 929.261 605.939 920.229 601.379 913.789C597.559 908.515 596.267 907.951 591.007 909.415Z" fill="black" fill-opacity="0.4"/>
<path d="M628.083 929.708C623.211 930.68 614.706 938.065 612.508 943.06C603.749 964.197 629.195 970.787 638.9 949.853C641.069 944.995 641.153 936.672 638.92 933.894C636.822 931.145 631.456 929.135 628.083 929.708Z" fill="black" fill-opacity="0.4"/>
<path d="M547.587 926.737C544.742 928.143 543.402 930.445 541.597 936.243C539.528 943.278 539.622 944.161 542.689 948.987C545.228 952.981 546.673 954.153 549.147 953.819C554.037 953.426 556.012 952.123 558.751 947.244C565.899 934.966 558.395 921.138 547.587 926.737Z" fill="black" fill-opacity="0.4"/>
<path d="M576.522 958.664C573.001 959.925 569.081 962.394 567.753 963.98C565.872 966.166 564.238 966.536 560.183 965.669C550.046 963.502 539.39 969.709 535.34 980.06C532.477 987.501 533.605 994.789 538.587 1001.89C542.83 1007.83 545.222 1009.21 559.015 1013.45C564.739 1015.11 568.335 1017.46 573.383 1022.28C581.686 1030.38 589.949 1032.72 599.029 1029.91C614.057 1025.07 619.918 1003.61 609.382 992.725C607.302 990.554 606.585 987.956 606.909 983.136C607.515 974.349 605.752 969.371 600.07 963.554C593.559 956.985 585.179 955.194 576.522 958.664Z" fill="black" fill-opacity="0.4"/>
<path d="M632.21 977.184C619.209 985.766 621.353 1002.19 634.934 999.481C644.214 997.726 651.121 985.253 646.785 978.43C643.611 973.438 638.463 973.056 632.21 977.184Z" fill="black" fill-opacity="0.4"/>
<path d="M304.519 1018.37C298.824 1019.88 292.17 1025.22 289.702 1030.16C288.438 1032.76 286.851 1033.57 283.73 1033.62C277.953 1033.54 269.143 1039.71 265.916 1046.21C260.144 1057.34 264.603 1071.53 275.386 1077.28C280.47 1079.95 282.497 1080.39 289.697 1079.77C300.287 1079.16 304.072 1079.96 312.54 1084.65C321.654 1089.62 328.842 1089.72 336.759 1085.08C351.499 1076.3 352.4 1056.21 338.461 1046.04C334.577 1043.06 333.202 1040.89 332.691 1037.33C331.387 1024.25 317.407 1014.94 304.519 1018.37Z" fill="black" fill-opacity="0.4"/>
<path d="M261.295 999.061C255.911 1003.09 254.517 1013.57 258.448 1020.31C262.091 1026.41 267.004 1027.89 271.835 1024.47C278.012 1020.04 278.578 1005.49 272.854 1000.53C269.375 997.624 264.286 996.968 261.295 999.061Z" fill="black" fill-opacity="0.4"/>
<path d="M338.149 979.394C333.312 981.523 329.11 987.959 327.346 996.211C326.17 1001.71 326.434 1003.78 328.914 1008.05C332.527 1014.29 337.064 1015.55 343.47 1012.03C353.38 1006.67 357.195 990.799 350.438 982.74C346.982 978.406 342.986 977.264 338.149 979.394Z" fill="black" fill-opacity="0.4"/>
<path d="M360.144 1019.33C356.623 1020.59 351.792 1027.32 350.645 1032.69C349.528 1037.91 352.965 1044.97 356.885 1045.81C361.346 1046.77 367.781 1043.11 370.744 1037.84C376.998 1027.1 370.481 1015.93 360.144 1019.33Z" fill="black" fill-opacity="0.4"/>
<path d="M296.912 971.298C287.914 975.702 284.98 990.749 291.114 1000.4C294.74 1005.92 299.112 1007.29 304.831 1004.34C313.829 999.936 316.763 984.889 310.629 975.236C307.003 969.716 302.631 968.35 296.912 971.298Z" fill="black" fill-opacity="0.4"/>
</svg>
