<svg width="848" height="170" viewBox="0 0 848 170" fill="none" xmlns="http://www.w3.org/2000/svg">
<path d="M287.296 159.432C280.768 159.432 275.68 157.56 272.032 153.816C268.384 150.072 266.56 144.624 266.56 137.472V108.6H271.888V137.256C271.888 143.112 273.208 147.48 275.848 150.36C278.488 153.24 282.304 154.68 287.296 154.68C292.336 154.68 296.176 153.24 298.816 150.36C301.456 147.48 302.776 143.112 302.776 137.256V108.6H307.96V137.472C307.96 144.624 306.136 150.072 302.488 153.816C298.888 157.56 293.824 159.432 287.296 159.432ZM341.151 120.84C345.903 120.84 349.671 122.232 352.455 125.016C355.287 127.752 356.703 131.76 356.703 137.04V159H351.591V137.544C351.591 133.608 350.607 130.608 348.639 128.544C346.671 126.48 343.863 125.448 340.215 125.448C336.135 125.448 332.895 126.672 330.495 129.12C328.143 131.52 326.967 134.856 326.967 139.128V159H321.855V121.128H326.751V128.112C328.143 125.808 330.063 124.032 332.511 122.784C335.007 121.488 337.887 120.84 341.151 120.84ZM369.502 121.128H374.614V159H369.502V121.128ZM372.094 112.848C371.038 112.848 370.15 112.488 369.43 111.768C368.71 111.048 368.35 110.184 368.35 109.176C368.35 108.216 368.71 107.376 369.43 106.656C370.15 105.936 371.038 105.576 372.094 105.576C373.15 105.576 374.038 105.936 374.758 106.656C375.478 107.328 375.838 108.144 375.838 109.104C375.838 110.16 375.478 111.048 374.758 111.768C374.038 112.488 373.15 112.848 372.094 112.848ZM403.238 159.36C399.59 159.36 396.302 158.544 393.374 156.912C390.446 155.232 388.142 152.928 386.462 150C384.782 147.072 383.942 143.76 383.942 140.064C383.942 136.368 384.782 133.056 386.462 130.128C388.142 127.2 390.446 124.92 393.374 123.288C396.302 121.656 399.59 120.84 403.238 120.84C406.886 120.84 410.174 121.656 413.102 123.288C416.03 124.92 418.31 127.2 419.942 130.128C421.622 133.056 422.462 136.368 422.462 140.064C422.462 143.76 421.622 147.072 419.942 150C418.31 152.928 416.03 155.232 413.102 156.912C410.174 158.544 406.886 159.36 403.238 159.36ZM403.238 154.824C405.926 154.824 408.326 154.224 410.438 153.024C412.598 151.776 414.278 150.024 415.478 147.768C416.678 145.512 417.278 142.944 417.278 140.064C417.278 137.184 416.678 134.616 415.478 132.36C414.278 130.104 412.598 128.376 410.438 127.176C408.326 125.928 405.926 125.304 403.238 125.304C400.55 125.304 398.126 125.928 395.966 127.176C393.854 128.376 392.174 130.104 390.926 132.36C389.726 134.616 389.126 137.184 389.126 140.064C389.126 142.944 389.726 145.512 390.926 147.768C392.174 150.024 393.854 151.776 395.966 153.024C398.126 154.224 400.55 154.824 403.238 154.824ZM451.114 120.84C455.866 120.84 459.634 122.232 462.418 125.016C465.25 127.752 466.666 131.76 466.666 137.04V159H461.554V137.544C461.554 133.608 460.57 130.608 458.602 128.544C456.634 126.48 453.826 125.448 450.178 125.448C446.098 125.448 442.858 126.672 440.458 129.12C438.106 131.52 436.93 134.856 436.93 139.128V159H431.818V121.128H436.714V128.112C438.106 125.808 440.026 124.032 442.474 122.784C444.97 121.488 447.85 120.84 451.114 120.84ZM522.449 108.6L500.129 159H494.873L472.553 108.6H478.313L497.609 152.376L517.049 108.6H522.449ZM557.697 141.648H526.017C526.305 145.584 527.817 148.776 530.553 151.224C533.289 153.624 536.745 154.824 540.921 154.824C543.273 154.824 545.433 154.416 547.401 153.6C549.369 152.736 551.073 151.488 552.513 149.856L555.393 153.168C553.713 155.184 551.601 156.72 549.057 157.776C546.561 158.832 543.801 159.36 540.777 159.36C536.889 159.36 533.433 158.544 530.409 156.912C527.433 155.232 525.105 152.928 523.425 150C521.745 147.072 520.905 143.76 520.905 140.064C520.905 136.368 521.697 133.056 523.281 130.128C524.913 127.2 527.121 124.92 529.905 123.288C532.737 121.656 535.905 120.84 539.409 120.84C542.913 120.84 546.057 121.656 548.841 123.288C551.625 124.92 553.809 127.2 555.393 130.128C556.977 133.008 557.769 136.32 557.769 140.064L557.697 141.648ZM539.409 125.232C535.761 125.232 532.689 126.408 530.193 128.76C527.745 131.064 526.353 134.088 526.017 137.832H552.873C552.537 134.088 551.121 131.064 548.625 128.76C546.177 126.408 543.105 125.232 539.409 125.232ZM587.038 156.696C586.078 157.56 584.878 158.232 583.438 158.712C582.046 159.144 580.582 159.36 579.046 159.36C575.494 159.36 572.758 158.4 570.838 156.48C568.918 154.56 567.958 151.848 567.958 148.344V125.448H561.19V121.128H567.958V112.848H573.07V121.128H584.59V125.448H573.07V148.056C573.07 150.312 573.622 152.04 574.726 153.24C575.878 154.392 577.51 154.968 579.622 154.968C580.678 154.968 581.686 154.8 582.646 154.464C583.654 154.128 584.518 153.648 585.238 153.024L587.038 156.696Z" fill="#FAFAFA"/>
<path d="M337.328 101.008C337.923 103.258 339.399 104.594 342.28 105.484C343.018 105.695 348.47 105.789 365.398 105.859L387.564 105.977L388.088 104.477C389.088 101.758 390.492 99.2505 391.754 97.9147C393.23 96.3913 395.397 94.6805 395.873 94.6805C396.064 94.6805 396.206 94.5868 396.206 94.4696C396.206 94.2587 403.111 90.7433 404.539 90.2277C406.206 89.6418 410.325 87.5795 411.063 86.9702C411.468 86.6421 412.206 85.9624 412.682 85.4703C414.444 83.736 414.348 84.7438 414.325 68.9246C414.301 55.6365 414.325 54.6054 414.753 53.0117C415.277 51.0666 415.753 50.2463 416.563 49.8713C418.015 49.2386 419.253 50.8088 420.11 54.371C420.658 56.6443 420.967 63.9562 420.967 74.3617V83.6188L421.777 84.6734C422.229 85.2359 422.705 85.9155 422.824 86.1733C423.181 86.8061 425.491 87.9779 427.634 88.5872C428.61 88.8919 429.515 89.1966 429.657 89.2903C429.776 89.384 430.919 89.7356 432.157 90.0871C434.895 90.8605 438.705 92.5947 439.395 93.3916C439.681 93.7197 440.086 93.9774 440.3 93.9774C440.514 93.9774 441.681 94.9618 442.919 96.1335C445.157 98.3365 446.204 99.5786 446.204 100.047C446.204 100.211 446.395 100.539 446.657 100.797C446.895 101.055 447.466 102.344 447.895 103.633L448.704 106L465.37 105.836C474.537 105.766 483.75 105.578 485.846 105.461C487.941 105.32 490.822 105.18 492.274 105.109C493.702 105.039 495.202 104.922 495.607 104.852C497.369 104.477 498.988 103.211 499.631 101.664C500.107 100.563 500.131 97.7975 499.655 96.0867C499.226 94.4696 498.083 92.3135 497.488 92.0088C497.25 91.8682 496.917 91.587 496.75 91.3761C495.321 89.5247 493.155 88.2122 490.393 87.5326C485.941 86.4546 479.013 87.6264 473.132 90.4386C472.275 90.8371 471.56 91.1652 471.513 91.1652C471.465 91.1652 471.441 89.6887 471.441 87.9076V84.6266L473.179 83.8063C476.513 82.2361 479.679 78.7442 480.774 75.4866C481.227 74.0805 481.274 73.3774 481.322 67.9637C481.346 61.7533 481.417 61.1674 482.631 56.4333C482.917 55.4022 483.393 54.1366 483.727 53.6445C484.06 53.1289 484.274 52.6367 484.203 52.5196C484.131 52.4258 484.774 50.9259 485.631 49.1917C490.726 38.9503 494.155 30.279 495.393 24.5373C495.774 22.6858 495.845 20.2485 495.488 20.0376C495.345 19.9673 495.25 19.6626 495.25 19.3814C495.25 18.6314 493.94 14.6005 493.083 12.7491C491.631 9.53837 490.012 7.24165 487.036 4.24187C485.465 2.64825 483.703 1.03118 483.131 0.656204C482.084 7.62939e-06 482.012 0 478.536 0C475.394 0 474.917 0.046875 473.941 0.515594C473.346 0.796822 472.87 1.12492 472.87 1.21867C472.87 1.31241 472.203 1.73425 471.37 2.13266C469.18 3.2107 466.132 5.24962 464.489 6.7495C462.727 8.36658 460.609 10.9445 455.704 17.4596C451.752 22.6858 450.038 25.2169 447.038 30.115C446.038 31.7789 445.133 33.2085 445.038 33.2788C444.942 33.3491 444.8 33.5835 444.704 33.7944C444.633 34.0287 443.823 35.2943 442.919 36.6067C442.038 37.9425 440.562 40.1455 439.681 41.5282C438.776 42.9343 437.895 44.0592 437.705 44.0592C437.3 44.0592 436.681 43.4968 436.681 43.1218C436.681 42.9812 437.467 42.0906 438.395 41.1532C440.252 39.3487 441.347 37.7082 442.347 35.3411C443.157 33.3491 443.371 29.1541 442.752 27.0683C442.276 25.3809 441.443 23.7639 440.609 22.7561L439.966 22.0296L440.752 21.1156C442.704 18.9595 443.8 16.2644 443.823 13.6865C443.823 10.4289 442.99 8.43688 440.038 4.59341C438.99 3.25758 437.967 1.78112 437.776 1.31241C437.324 0.257797 437.014 0.234367 434.538 1.26554C429.205 3.49194 423.348 7.54633 422.324 9.77272C422.158 10.1711 421.967 10.2883 421.705 10.1711C421.491 10.0774 419.777 9.93677 417.872 9.8899L414.444 9.79616L413.206 8.55405C412.539 7.85098 410.991 6.65576 409.753 5.85895C407.111 4.19501 400.254 0.703072 399.587 0.703072C399.23 0.703072 398.682 1.49989 397.254 4.03096C394.564 8.88216 394.135 9.74928 393.564 11.8351C392.683 15.0692 393.183 17.9518 395.064 20.2485L395.825 21.1625L395.254 22.1234C393.492 25.1466 392.802 26.6465 392.492 28.1698C391.754 31.5211 392.659 35.1068 395.159 38.8331L396.659 41.0829L396.206 41.7391C395.944 42.0906 395.468 42.9343 395.135 43.614C394.659 44.6451 394.54 44.7858 394.397 44.3874C393.135 40.9892 391.135 37.4972 386.612 30.818C385.564 29.2713 383.85 26.8808 382.826 25.4981C381.802 24.1154 380.969 22.9202 380.969 22.8499C380.969 22.7796 380.755 22.4983 380.517 22.2171C380.255 21.9125 378.683 19.9438 376.993 17.8112C375.326 15.702 372.969 12.9834 371.803 11.7882C369.755 9.72585 364.636 5.39023 364.255 5.39023C364.16 5.39023 364.065 5.24962 364.065 5.06213C364.065 4.89808 363.279 4.40593 362.327 3.96066C360.779 3.23415 360.398 3.16383 358.47 3.16383C355.208 3.16383 354.065 3.7966 350.113 7.78068C345.947 11.9991 344.089 15.0458 342.375 20.4594C341.637 22.7561 341.613 22.9202 341.756 25.9903C341.994 31.8024 343.994 37.8019 349.065 47.809C350.065 49.801 351.018 51.8165 351.208 52.2618C351.375 52.7071 352.137 54.3944 352.899 56.0115C354.327 59.105 355.732 62.9719 356.303 65.4327C356.565 66.4873 356.66 68.4793 356.66 72.3228C356.66 75.6975 356.756 78.1349 356.922 78.7676C357.494 80.8769 358.875 83.0095 360.994 85.0953L363.041 87.1108L362.851 88.2591C362.755 88.8919 362.66 90.2043 362.66 91.1652L362.636 92.8994L361.374 91.7276C358.089 88.5638 354.399 87.2045 349.946 87.4857C345.756 87.7435 342.28 89.4075 338.899 92.7354C337.209 94.3993 336.542 97.985 337.328 101.008ZM341.447 97.7272C341.709 97.2116 341.923 96.696 341.923 96.5788C341.923 96.2976 342.328 95.782 343.661 94.3055C345.28 92.5244 348.494 91.212 351.565 91.1183C353.184 91.0714 356.684 91.3995 356.684 91.6104C356.684 91.7042 357.303 92.0323 358.041 92.3369C359.994 93.1338 362.303 95.4539 363.422 97.7506C364.589 100.118 364.612 101.266 363.541 102.344C362.851 103.047 362.636 103.117 361.422 103.117C359.351 103.117 358.97 102.86 358.351 101.032C357.756 99.2974 356.803 97.3288 356.327 96.86C356.137 96.696 355.732 96.5554 355.399 96.5554H354.803L355.256 97.5397C355.851 98.8287 355.875 100.68 355.303 101.524C353.994 103.492 352.161 103.61 350.375 101.852C349.97 101.43 349.899 101.078 349.923 99.2036L349.946 97.0241H349.28C348.613 97.0241 348.351 97.3756 348.351 98.3131C348.351 100.633 347.113 102.742 345.589 103.024C344.542 103.211 342.685 102.719 342.042 102.086C340.899 100.938 340.661 99.2271 341.447 97.7272ZM349.803 22.0296C350.47 19.6392 351.47 17.9752 353.351 16.1473C355.279 14.2724 356.684 13.6865 358.803 13.8974C360.613 14.0615 362.255 14.8114 365.755 17.1081C373.874 22.428 377.921 26.6465 381.755 33.7475C383.874 37.6378 384.445 39.3721 385.112 43.8952C386.254 51.4884 385.969 52.9883 382.969 55.7771C379.35 59.1285 374.683 64.1437 373.326 66.1592C371.684 68.5965 370.374 71.0338 368.946 74.432C367.874 76.9865 366.898 78.4395 366.041 78.7676C364.803 79.2129 362.993 77.8302 361.898 75.5804C361.113 73.9867 361.065 72.8618 361.446 67.2607C361.874 61.2142 360.898 56.4333 358.017 50.2229C357.303 48.6995 356.232 46.6138 355.637 45.5826C355.018 44.5514 354.375 43.239 354.16 42.6531C353.946 42.0672 353.637 41.2704 353.446 40.8954C352.851 39.5361 351.613 36.1848 350.47 32.8101C349.351 29.5056 349.304 29.3416 349.304 26.5996C349.304 24.4435 349.423 23.3655 349.803 22.0296ZM371.184 84.7438C373.064 79.4473 378.374 76.1663 383.635 77.0568C386.159 77.4787 388.159 78.5567 390.183 80.5488C391.135 81.4862 391.921 82.4471 391.921 82.6814C391.921 82.9158 392.111 83.3142 392.373 83.572C392.897 84.1344 393.064 85.1656 393.254 88.6575C393.349 90.3918 393.326 91.2823 393.135 91.4698C392.992 91.6104 392.873 91.9151 392.873 92.1729C392.873 93.1806 391.373 95.6414 389.826 97.1647C386.826 100.118 383.35 101.102 379.35 100.188C377.517 99.7661 376.421 99.2271 374.945 98.0318C372.85 96.321 371.326 93.8134 370.731 91.048C370.398 89.5715 370.636 86.2671 371.184 84.7438ZM396.54 45.3717C397.206 43.5202 399.087 42.5359 402.039 42.5359C403.682 42.5594 403.968 42.6531 406.206 43.9421C407.063 44.4577 407.444 44.8795 408.039 46.0044L408.611 47.1528L408.087 47.7152C407.658 48.1605 407.301 48.2777 406.396 48.2777C405.42 48.2777 405.254 48.2074 405.254 47.809C405.254 47.5512 405.135 47.3403 405.016 47.3403C404.873 47.3403 404.777 47.1762 404.777 46.9887C404.777 46.5669 403.754 45.4654 403.373 45.4654C403.23 45.4654 403.182 45.7466 403.254 46.1216C403.325 46.4966 403.23 47.1762 403.016 47.6684C402.706 48.4183 402.539 48.5355 402.111 48.4183C401.962 48.3844 401.796 48.3506 401.646 48.3246C401.484 48.2966 401.34 48.2777 401.254 48.2777C401.063 48.2777 400.968 47.9027 400.968 47.1996C400.968 46.5669 400.825 46.0044 400.611 45.7935C400.301 45.4888 400.159 45.5357 399.421 46.2622C398.968 46.7075 398.587 47.1996 398.587 47.3403C398.587 47.7621 397.944 48.2777 397.397 48.2777C396.254 48.2777 395.921 47.1528 396.54 45.3717ZM397.087 26.7168C397.706 25.3809 398.206 24.8419 399.468 24.1388C400.04 23.8342 400.492 23.5061 400.492 23.3889C400.492 23.2717 400.04 22.7327 399.468 22.1702C397.706 20.3891 397.254 19.7564 396.849 18.5143C396.278 16.8035 396.325 13.499 396.944 11.3663C397.206 10.4524 397.468 9.46806 397.563 9.13995C397.635 8.81185 397.778 8.50719 397.873 8.43688C397.968 8.36657 398.278 7.87443 398.563 7.3354C399.278 5.90582 400.373 4.75747 401.159 4.61685C402.73 4.31219 406.801 5.95269 409.182 7.85098C409.896 8.43688 410.539 8.90559 410.634 8.90559C410.968 8.90559 412.825 11.0851 413.229 11.9522C413.539 12.6553 413.801 12.8897 414.206 12.8897C414.515 12.8897 414.848 12.7256 414.968 12.5147C415.158 12.1632 415.682 12.1397 419.277 12.2335C423.134 12.3272 423.396 12.3038 423.634 11.8819C423.92 11.3195 427.8 7.49945 428.038 7.49945C428.324 7.52288 431.324 5.99957 431.395 5.78864C431.443 5.69489 431.657 5.62459 431.872 5.62459C432.086 5.62459 432.729 5.46053 433.276 5.27305C433.824 5.08556 434.61 4.99182 434.991 5.06213C435.824 5.22618 437.229 6.63232 438.252 8.3197C438.943 9.46806 439.181 9.93677 439.776 11.3663C439.943 11.7413 440.133 13.2881 440.205 14.788C440.347 18.444 440.014 19.4517 437.967 21.5375C437.133 22.3812 436.443 23.1311 436.443 23.2014C436.443 23.2717 436.848 23.5764 437.348 23.8811C437.848 24.1857 438.371 24.6076 438.49 24.8419C438.609 25.0763 438.919 25.6153 439.181 26.0371C439.586 26.6933 439.657 27.2324 439.657 29.2947C439.633 31.6149 439.586 31.8727 438.728 33.7944C437.562 36.4661 436.395 38.2237 434.443 40.2392C432.991 41.7626 432.776 41.9032 431.038 42.3953C430.015 42.7 428.491 43.1921 427.657 43.5202C425.467 44.3874 422.301 44.7623 415.991 44.9264C411.825 45.0201 410.468 44.9967 410.587 44.8092C410.682 44.6451 410.611 44.528 410.444 44.528C410.253 44.528 409.539 44.0827 408.825 43.5671C407.254 42.3953 404.801 41.1532 403.349 40.7782C401.301 40.2627 397.706 35.9505 396.659 32.8101C396.278 31.6852 396.54 27.8651 397.087 26.7168ZM427.086 46.5903C427.586 46.0747 428.634 45.3482 429.419 44.9967C432.3 43.7077 433.205 43.3562 434.086 43.2156C434.943 43.075 435.062 43.1453 436.776 44.7858C438.371 46.2857 438.586 46.5903 438.586 47.3403C438.586 48.4652 437.633 49.0745 436.229 48.8402C435.395 48.6995 435.252 48.6058 435.252 48.1136C435.252 47.4809 434.276 46.4028 433.705 46.4028C433.205 46.4028 433.252 46.7075 433.824 47.1059C434.086 47.2934 434.3 47.6215 434.3 47.8324C434.3 48.0668 434.443 48.2777 434.586 48.3246C435.133 48.5121 434.133 49.2151 433.348 49.2151C432.133 49.2151 430.324 47.1293 431.253 46.8012C431.419 46.7544 431.491 46.6138 431.395 46.52C431.134 46.2388 430.491 47.0122 430.491 47.6215C430.491 47.9262 430.276 48.3246 430.015 48.5121C429.753 48.6995 429.538 49.0276 429.538 49.262C429.538 49.8948 427.848 49.8479 427.396 49.2151C427.205 48.9573 426.872 48.7464 426.634 48.7464C425.872 48.7464 426.11 47.6449 427.086 46.5903ZM442.776 84.3922C442.871 83.8063 443.133 83.1267 443.371 82.8689C443.633 82.6111 443.823 82.2127 443.823 81.9783C443.823 81.2518 447.133 78.2286 448.847 77.4084C455.061 74.4086 462.108 77.3849 464.585 84.0641C465.346 86.0562 465.323 89.759 464.585 91.9151C463.227 95.7586 460.156 98.6177 456.418 99.4849C452.395 100.399 448.942 99.4145 445.919 96.4616C444.347 94.9149 442.871 92.4541 442.871 91.4229C442.871 91.1652 442.752 90.8839 442.609 90.7902C442.347 90.6261 442.443 86.5952 442.776 84.3922ZM448.228 42.7937C449.18 37.4504 451.799 32.3414 457.18 25.1466C458.466 23.4358 460.251 21.3266 461.132 20.4594C462.013 19.5689 463.775 17.7878 465.037 16.5222C467.799 13.6631 469.822 12.4678 474.941 10.6633C476.846 9.96021 477.536 9.84303 479.203 9.84303C480.37 9.84303 481.203 9.93677 481.203 10.0774C481.203 10.1946 481.37 10.3117 481.56 10.3117C481.751 10.3117 482.108 10.4524 482.322 10.6398C482.56 10.8273 483.227 11.3429 483.822 11.7648C486.298 13.5928 487.965 17.2722 487.917 20.8578C487.893 23.4123 487.369 28.1229 487.107 28.1229C487.012 28.1229 486.917 28.3573 486.917 28.6385C486.917 29.1775 476.132 54.2304 475.632 54.8163C475.275 55.2616 475.322 60.3471 475.703 63.2766C476.132 66.4404 476.06 71.5025 475.584 73.0962C474.632 76.3772 472.703 78.5098 470.751 78.5098C470.227 78.5098 469.894 78.2989 469.346 77.6193C467.918 75.8147 466.537 73.6118 465.18 71.0104C461.061 62.9954 455.418 56.363 450.799 54.0429C450.109 53.7148 449.395 53.4336 449.204 53.4336C448.99 53.4336 448.752 53.0586 448.585 52.4258C448.442 51.8868 448.252 51.2072 448.157 50.9025C447.8 49.7776 447.847 44.8795 448.228 42.7937ZM471.084 96.6491C472.227 94.7274 475.06 92.6416 478.465 91.2355C480.56 90.3683 480.679 90.3449 483.584 90.3449C485.774 90.3449 486.965 90.4621 488.107 90.7902C491.726 91.8214 494.679 93.8603 495.75 95.9929C496.202 96.9304 496.25 97.3288 496.131 98.8521C495.964 101.149 495.536 101.735 493.798 102.086C493.083 102.227 492.274 102.414 491.964 102.508C491.655 102.625 491.441 102.578 491.441 102.438C491.441 102.297 491.226 102.18 490.964 102.18C490.703 102.18 490.488 102.063 490.488 101.946C490.488 101.805 490.298 101.711 490.06 101.711C489.655 101.711 489.441 101.243 488.703 98.899C488.536 98.3131 488.322 97.5631 488.25 97.1881C488.012 96.1335 487.703 96.4616 487.536 97.985C487.393 99.5317 486.75 101.172 486.131 101.688C485.893 101.852 485.727 102.157 485.727 102.321C485.727 102.508 485.608 102.649 485.488 102.649C485.346 102.649 485.25 102.555 485.25 102.461C485.25 102.344 484.75 102.321 484.155 102.414C483.108 102.578 481.917 102.297 481.917 101.875C481.917 101.782 481.703 101.711 481.441 101.711C481.012 101.711 480.965 101.547 480.965 99.9536C480.965 98.9458 481.108 97.8444 481.298 97.3756C481.608 96.6491 481.608 96.5554 481.298 96.5554C481.131 96.5554 480.965 96.6491 480.965 96.7897C480.965 96.9069 480.751 97.0241 480.489 97.0241C480.179 97.0241 480.012 97.1882 480.012 97.4928C480.012 97.7506 479.893 97.9615 479.774 97.9615C479.632 97.9615 479.536 98.3834 479.536 98.899C479.536 99.3911 479.417 100.047 479.274 100.352C478.751 101.524 476.465 102.508 474.917 102.274C473.965 102.11 471.918 101.219 471.918 100.961C471.918 100.868 471.727 100.774 471.465 100.774C471.227 100.774 470.941 100.539 470.846 100.235C470.727 99.9536 470.584 99.5083 470.489 99.2505C470.251 98.6177 470.441 97.7975 471.084 96.6491Z" fill="black"/>
<path d="M373.683 91.2825C374.374 94.0245 376.16 96.2509 378.588 97.4461C379.683 97.9851 380.207 98.0789 381.802 98.0789C383.397 98.0789 383.921 97.9851 385.04 97.4461C391.897 94.1182 391.873 83.7596 385.016 80.4317C383.921 79.9161 383.397 79.799 381.802 79.799C380.207 79.799 379.683 79.9161 378.564 80.4552C374.731 82.2831 372.612 87.0172 373.683 91.2825ZM375.612 86.1032C376.279 83.8768 378.945 81.5566 380.826 81.5566C381.945 81.5566 384.135 82.6816 384.564 83.4549C384.969 84.2049 384.493 85.0486 383.564 85.2361C382.374 85.4704 381.278 86.6656 381.088 87.9546C380.945 88.8686 381.017 89.2436 381.54 90.2279C382.421 91.8684 382.302 93.7432 381.326 93.7432C381.136 93.7432 380.969 93.837 380.969 93.9776C380.969 94.0948 380.493 94.212 379.921 94.212C379.017 94.212 378.755 94.0713 377.707 93.087C375.469 91.0013 374.802 88.7514 375.612 86.1032Z" fill="black"/>
<path d="M399.23 29.4588C399.444 29.9978 399.896 29.7869 400.492 28.8495C400.801 28.3339 401.325 27.8183 401.634 27.6777C402.111 27.4434 402.301 27.5137 402.944 28.0292C403.968 28.8729 405.444 29.5291 406.372 29.5291C407.301 29.5291 407.372 29.1776 406.563 28.5448C404.682 27.0918 404.539 24.3498 406.23 22.2172C407.063 21.1626 407.11 20.7642 406.372 20.9985C403.587 21.8656 398.563 27.8183 399.23 29.4588Z" fill="black"/>
<path d="M399.23 17.3425C399.468 18.7487 399.801 19.6392 400.278 20.1783L400.778 20.7407L401.349 20.0377C401.658 19.6392 401.92 19.2643 401.92 19.1471C401.92 18.7721 404.515 16.452 405.801 15.6786C406.539 15.2568 407.158 14.8115 407.158 14.7177C407.158 14.6006 407.587 14.5303 408.111 14.5303C408.634 14.5303 409.253 14.4365 409.491 14.3193C410.23 13.9209 411.872 13.5928 412.253 13.7334C413.015 14.0147 412.634 13.1475 411.42 11.8586C409.42 9.70249 405.254 7.17143 402.539 6.49179C401.254 6.16369 401.135 6.16369 400.754 6.53866C399.706 7.56984 398.73 14.5068 399.23 17.3425Z" fill="black"/>
<path d="M445.728 90.345C446.276 92.9932 448.252 95.5477 450.704 96.743C451.823 97.282 452.347 97.3757 453.942 97.3757C455.537 97.3757 456.061 97.282 457.156 96.743C462.846 93.9775 464.084 86.2437 459.608 81.5331C457.989 79.8223 456.299 79.0958 453.942 79.0958C452.347 79.0958 451.823 79.213 450.728 79.7286C446.919 81.58 444.847 85.9859 445.728 90.345ZM451.204 82.7049C451.609 81.955 453.823 80.8535 454.918 80.8535C456.847 80.8535 459.489 83.1737 460.18 85.5172C460.918 88.0249 460.18 90.3919 458.037 92.3839C456.99 93.3682 456.728 93.5088 455.823 93.5088C455.252 93.5088 454.775 93.3917 454.775 93.2745C454.775 93.1339 454.609 93.0401 454.418 93.0401C453.442 93.0401 453.323 91.1653 454.204 89.5247C455.061 87.9311 454.871 86.4781 453.656 85.3766C453.204 84.9548 452.633 84.6032 452.371 84.6032C451.895 84.6032 450.966 83.8299 450.966 83.408C450.966 83.2674 451.085 82.9627 451.204 82.7049Z" fill="black"/>
<path d="M406.063 99.9535C406.587 101.594 407.325 102.742 408.515 103.82C410.086 105.25 410.515 105.461 411.944 105.461C413.539 105.461 414.801 104.547 415.348 102.977C415.705 101.969 415.682 101.875 415.253 101.407C414.991 101.149 414.777 100.727 414.777 100.493C414.777 100.235 414.515 99.7895 414.182 99.4848C413.753 99.0395 413.348 98.8989 412.515 98.8989C411.086 98.8989 411.11 99.3208 412.634 100.774C413.277 101.407 413.824 102.039 413.824 102.18C413.824 102.555 412.705 103.586 412.277 103.586C412.086 103.586 411.92 103.469 411.92 103.352C411.92 103.211 411.753 103.117 411.563 103.117C411.086 103.117 409.063 101.125 409.063 100.657C409.063 100.469 408.944 100.305 408.825 100.305C408.491 100.305 408.539 99.4379 408.872 99.2739C409.11 99.1567 409.11 99.1098 408.872 98.9927C408.372 98.7583 408.563 98.2193 409.42 97.3756C410.229 96.5788 410.277 96.5553 412.205 96.5553C413.92 96.5553 414.253 96.6257 414.539 97.0241C414.729 97.2819 415.062 97.4928 415.301 97.4928C415.539 97.4928 415.729 97.6568 415.729 97.8443C415.729 98.0552 415.943 98.4302 416.205 98.7114C416.443 98.9692 416.777 99.7895 416.92 100.516C417.062 101.242 417.253 102.203 417.348 102.649C417.467 103.258 417.658 103.492 418.039 103.539C418.539 103.61 418.586 103.516 418.586 102.672C418.586 102.133 418.681 101.711 418.824 101.711C418.943 101.711 419.062 101.383 419.062 101.008C419.062 100.61 419.158 100.305 419.3 100.305C419.419 100.305 419.538 99.977 419.538 99.602C419.538 99.063 419.634 98.8989 420.015 98.8989C420.3 98.8989 420.491 98.7349 420.491 98.5239C420.491 98.0787 421.062 97.4928 421.491 97.4928C421.681 97.4928 421.967 97.2819 422.157 97.0241C422.443 96.6257 422.776 96.5553 424.253 96.5553C425.776 96.5553 426.062 96.6257 426.562 97.1412C427.086 97.6568 427.157 97.8912 427.157 99.602C427.157 101.313 427.086 101.547 426.562 102.063C426.062 102.578 425.776 102.649 424.419 102.649H422.872V101.711C422.872 100.961 422.967 100.774 423.3 100.774C423.538 100.774 423.872 100.563 424.062 100.305C424.253 100.047 424.586 99.8364 424.824 99.8364C425.086 99.8364 425.253 99.6723 425.253 99.3676C425.253 98.9692 425.086 98.8989 424.062 98.8989C423.395 98.8989 422.872 98.9927 422.872 99.1333C422.872 99.2505 422.657 99.3676 422.396 99.3676C422.086 99.3676 421.919 99.5317 421.919 99.7895C421.919 100.024 421.705 100.352 421.467 100.516C421.134 100.75 420.967 101.266 420.848 102.227C420.705 103.469 420.729 103.68 421.229 104.195C422.062 105.063 423.062 105.461 424.467 105.461C426.205 105.461 427.11 105.039 428.276 103.68C429.943 101.688 430.586 100.211 430.586 98.1958C430.609 96.6725 430.514 96.2272 429.848 94.9148C428.538 92.2666 426.467 90.5089 422.919 88.9622C418.991 87.2748 415.705 87.2982 412.11 89.0559C409.515 90.3214 406.42 93.1572 405.968 94.6805C405.634 95.8054 405.706 98.8052 406.063 99.9535ZM412.491 90.7667C414.801 89.2199 418.443 88.8215 420.919 89.8293C422.324 90.4152 424.276 91.8213 424.3 92.29C424.3 92.8056 423.157 93.7431 422.515 93.7431C422.181 93.7431 421.919 93.8368 421.919 93.9774C421.919 94.0946 421.681 94.2118 421.372 94.2118C421.062 94.2118 420.681 94.3524 420.515 94.493C420.11 94.9148 414.491 94.9148 414.348 94.493C414.301 94.3289 414.11 94.2118 413.92 94.2118C413.491 94.2118 411.182 92.0791 411.277 91.7744C411.325 91.6338 411.872 91.1651 412.491 90.7667Z" fill="black"/>
<path d="M399.663 29.0784C399.673 29.0674 399.684 29.0555 399.696 29.0428C399.8 28.9279 399.922 28.7653 400.06 28.5486C400.238 28.2532 400.471 27.9666 400.7 27.7338C400.92 27.5119 401.176 27.2978 401.413 27.1882C401.689 27.0533 401.993 26.9511 402.355 27.0531C402.658 27.1381 402.944 27.3562 403.25 27.6014L403.25 27.6013L403.255 27.6055C403.728 27.9956 404.313 28.3472 404.888 28.6C405.469 28.8553 405.994 28.9898 406.359 28.9913C406.326 28.9628 406.289 28.933 406.249 28.9017C404.099 27.2396 404.01 24.1663 405.831 21.8687L406.223 22.1793M399.663 29.0784L400.485 28.8117C399.89 29.7491 399.437 29.96 399.223 29.421C398.556 27.7805 403.58 21.8278 406.366 20.9607C407.104 20.7263 407.056 21.1247 406.223 22.1793M399.663 29.0784C399.662 28.9973 399.674 28.887 399.71 28.7413C399.776 28.473 399.909 28.142 400.109 27.7611C400.507 27.0011 401.136 26.1066 401.882 25.2233C402.626 24.3419 403.473 23.4869 404.299 22.8028C404.914 22.294 405.496 21.8972 406.001 21.6482C405.949 21.7172 405.892 21.7908 405.83 21.8693L406.223 22.1793M399.663 29.0784L406.556 28.507C404.675 27.054 404.532 24.312 406.223 22.1793M399.71 29.2832C399.71 29.2831 399.71 29.2824 399.709 29.2811C399.71 29.2826 399.71 29.2832 399.71 29.2832ZM406.695 21.3957C406.695 21.3957 406.695 21.3957 406.694 21.3957C406.695 21.3957 406.695 21.3957 406.695 21.3957ZM406.747 28.9504C406.748 28.9501 406.748 28.9499 406.748 28.9499C406.748 28.9499 406.748 28.95 406.747 28.9504Z" fill="black" stroke="black"/>
<path d="M399.716 17.2179L399.716 17.2212C399.951 18.6066 400.266 19.3791 400.645 19.8087C400.645 19.809 400.645 19.8092 400.645 19.8094L400.754 19.9311L400.951 19.6887C401.101 19.4952 401.233 19.3153 401.326 19.1741C401.372 19.1039 401.403 19.0521 401.421 19.018C401.437 18.9148 401.475 18.833 401.498 18.7893C401.534 18.7194 401.578 18.6515 401.623 18.5898C401.714 18.4655 401.836 18.3244 401.973 18.1768C402.251 17.8794 402.628 17.519 403.039 17.1516C403.855 16.422 404.853 15.6236 405.537 15.2123L405.536 15.2122L405.546 15.2067C405.903 15.0025 406.228 14.7946 406.46 14.6299C406.573 14.5496 406.655 14.4853 406.706 14.4406C406.737 14.3778 406.776 14.3273 406.812 14.2901C406.882 14.218 406.959 14.1749 407.011 14.1499C407.117 14.0992 407.237 14.0698 407.339 14.0507C407.553 14.0108 407.825 13.9924 408.104 13.9924C408.339 13.9924 408.599 13.9712 408.826 13.9366C409.061 13.9008 409.208 13.8584 409.259 13.8354C409.69 13.605 410.334 13.4138 410.898 13.2968C411.188 13.2367 411.473 13.1926 411.719 13.1733C411.775 13.1689 411.83 13.1657 411.884 13.164C411.701 12.9015 411.424 12.5619 411.049 12.1636L411.049 12.1636L411.047 12.1608C410.089 11.1286 408.59 9.98465 406.982 9.0114C405.372 8.03719 403.7 7.26183 402.411 6.93897L402.409 6.93841C402.086 6.85606 401.849 6.79755 401.665 6.76007C401.478 6.72195 401.375 6.71205 401.313 6.71357C401.269 6.71466 401.258 6.721 401.252 6.72453C401.251 6.72476 401.251 6.72498 401.251 6.72518C401.229 6.73744 401.19 6.76586 401.098 6.85715C401.038 6.916 400.939 7.06371 400.82 7.34177C400.706 7.60761 400.591 7.95084 400.479 8.35781C400.255 9.17076 400.054 10.2009 399.9 11.2958C399.589 13.5023 399.48 15.8809 399.716 17.2179Z" fill="black" stroke="black"/>
<path d="M410.579 28.249L410.974 28.5558C410.878 28.6797 410.787 28.8113 410.709 28.9344C410.788 28.92 410.877 28.9006 410.975 28.8753C411.547 28.7271 412.267 28.4211 412.823 28.0456L412.823 28.0455C413.678 27.469 414.472 27.1163 415.151 27.1163C415.214 27.1163 415.27 27.114 415.319 27.1102C415.268 27.0561 415.201 26.9932 415.116 26.922L415.109 26.9165L415.103 26.9108C414.937 26.7622 414.6 26.3691 414.217 25.9038C413.821 25.4219 413.341 24.8206 412.875 24.2202L412.875 24.2202L412.871 24.2152C412.422 23.6221 411.987 23.0722 411.645 22.6641C411.474 22.4594 411.33 22.295 411.222 22.1799C411.173 22.1277 411.135 22.09 411.108 22.065C410.991 22.0271 410.871 22.0005 410.756 21.9842C410.896 22.1579 411.035 22.3709 411.164 22.5982C411.462 23.1261 411.745 23.8047 411.877 24.4139C412.194 25.7975 411.854 27.4273 410.974 28.5565L410.579 28.249ZM410.196 22.0053C410.196 22.0054 410.198 22.0045 410.202 22.0023C410.197 22.0042 410.196 22.0053 410.196 22.0053ZM411.077 22.038C411.077 22.0381 411.078 22.0394 411.081 22.0416C411.078 22.039 411.077 22.0379 411.077 22.038ZM410.5 29.3274C410.5 29.3295 410.5 29.3291 410.501 29.3263L410.5 29.3274ZM410.317 28.9615C410.316 28.9613 410.316 28.9612 410.316 28.9612L410.317 28.9615Z" fill="black" stroke="black"/>
<path d="M419.13 35.1974C419.169 35.2158 419.215 35.2418 419.263 35.2764C419.107 35.0625 418.969 34.8149 418.851 34.5442L418.627 34.807C418.627 34.8072 418.626 34.8073 418.626 34.8075C418.54 34.9083 418.453 35.0057 418.364 35.0995C418.435 35.0894 418.508 35.0846 418.579 35.0846C418.762 35.0846 418.959 35.116 419.13 35.1974ZM414.663 36.4199C414.683 36.42 414.704 36.4196 414.726 36.4189C414.699 36.4112 414.672 36.4031 414.645 36.3947C414.647 36.3979 414.649 36.401 414.652 36.4042C414.655 36.4091 414.659 36.4143 414.663 36.4199ZM412.16 34.4161C412.16 34.4161 412.161 34.4179 412.163 34.4217C412.161 34.4181 412.16 34.4161 412.16 34.4161Z" fill="black" stroke="black"/>
<path d="M417.912 30.1084C417.141 30.1084 416.44 30.125 415.926 30.1498C415.996 30.2181 416.073 30.2809 416.146 30.3297C416.198 30.3644 416.239 30.3863 416.265 30.3978C416.266 30.3981 416.267 30.3984 416.267 30.3987C416.497 30.4123 416.706 30.5251 416.848 30.6215C417.017 30.7365 417.184 30.8924 417.314 31.069C417.374 31.1502 417.458 31.2287 417.539 31.2836C417.578 31.3105 417.609 31.3265 417.629 31.3344C417.63 31.3347 417.631 31.3351 417.631 31.3354C417.753 31.3404 417.864 31.3758 417.944 31.4077C418.038 31.4453 418.133 31.4956 418.223 31.552C418.4 31.6635 418.588 31.8182 418.744 32.001C418.763 32.0228 418.779 32.0417 418.794 32.0583C418.862 32.0065 418.959 31.9237 419.098 31.7937C419.315 31.5909 419.598 31.308 419.987 30.9187L419.987 30.9187L419.99 30.916C420.359 30.5527 420.656 30.2474 420.883 29.997C420.68 30.0162 420.437 30.0338 420.166 30.049C419.531 30.0847 418.73 30.1084 417.912 30.1084ZM416.283 30.4047C416.283 30.4047 416.282 30.4042 416.28 30.4036C416.282 30.4045 416.283 30.4048 416.283 30.4047ZM417.641 31.3387C417.641 31.3387 417.641 31.3385 417.639 31.3382L417.641 31.3387Z" fill="black" stroke="black"/>
<path d="M424.097 27.8114L424.097 27.8115C424.653 28.187 425.374 28.493 425.946 28.6411C426.043 28.6664 426.132 28.6859 426.211 28.7003C426.134 28.5773 426.043 28.4458 425.946 28.322C425.066 27.1925 424.726 25.5624 425.044 24.1787C425.176 23.5832 425.446 22.929 425.741 22.4012C425.879 22.1539 426.029 21.9231 426.181 21.733C426.043 21.7777 425.838 21.8995 425.528 22.2047C425.201 22.5264 424.797 23.0119 424.265 23.7213L424.265 23.7214L424.261 23.7273C423.842 24.2684 423.387 24.8466 422.984 25.338C422.595 25.8121 422.234 26.232 422.001 26.4498C421.834 26.6236 421.711 26.7652 421.626 26.8789C421.668 26.8809 421.716 26.8821 421.77 26.8821C422.448 26.8821 423.243 27.2349 424.097 27.8114ZM426.42 29.0933C426.42 29.093 426.42 29.0927 426.42 29.0922L426.42 29.0933ZM426.821 21.7607C426.821 21.7607 426.821 21.7604 426.82 21.7599L426.821 21.7607ZM421.492 27.0993C421.492 27.0993 421.492 27.0989 421.492 27.098L421.492 27.0993ZM426.603 28.7274C426.604 28.7272 426.604 28.7271 426.604 28.7271C426.604 28.7271 426.604 28.7272 426.603 28.7274Z" fill="black" stroke="black"/>
<path d="M434.631 18.1551L434.631 18.1551L434.635 18.1591C435.163 18.656 435.677 19.1039 436.078 19.4248C436.28 19.5861 436.446 19.7099 436.568 19.7909C436.571 19.793 436.574 19.795 436.577 19.797C436.643 19.7198 436.725 19.5914 436.817 19.398C437.02 18.9733 437.224 18.3306 437.398 17.5068C437.621 16.4335 437.626 15.7673 437.416 14.1118C437.278 13.0831 436.959 11.7774 436.584 10.5917C436.204 9.39097 435.786 8.3777 435.471 7.90185C435.383 7.76877 435.333 7.70494 435.297 7.66967C435.282 7.65513 435.275 7.65104 435.275 7.65084C435.275 7.65065 435.275 7.65076 435.275 7.65088C435.275 7.65093 435.275 7.65089 435.275 7.6508C435.274 7.65066 435.274 7.65036 435.272 7.64997C435.259 7.64663 435.212 7.63853 435.086 7.6517C434.961 7.6648 434.795 7.69419 434.556 7.7413L434.556 7.74137L434.547 7.7429C433.061 8.00885 430.884 8.93574 428.863 10.1616C427.934 10.7332 426.937 11.4678 426.175 12.1117C425.793 12.4345 425.48 12.7265 425.267 12.9577C425.248 12.9779 425.231 12.9972 425.214 13.0158C425.217 13.017 425.22 13.0182 425.223 13.0194C425.51 13.1325 425.917 13.2611 426.366 13.3745C427.323 13.6098 428.401 13.8633 428.765 13.9304C429.011 13.9758 429.286 14.0757 429.532 14.1949C429.766 14.3086 430.013 14.4593 430.197 14.6339C430.475 14.8604 431.112 15.3299 431.634 15.6652C432.223 16.0432 433.562 17.1729 434.631 18.1551ZM436.712 19.8758C436.712 19.8755 436.708 19.8736 436.701 19.871C436.709 19.8748 436.713 19.8761 436.712 19.8758ZM436.509 19.8647C436.507 19.8656 436.506 19.8662 436.506 19.8663C436.506 19.8664 436.507 19.8659 436.509 19.8647ZM425.014 13.2807C425.014 13.2807 425.015 13.2793 425.016 13.2765C425.015 13.2794 425.014 13.2807 425.014 13.2807Z" fill="black" stroke="black"/>
<path d="M433.665 27.3712L433.665 27.3712C433.192 27.7612 432.607 28.1127 432.03 28.3653C431.459 28.6149 430.937 28.7498 430.561 28.7567C430.594 28.7283 430.631 28.6986 430.671 28.6674C430.671 28.6672 430.672 28.6669 430.672 28.6666L430.364 28.2727C432.245 26.8197 432.388 24.0777 430.697 21.945L433.665 27.3712ZM433.665 27.3712L433.67 27.3671C433.976 27.1219 434.262 26.9038 434.565 26.8188C434.927 26.7168 435.231 26.819 435.507 26.9539C435.744 27.0635 436 27.2776 436.219 27.4995C436.45 27.7326 436.683 28.0196 436.861 28.3155C437 28.5371 437.124 28.6935 437.226 28.7995C437.2 28.5856 437.119 28.2874 436.955 27.9142C436.355 26.5902 435.218 25.0568 433.953 23.7689C432.9 22.6963 431.811 21.8472 430.923 21.4193C430.974 21.4866 431.029 21.5584 431.089 21.6347L433.665 27.3712ZM437.221 29.0858C437.221 29.0858 437.221 29.0853 437.221 29.0843L437.221 29.0858ZM430.211 21.1614C430.211 21.1614 430.211 21.1614 430.213 21.1614L430.211 21.1614Z" fill="black" stroke="black"/>
</svg>
