<svg width="50" height="50" viewBox="0 0 50 50" fill="none" xmlns="http://www.w3.org/2000/svg">
<path d="M18.4803 18.8748C20.8103 18.4788 22.5383 16.3568 22.8013 13.8218C23.0683 11.2438 23.6703 0.883801 19.7813 1.5428C9.69334 3.2538 10.4013 20.2448 18.4803 18.8748ZM31.7533 18.8748C39.8303 20.2448 40.5383 3.2538 30.4503 1.5418C26.5623 0.882801 27.1633 11.2428 27.4293 13.8208C27.6933 16.3568 29.4233 18.4788 31.7533 18.8748ZM14.3363 26.8798C14.3363 25.5318 13.8553 24.3098 13.0803 23.4208C11.8053 21.7548 7.75234 18.3858 6.75734 19.2488C4.68034 21.0548 4.74734 25.4998 5.99834 28.7298C6.64134 30.5258 8.19434 31.7888 10.0093 31.7888C12.3983 31.7888 14.3363 29.5908 14.3363 26.8798ZM43.4733 19.2488C42.4803 18.3858 38.4273 21.7548 37.1523 23.4208C36.3773 24.3098 35.8953 25.5318 35.8953 26.8798C35.8953 29.5908 37.8353 31.7888 40.2223 31.7888C42.0383 31.7888 43.5923 30.5258 44.2353 28.7298C45.4833 25.4998 45.5523 21.0548 43.4733 19.2488ZM35.3373 34.5258C31.6613 32.6928 31.7753 29.1628 30.9393 25.9418C30.2743 23.3728 27.9193 21.4728 25.1163 21.4728C23.8162 21.4693 22.55 21.8878 21.5079 22.6653C20.4659 23.4428 19.7042 24.5375 19.3373 25.7848C18.4423 28.8668 18.9813 32.4548 14.9743 34.5018C11.7193 35.5628 10.4013 37.1108 10.4013 40.7718C10.4013 43.7458 12.9543 46.9298 16.2493 47.3258C19.9253 47.8798 22.7933 47.1558 25.1163 45.8318C27.4393 47.1558 30.3053 47.8788 33.9873 47.3258C37.2803 46.9298 39.8343 43.7578 39.8343 40.7718C39.8333 37.0308 38.5993 35.6368 35.3373 34.5258ZM31.0003 38.9998H27.1893L27.1943 42.9998H23.0383L23.0443 38.9998H19.0003V34.9998H23.0453L23.0393 30.9998H27.1953L27.1903 34.9998H31.0003V38.9998Z" fill="#F2F2F2"/>
</svg>
