<svg width="655" height="1128" viewBox="0 0 655 1128" fill="none" xmlns="http://www.w3.org/2000/svg">
<path d="M645.194 7.15719C633.54 11.2474 627.907 29.1273 635.961 35.9114C641.376 40.5303 647.503 40.1001 654.335 34.7585C662.121 28.6716 665.107 20.9207 662.407 13.915C660.508 9.1898 656.564 5.66687 652.461 5.30734C651.397 5.21413 647.998 6.02149 645.194 7.15719Z" fill="#C7EDF5"/>
<path d="M597.086 16.7565C592.975 19.5737 591.808 21.5435 591.068 27.1427C590.017 32.8528 590.39 34.5432 593 37.2586C604.168 48.8744 621.973 28.7455 611.447 16.4952C608.125 12.7505 602.778 12.8346 597.086 16.7565Z" fill="#C7EDF5"/>
<path d="M624.526 50.7961C623.289 51.1022 620.325 52.3622 618.129 53.5511C614.833 55.3346 613.155 55.3256 608.651 53.8258C591.694 48.0574 573.407 62.6181 577.321 78.8479C579.33 87.4508 584.565 92.6065 596.211 97.7714C604.126 101.228 608.105 104.063 612.863 109.591C624.839 123.35 636.092 127.237 648.713 122.127C661.652 116.768 666.524 101.86 658.837 90.8258C655.716 86.1316 655.474 84.8671 656.891 80.985C660.374 72.4488 655.789 60.4428 646.927 54.5549C642.195 51.5156 630.087 49.4875 624.526 50.7961Z" fill="#C7EDF5"/>
<path d="M346.497 30.0571C340.421 32.9261 339.71 33.8802 337.157 41.5874C334.638 49.1616 334.636 50.4339 337.385 55.2203C341.302 62.2778 347.24 63.7584 355.232 59.5288C365.586 54.0495 369.136 41.0757 362.383 32.7453C357.689 26.9081 354.39 26.2269 346.497 30.0571Z" fill="#C7EDF5"/>
<path d="M393.659 50.8667C385.096 50.4286 375.25 58.2973 372.96 67.484C369.441 81.5969 387.087 87.9765 398.72 76.7352C409.13 66.6032 406.248 51.6014 393.659 50.8667Z" fill="#C7EDF5"/>
<path d="M306.698 41.064C301.434 41.3071 294.905 49.1542 294.599 55.4416C294.254 65.6791 304.591 71.6505 312.503 65.8453C322.943 58.1247 318.843 40.4153 306.698 41.064Z" fill="#C7EDF5"/>
<path d="M337.325 74.438C334.568 74.7408 330.012 76.5744 327.187 78.4158C323.091 80.93 320.599 81.4399 315.931 80.5588C308.078 79.1667 297.992 82.3085 293.414 87.3895C287.795 93.4836 285.998 103.218 288.958 110.32C292.379 118.102 297.422 121.905 310.781 126.509C319.753 129.735 323.759 132.007 330.78 138C338.443 144.577 340.389 145.628 347.499 146.835C357.644 148.516 365.354 146.054 371.172 139.162C377.85 131.351 377.96 123.318 371.621 113.96C367.736 108.041 366.964 105.445 367.45 100.334C368.334 93.6245 366.264 88.0171 360.976 82.0319C356.906 77.4819 344.075 73.2928 337.325 74.438Z" fill="#C7EDF5"/>
<path d="M395.141 98.0456C389.18 101.085 387.858 102.593 386.696 107.253C384.97 114.177 388.146 119.777 394.119 119.852C400.39 120.001 405.64 117.916 409.359 113.752C413.937 108.671 414.552 105.572 411.903 100.386C408.711 94.2165 403.679 93.5276 395.141 98.0456Z" fill="#C7EDF5"/>
<path d="M522.246 263.017C514.472 264.473 510.357 268.962 508 278.415C506.042 286.27 506.222 287.447 509.203 291.301C515.231 298.744 523.96 298.516 531.116 290.684C537.661 283.406 538.598 274.589 533.625 267.975C529.458 262.552 528.04 261.916 522.246 263.017Z" fill="#C7EDF5"/>
<path d="M562.888 285.312C557.524 285.955 548.126 292.662 545.677 297.425C535.912 317.617 563.852 325.715 574.656 305.782C577.072 301.152 577.216 292.985 574.778 290.115C572.488 287.281 566.601 284.965 562.888 285.312Z" fill="#C7EDF5"/>
<path d="M474.39 277.247C471.253 278.445 469.765 280.62 467.744 286.197C465.424 292.972 465.522 293.845 468.864 298.779C471.63 302.863 473.213 304.106 475.935 303.936C481.315 303.863 483.495 302.71 486.537 298.095C494.475 286.497 486.311 272.441 474.39 277.247Z" fill="#C7EDF5"/>
<path d="M506.006 310.444C502.127 311.457 497.801 313.63 496.33 315.102C494.248 317.129 492.449 317.387 487.996 316.277C476.862 313.501 465.105 318.913 460.586 328.817C457.391 335.94 458.585 343.167 464.02 350.462C468.647 356.565 471.269 358.067 486.409 363.115C492.693 365.106 496.633 367.644 502.153 372.697C511.233 381.183 520.304 384.011 530.307 381.838C546.862 378.046 553.443 357.343 541.926 345.986C539.652 343.722 538.88 341.126 539.267 336.414C539.989 327.826 538.082 322.825 531.87 316.751C524.752 309.885 515.548 307.59 506.006 310.444Z" fill="#C7EDF5"/>
<path d="M567.127 332.188C552.776 339.782 555.03 356.041 569.982 354.254C580.198 353.124 587.871 341.32 583.146 334.343C579.688 329.239 574.029 328.535 567.127 332.188Z" fill="#C7EDF5"/>
<path d="M173.906 342.263C167.458 342.37 159.232 345.908 155.605 350.05C153.733 352.246 151.861 352.648 148.479 351.962C142.253 350.518 131.535 354.344 126.784 359.804C118.384 369.098 120.446 383.726 130.979 391.78C135.953 395.534 138.059 396.427 145.959 397.535C157.52 399.448 161.453 401.115 169.692 407.599C178.575 414.505 186.322 416.295 195.777 413.727C213.411 408.797 218.288 389.786 205.203 376.763C201.586 372.987 200.521 370.592 200.661 367.063C201.794 354.239 188.498 342.023 173.906 342.263Z" fill="#C7EDF5"/>
<path d="M130.955 313.586C124.355 316.169 120.811 325.878 123.75 333.253C126.501 339.951 131.521 342.528 137.407 340.39C144.943 337.606 148.381 323.816 143.161 317.715C139.965 314.118 134.594 312.289 130.955 313.586Z" fill="#C7EDF5"/>
<path d="M217.819 312.897C212.178 313.795 206.387 318.963 202.877 326.444C200.538 331.432 200.421 333.475 202.271 338.146C204.963 344.969 209.621 347.243 217.227 345.386C228.975 342.594 236.181 328.308 230.446 319C227.555 314.036 223.459 312 217.819 312.897Z" fill="#C7EDF5"/>
<path d="M233.822 356.31C229.773 356.686 223.244 361.99 220.963 366.853C218.741 371.591 221.082 379.161 225.155 380.888C229.789 382.854 237.454 380.872 241.677 376.533C250.523 367.727 245.653 355.496 233.822 356.31Z" fill="#C7EDF5"/>
<path d="M174.835 295.418C164.256 297.51 158.162 311.22 162.914 321.906C165.759 328.045 170.218 330.385 176.97 328.913C187.548 326.821 193.643 313.11 188.89 302.424C186.045 296.285 181.586 293.945 174.835 295.418Z" fill="#C7EDF5"/>
<path d="M408.57 544.169C396.208 546.319 387.191 562.88 393.895 570.774C398.392 576.137 404.562 576.686 412.373 572.552C421.274 567.842 425.723 560.749 424.381 553.485C423.398 548.573 420.153 544.511 416.145 543.512C415.106 543.253 411.574 543.504 408.57 544.169Z" fill="#C7EDF5"/>
<path d="M358.934 545.935C354.31 548.035 352.773 549.773 350.967 555.121C348.83 560.527 348.877 562.236 350.952 565.299C359.827 578.401 381.368 561.569 373.253 547.95C370.669 543.77 365.34 543.007 358.934 545.935Z" fill="#C7EDF5"/>
<path d="M435.567 576.921C428.6 579.568 426.287 581.254 422.93 586.498C416.877 595.595 423.265 605.39 434.932 604.763C448.777 604.256 460.447 590.337 454.85 581.163C452.15 576.813 441.841 574.525 435.567 576.921Z" fill="#C7EDF5"/>
<path d="M379.686 583.494C378.399 583.597 375.213 584.358 372.802 585.171C369.187 586.391 367.521 586.117 363.333 583.942C347.587 575.632 326.631 586.953 327.415 603.411C327.766 612.125 331.981 617.985 342.565 624.866C349.769 629.49 353.179 632.886 356.85 639.034C366.118 654.355 376.554 659.927 390.073 656.934C403.955 653.748 411.648 639.969 406.121 627.985C403.917 622.91 403.919 621.637 406.069 618.072C411.163 610.292 408.904 597.849 401.225 590.702C397.105 586.988 385.462 583.095 379.686 583.494Z" fill="#C7EDF5"/>
<path d="M429.427 623.048C423.218 626.449 422.144 627.596 421.494 632.101C419.961 642.042 430.615 646.112 442.422 639.864C453.139 634.192 452.841 623.37 441.856 620.631C437.699 619.595 435.058 620.068 429.427 623.048Z" fill="#C7EDF5"/>
<path d="M130.497 616.057C124.421 618.926 123.71 619.88 121.157 627.587C118.638 635.161 118.636 636.434 121.385 641.22C125.302 648.278 131.24 649.758 139.232 645.529C149.586 640.049 153.136 627.076 146.383 618.745C141.689 612.908 138.39 612.227 130.497 616.057Z" fill="#C7EDF5"/>
<path d="M177.659 636.866C169.096 636.428 159.25 644.297 156.96 653.484C153.441 667.597 171.087 673.976 182.72 662.735C193.13 652.603 190.248 637.601 177.659 636.866Z" fill="#C7EDF5"/>
<path d="M90.698 627.064C85.434 627.307 78.9047 635.154 78.5985 641.442C78.2536 651.679 88.5907 657.65 96.503 651.845C106.943 644.125 102.843 626.415 90.698 627.064Z" fill="#C7EDF5"/>
<path d="M121.324 660.438C118.568 660.741 114.012 662.574 111.187 664.416C107.091 666.93 104.599 667.44 99.9306 666.559C92.0783 665.167 81.9918 668.308 77.4137 673.389C71.7946 679.483 69.9983 689.218 72.958 696.319C76.3788 704.102 81.4225 707.905 94.7813 712.508C103.753 715.735 107.759 718.007 114.78 724C122.443 730.577 124.389 731.628 131.499 732.835C141.644 734.516 149.354 732.054 155.172 725.161C161.85 717.351 161.96 709.318 155.621 699.96C151.736 694.041 150.964 691.445 151.45 686.333C152.334 679.624 150.263 674.017 144.975 668.032C140.906 663.482 128.075 659.293 121.324 660.438Z" fill="#C7EDF5"/>
<path d="M179.141 684.045C173.18 687.085 171.858 688.593 170.696 693.253C168.97 700.177 172.146 705.777 178.119 705.852C184.39 706.001 189.64 703.916 193.359 699.752C197.937 694.671 198.552 691.572 195.903 686.386C192.711 680.216 187.679 679.527 179.141 684.045Z" fill="#C7EDF5"/>
<path d="M253.246 827.017C245.472 828.473 241.357 832.962 239 842.415C237.042 850.27 237.222 851.446 240.203 855.301C246.231 862.743 254.96 862.516 262.116 854.684C268.661 847.406 269.598 838.589 264.625 831.975C260.458 826.552 259.04 825.916 253.246 827.017Z" fill="#C7EDF5"/>
<path d="M293.888 849.312C288.524 849.954 279.126 856.662 276.677 861.425C266.912 881.617 294.852 889.715 305.656 869.782C308.072 865.152 308.216 856.985 305.778 854.115C303.488 851.281 297.601 848.965 293.888 849.312Z" fill="#C7EDF5"/>
<path d="M205.39 841.247C202.253 842.445 200.765 844.619 198.744 850.197C196.424 856.972 196.522 857.845 199.864 862.779C202.63 866.863 204.213 868.106 206.935 867.936C212.315 867.863 214.495 866.71 217.537 862.095C225.475 850.497 217.311 836.441 205.39 841.247Z" fill="#C7EDF5"/>
<path d="M237.006 874.444C233.127 875.456 228.801 877.63 227.33 879.102C225.248 881.128 223.449 881.387 218.996 880.277C207.862 877.501 196.105 882.913 191.586 892.817C188.391 899.94 189.585 907.167 195.02 914.461C199.647 920.565 202.269 922.067 217.409 927.115C223.693 929.106 227.633 931.644 233.153 936.697C242.233 945.183 251.304 948.01 261.307 945.838C277.862 942.046 284.443 921.343 272.926 909.986C270.652 907.722 269.88 905.126 270.267 900.414C270.989 891.826 269.082 886.825 262.87 880.751C255.752 873.885 246.548 871.59 237.006 874.444Z" fill="#C7EDF5"/>
<path d="M298.126 896.188C283.776 903.782 286.03 920.041 300.982 918.254C311.197 917.124 318.871 905.32 314.146 898.343C310.688 893.239 305.029 892.535 298.126 896.188Z" fill="#C7EDF5"/>
<path d="M68.0988 1047.93C61.8269 1049.05 54.4771 1053.87 51.7311 1058.56C50.3249 1061.03 48.5748 1061.73 45.1429 1061.58C38.7908 1061.13 29.0639 1066.62 25.4742 1072.8C19.0565 1083.36 23.8705 1097.57 35.6922 1103.91C41.2652 1106.86 43.492 1107.41 51.4125 1107.27C63.0619 1107.34 67.2186 1108.38 76.5009 1113.52C86.4924 1118.98 94.3954 1119.54 103.13 1115.49C119.395 1107.81 120.512 1088.15 105.249 1077.27C100.996 1074.09 99.4977 1071.88 98.9583 1068.35C97.6076 1055.43 82.2931 1045.39 68.0988 1047.93Z" fill="#C7EDF5"/>
<path d="M20.6909 1026.21C14.7453 1029.82 13.1464 1040.03 17.4265 1046.89C21.3941 1053.11 26.7872 1054.88 32.1214 1051.83C38.9419 1047.87 39.6558 1033.63 33.3932 1028.39C29.586 1025.32 23.9937 1024.35 20.6909 1026.21Z" fill="#C7EDF5"/>
<path d="M105.327 1011.82C99.9946 1013.6 95.3326 1019.65 93.3408 1027.64C92.013 1032.96 92.2905 1035.01 94.9903 1039.36C98.9247 1045.72 103.906 1047.24 110.972 1044.19C121.903 1039.57 126.199 1024.23 118.819 1015.89C115.047 1011.41 110.659 1010.04 105.327 1011.82Z" fill="#C7EDF5"/>
<path d="M129.26 1052.43C125.381 1053.44 120.025 1059.75 118.731 1064.94C117.469 1070 121.205 1077.15 125.51 1078.22C130.409 1079.45 137.509 1076.27 140.799 1071.29C147.745 1061.14 140.649 1049.76 129.26 1052.43Z" fill="#C7EDF5"/>
<path d="M60.0318 1001.23C50.1094 1004.98 46.788 1019.57 53.4728 1029.43C57.4247 1035.09 62.2241 1036.71 68.531 1034.18C78.4534 1030.43 81.7748 1015.84 75.09 1005.98C71.1381 1000.32 66.3387 998.702 60.0318 1001.23Z" fill="#C7EDF5"/>
</svg>
