<svg width="591" height="197" viewBox="0 0 591 197" fill="none" xmlns="http://www.w3.org/2000/svg">
<path d="M141.239 26.5186V44.9734H135.017V38.1715H129.269V44.9734H123.048V26.5186H129.269V33.0569H135.017V26.5186H141.239ZM151.671 45.237C150.072 45.237 148.63 44.9207 147.347 44.2879C146.082 43.6376 145.089 42.75 144.368 41.6252C143.648 40.4827 143.287 39.1909 143.287 37.7497C143.287 36.3084 143.648 35.0254 144.368 33.9005C145.089 32.7581 146.082 31.8705 147.347 31.2378C148.63 30.605 150.072 30.2887 151.671 30.2887C153.288 30.2887 154.729 30.605 155.995 31.2378C157.278 31.8705 158.271 32.7581 158.974 33.9005C159.695 35.0254 160.055 36.3084 160.055 37.7497C160.055 39.1909 159.695 40.4827 158.974 41.6252C158.271 42.75 157.278 43.6376 155.995 44.2879C154.729 44.9207 153.288 45.237 151.671 45.237ZM151.671 40.597C152.357 40.597 152.919 40.3509 153.358 39.8588C153.798 39.3491 154.018 38.646 154.018 37.7497C154.018 36.8533 153.798 36.159 153.358 35.6669C152.919 35.1748 152.357 34.9287 151.671 34.9287C150.986 34.9287 150.423 35.1748 149.984 35.6669C149.544 36.159 149.325 36.8533 149.325 37.7497C149.325 38.646 149.544 39.3491 149.984 39.8588C150.423 40.3509 150.986 40.597 151.671 40.597ZM167.588 32.1078C168.643 30.8951 170.198 30.2887 172.254 30.2887V35.5615C171.78 35.4912 171.34 35.456 170.936 35.456C168.897 35.456 167.878 36.493 167.878 38.567V44.9734H161.92V30.5523H167.588V32.1078ZM180.274 30.2887C182.804 30.2887 184.738 30.8599 186.074 32.0023C187.409 33.1272 188.077 34.8672 188.077 37.2224V44.9734H182.541V43.0752C181.855 44.5164 180.493 45.237 178.454 45.237C177.312 45.237 176.337 45.0437 175.528 44.657C174.737 44.2528 174.131 43.7167 173.709 43.0488C173.305 42.3634 173.103 41.5988 173.103 40.7552C173.103 39.3315 173.647 38.2506 174.737 37.5124C175.827 36.7742 177.479 36.4051 179.694 36.4051H182.093C181.899 35.2803 180.994 34.7178 179.377 34.7178C178.727 34.7178 178.068 34.8233 177.4 35.0342C176.732 35.2275 176.161 35.5 175.686 35.8515L173.788 31.9232C174.614 31.4135 175.607 31.0181 176.767 30.7369C177.945 30.4381 179.114 30.2887 180.274 30.2887ZM180.247 41.6515C180.669 41.6515 181.047 41.5373 181.381 41.3088C181.715 41.0803 181.961 40.7376 182.119 40.2806V39.2788H180.643C179.43 39.2788 178.824 39.683 178.824 40.4915C178.824 40.8255 178.947 41.1067 179.193 41.3352C179.456 41.5461 179.808 41.6515 180.247 41.6515ZM196.321 32.1078C197.375 30.8951 198.931 30.2887 200.987 30.2887V35.5615C200.512 35.4912 200.073 35.456 199.669 35.456C197.63 35.456 196.611 36.493 196.611 38.567V44.9734H190.652V30.5523H196.321V32.1078ZM202.676 30.5523H208.634V44.9734H202.676V30.5523ZM205.655 29.3923C204.583 29.3923 203.713 29.1111 203.045 28.5487C202.394 27.9687 202.069 27.2393 202.069 26.3605C202.069 25.4817 202.394 24.761 203.045 24.1986C203.713 23.6186 204.583 23.3286 205.655 23.3286C206.744 23.3286 207.614 23.601 208.265 24.1459C208.915 24.6907 209.24 25.3938 209.24 26.255C209.24 27.1689 208.915 27.9247 208.265 28.5223C207.614 29.1023 206.744 29.3923 205.655 29.3923ZM218.894 45.237C217.295 45.237 215.853 44.9207 214.57 44.2879C213.305 43.6376 212.312 42.75 211.591 41.6252C210.871 40.4827 210.51 39.1909 210.51 37.7497C210.51 36.3084 210.871 35.0254 211.591 33.9005C212.312 32.7581 213.305 31.8705 214.57 31.2378C215.853 30.605 217.295 30.2887 218.894 30.2887C220.511 30.2887 221.952 30.605 223.218 31.2378C224.501 31.8705 225.494 32.7581 226.197 33.9005C226.917 35.0254 227.278 36.3084 227.278 37.7497C227.278 39.1909 226.917 40.4827 226.197 41.6252C225.494 42.75 224.501 43.6376 223.218 44.2879C221.952 44.9207 220.511 45.237 218.894 45.237ZM218.894 40.597C219.579 40.597 220.142 40.3509 220.581 39.8588C221.021 39.3491 221.24 38.646 221.24 37.7497C221.24 36.8533 221.021 36.159 220.581 35.6669C220.142 35.1748 219.579 34.9287 218.894 34.9287C218.209 34.9287 217.646 35.1748 217.207 35.6669C216.767 36.159 216.548 36.8533 216.548 37.7497C216.548 38.646 216.767 39.3491 217.207 39.8588C217.646 40.3509 218.209 40.597 218.894 40.597ZM234.784 45.237C233.554 45.237 232.341 45.1052 231.146 44.8416C229.951 44.5779 228.984 44.2352 228.246 43.8134L229.881 39.8852C230.549 40.2894 231.34 40.6058 232.254 40.8343C233.167 41.0627 234.055 41.177 234.916 41.177C235.602 41.177 236.076 41.1243 236.34 41.0188C236.621 40.8958 236.762 40.72 236.762 40.4915C236.762 40.263 236.586 40.1049 236.234 40.017C235.901 39.9291 235.347 39.8412 234.574 39.7533C233.396 39.6127 232.394 39.437 231.568 39.2261C230.742 38.9976 230.013 38.567 229.38 37.9342C228.765 37.3015 228.457 36.3963 228.457 35.2187C228.457 34.2872 228.738 33.4524 229.301 32.7142C229.863 31.976 230.698 31.3872 231.805 30.9478C232.93 30.5084 234.275 30.2887 235.839 30.2887C236.929 30.2887 237.992 30.3941 239.029 30.605C240.084 30.7984 240.98 31.0884 241.718 31.4751L240.084 35.4033C238.818 34.7002 237.43 34.3487 235.918 34.3487C234.617 34.3487 233.967 34.5772 233.967 35.0342C233.967 35.2627 234.143 35.4296 234.494 35.5351C234.846 35.623 235.4 35.7109 236.155 35.7987C237.333 35.9393 238.326 36.1239 239.134 36.3524C239.961 36.5809 240.681 37.0115 241.296 37.6442C241.929 38.277 242.245 39.1821 242.245 40.3597C242.245 41.2561 241.964 42.0734 241.402 42.8115C240.839 43.5497 239.996 44.1385 238.871 44.5779C237.746 45.0173 236.384 45.237 234.784 45.237ZM267.904 25.4114V44.9734H262.235V43.787C261.374 44.7537 260.056 45.237 258.281 45.237C257.015 45.237 255.847 44.9382 254.774 44.3407C253.72 43.7255 252.876 42.8467 252.244 41.7043C251.628 40.5618 251.321 39.2436 251.321 37.7497C251.321 36.2557 251.628 34.9463 252.244 33.8214C252.876 32.679 253.72 31.809 254.774 31.2114C255.847 30.5963 257.015 30.2887 258.281 30.2887C259.88 30.2887 261.102 30.7017 261.945 31.5278V25.4114H267.904ZM259.705 40.597C260.39 40.597 260.952 40.3509 261.392 39.8588C261.831 39.3491 262.051 38.646 262.051 37.7497C262.051 36.8533 261.831 36.159 261.392 35.6669C260.952 35.1748 260.39 34.9287 259.705 34.9287C259.019 34.9287 258.457 35.1748 258.017 35.6669C257.578 36.159 257.358 36.8533 257.358 37.7497C257.358 38.646 257.578 39.3491 258.017 39.8588C258.457 40.3509 259.019 40.597 259.705 40.597ZM285.886 37.7497C285.886 37.8376 285.86 38.3033 285.807 39.147H275.789C275.999 39.6918 276.351 40.1136 276.843 40.4124C277.335 40.6936 277.95 40.8343 278.689 40.8343C279.321 40.8343 279.849 40.7552 280.27 40.597C280.71 40.4388 281.184 40.1664 281.694 39.7797L284.805 42.917C283.399 44.4637 281.299 45.237 278.504 45.237C276.764 45.237 275.235 44.9207 273.917 44.2879C272.599 43.6376 271.579 42.7412 270.859 41.5988C270.138 40.4564 269.778 39.1733 269.778 37.7497C269.778 36.3084 270.129 35.0254 270.832 33.9005C271.553 32.7581 272.528 31.8705 273.759 31.2378C275.006 30.605 276.404 30.2887 277.95 30.2887C279.409 30.2887 280.736 30.5787 281.931 31.1587C283.144 31.7387 284.102 32.5911 284.805 33.716C285.526 34.8409 285.886 36.1854 285.886 37.7497ZM278.003 34.3487C277.388 34.3487 276.878 34.5157 276.474 34.8496C276.07 35.1836 275.806 35.6581 275.683 36.2733H280.323C280.2 35.6757 279.937 35.2099 279.532 34.876C279.128 34.5245 278.618 34.3487 278.003 34.3487ZM302.129 30.2887C304.66 30.2887 306.594 30.8599 307.93 32.0023C309.265 33.1272 309.933 34.8672 309.933 37.2224V44.9734H304.397V43.0752C303.711 44.5164 302.349 45.237 300.31 45.237C299.168 45.237 298.192 45.0437 297.384 44.657C296.593 44.2528 295.987 43.7167 295.565 43.0488C295.161 42.3634 294.958 41.5988 294.958 40.7552C294.958 39.3315 295.503 38.2506 296.593 37.5124C297.683 36.7742 299.335 36.4051 301.549 36.4051H303.949C303.755 35.2803 302.85 34.7178 301.233 34.7178C300.583 34.7178 299.924 34.8233 299.256 35.0342C298.588 35.2275 298.017 35.5 297.542 35.8515L295.644 31.9232C296.47 31.4135 297.463 31.0181 298.623 30.7369C299.801 30.4381 300.969 30.2887 302.129 30.2887ZM302.103 41.6515C302.525 41.6515 302.903 41.5373 303.237 41.3088C303.571 41.0803 303.817 40.7376 303.975 40.2806V39.2788H302.499C301.286 39.2788 300.679 39.683 300.679 40.4915C300.679 40.8255 300.802 41.1067 301.049 41.3352C301.312 41.5461 301.664 41.6515 302.103 41.6515ZM323.133 44.4725C322.236 44.9822 321.015 45.237 319.468 45.237C317.447 45.237 315.892 44.7537 314.802 43.787C313.712 42.8028 313.167 41.3352 313.167 39.3842V35.6933H311.19V31.3432H313.167V27.3096H319.126V31.3432H322.078V35.6933H319.126V39.3315C319.126 39.7709 319.24 40.1136 319.468 40.3597C319.697 40.6058 319.996 40.7288 320.365 40.7288C320.874 40.7288 321.323 40.597 321.709 40.3333L323.133 44.4725ZM339.592 37.7497C339.592 37.8376 339.566 38.3033 339.513 39.147H329.495C329.706 39.6918 330.057 40.1136 330.549 40.4124C331.041 40.6936 331.657 40.8343 332.395 40.8343C333.028 40.8343 333.555 40.7552 333.977 40.597C334.416 40.4388 334.891 40.1664 335.4 39.7797L338.511 42.917C337.105 44.4637 335.005 45.237 332.21 45.237C330.47 45.237 328.941 44.9207 327.623 44.2879C326.305 43.6376 325.285 42.7412 324.565 41.5988C323.844 40.4564 323.484 39.1733 323.484 37.7497C323.484 36.3084 323.835 35.0254 324.538 33.9005C325.259 32.7581 326.234 31.8705 327.465 31.2378C328.713 30.605 330.11 30.2887 331.657 30.2887C333.115 30.2887 334.442 30.5787 335.638 31.1587C336.85 31.7387 337.808 32.5911 338.511 33.716C339.232 34.8409 339.592 36.1854 339.592 37.7497ZM331.709 34.3487C331.094 34.3487 330.585 34.5157 330.18 34.8496C329.776 35.1836 329.512 35.6581 329.389 36.2733H334.029C333.906 35.6757 333.643 35.2099 333.238 34.876C332.834 34.5245 332.325 34.3487 331.709 34.3487ZM351.491 30.2887C353.266 30.2887 354.69 30.8247 355.762 31.8969C356.851 32.969 357.396 34.586 357.396 36.7478V44.9734H351.438V37.776C351.438 36.1239 350.849 35.2978 349.672 35.2978C349.004 35.2978 348.459 35.5351 348.037 36.0097C347.633 36.4666 347.431 37.196 347.431 38.1979V44.9734H341.472V30.5523H347.141V31.976C347.703 31.4135 348.353 30.9917 349.092 30.7105C349.83 30.4293 350.63 30.2887 351.491 30.2887ZM367.992 45.237C366.358 45.237 364.89 44.9207 363.59 44.2879C362.306 43.6552 361.296 42.7676 360.558 41.6252C359.837 40.4827 359.477 39.1909 359.477 37.7497C359.477 36.3084 359.837 35.0254 360.558 33.9005C361.296 32.7581 362.306 31.8705 363.59 31.2378C364.89 30.605 366.358 30.2887 367.992 30.2887C369.75 30.2887 371.253 30.6666 372.501 31.4223C373.748 32.1781 374.61 33.2239 375.084 34.5596L370.471 36.8269C369.908 35.5615 369.073 34.9287 367.966 34.9287C367.263 34.9287 366.674 35.1748 366.2 35.6669C365.743 36.159 365.514 36.8533 365.514 37.7497C365.514 38.6636 365.743 39.3667 366.2 39.8588C366.674 40.3509 367.263 40.597 367.966 40.597C369.073 40.597 369.908 39.9642 370.471 38.6988L375.084 40.9661C374.61 42.3018 373.748 43.3476 372.501 44.1034C371.253 44.8591 369.75 45.237 367.992 45.237ZM376.461 30.5523H382.42V44.9734H376.461V30.5523ZM379.44 29.3923C378.368 29.3923 377.498 29.1111 376.83 28.5487C376.18 27.9687 375.855 27.2393 375.855 26.3605C375.855 25.4817 376.18 24.761 376.83 24.1986C377.498 23.6186 378.368 23.3286 379.44 23.3286C380.53 23.3286 381.4 23.601 382.05 24.1459C382.701 24.6907 383.026 25.3938 383.026 26.255C383.026 27.1689 382.701 27.9247 382.05 28.5223C381.4 29.1023 380.53 29.3923 379.44 29.3923ZM392.68 45.237C391.08 45.237 389.639 44.9207 388.356 44.2879C387.09 43.6376 386.097 42.75 385.377 41.6252C384.656 40.4827 384.296 39.1909 384.296 37.7497C384.296 36.3084 384.656 35.0254 385.377 33.9005C386.097 32.7581 387.09 31.8705 388.356 31.2378C389.639 30.605 391.08 30.2887 392.68 30.2887C394.297 30.2887 395.738 30.605 397.003 31.2378C398.286 31.8705 399.279 32.7581 399.982 33.9005C400.703 35.0254 401.063 36.3084 401.063 37.7497C401.063 39.1909 400.703 40.4827 399.982 41.6252C399.279 42.75 398.286 43.6376 397.003 44.2879C395.738 44.9207 394.297 45.237 392.68 45.237ZM392.68 40.597C393.365 40.597 393.928 40.3509 394.367 39.8588C394.806 39.3491 395.026 38.646 395.026 37.7497C395.026 36.8533 394.806 36.159 394.367 35.6669C393.928 35.1748 393.365 34.9287 392.68 34.9287C391.994 34.9287 391.432 35.1748 390.992 35.6669C390.553 36.159 390.333 36.8533 390.333 37.7497C390.333 38.646 390.553 39.3491 390.992 39.8588C391.432 40.3509 391.994 40.597 392.68 40.597ZM393.312 24.7523H398.981L393.787 28.9705H389.832L393.312 24.7523ZM412.946 30.2887C414.722 30.2887 416.145 30.8247 417.217 31.8969C418.307 32.969 418.852 34.586 418.852 36.7478V44.9734H412.894V37.776C412.894 36.1239 412.305 35.2978 411.127 35.2978C410.459 35.2978 409.915 35.5351 409.493 36.0097C409.089 36.4666 408.886 37.196 408.886 38.1979V44.9734H402.928V30.5523H408.596V31.976C409.159 31.4135 409.809 30.9917 410.547 30.7105C411.286 30.4293 412.085 30.2887 412.946 30.2887Z" fill="#0F7499"/>
<path d="M0 96.6679C0 87.5676 7.37721 80.1904 16.4775 80.1904H574.117C583.217 80.1904 590.594 87.5676 590.594 96.6679V180.154C590.594 189.254 583.217 196.631 574.117 196.631H16.4775C7.37725 196.631 0 189.254 0 180.154V96.6679Z" fill="#0F7499"/>
<path d="M185.749 109.297H191.971V122.927H200.302V127.751H185.749V109.297ZM217.206 113.33V127.751H211.537V126.381C211.01 126.925 210.395 127.338 209.692 127.62C208.989 127.883 208.242 128.015 207.451 128.015C205.623 128.015 204.156 127.461 203.048 126.354C201.941 125.229 201.387 123.542 201.387 121.292V113.33H207.346V120.264C207.346 121.248 207.504 121.951 207.82 122.373C208.137 122.795 208.602 123.006 209.217 123.006C209.797 123.006 210.281 122.777 210.667 122.32C211.054 121.846 211.247 121.108 211.247 120.106V113.33H217.206ZM229.471 113.067C231.247 113.067 232.67 113.603 233.742 114.675C234.832 115.747 235.377 117.364 235.377 119.526V127.751H229.419V120.554C229.419 118.902 228.83 118.076 227.652 118.076C226.984 118.076 226.439 118.313 226.018 118.788C225.613 119.245 225.411 119.974 225.411 120.976V127.751H219.453V113.33H225.121V114.754C225.684 114.192 226.334 113.77 227.072 113.489C227.81 113.207 228.61 113.067 229.471 113.067ZM253.17 120.528C253.17 120.616 253.144 121.081 253.091 121.925H243.073C243.284 122.47 243.635 122.892 244.127 123.191C244.62 123.472 245.235 123.612 245.973 123.612C246.606 123.612 247.133 123.533 247.555 123.375C247.994 123.217 248.469 122.944 248.978 122.558L252.089 125.695C250.683 127.242 248.583 128.015 245.788 128.015C244.048 128.015 242.519 127.699 241.201 127.066C239.883 126.416 238.863 125.519 238.143 124.377C237.422 123.234 237.062 121.951 237.062 120.528C237.062 119.087 237.413 117.803 238.116 116.679C238.837 115.536 239.813 114.649 241.043 114.016C242.291 113.383 243.688 113.067 245.235 113.067C246.694 113.067 248.02 113.357 249.216 113.937C250.428 114.517 251.386 115.369 252.089 116.494C252.81 117.619 253.17 118.963 253.17 120.528ZM245.287 117.127C244.672 117.127 244.163 117.294 243.758 117.628C243.354 117.962 243.09 118.436 242.967 119.051H247.607C247.484 118.454 247.221 117.988 246.817 117.654C246.412 117.303 245.903 117.127 245.287 117.127ZM260.297 128.015C259.067 128.015 257.854 127.883 256.659 127.62C255.464 127.356 254.497 127.013 253.759 126.591L255.393 122.663C256.061 123.067 256.852 123.384 257.766 123.612C258.68 123.841 259.568 123.955 260.429 123.955C261.114 123.955 261.589 123.902 261.852 123.797C262.134 123.674 262.274 123.498 262.274 123.27C262.274 123.041 262.098 122.883 261.747 122.795C261.413 122.707 260.859 122.619 260.086 122.531C258.908 122.391 257.907 122.215 257.081 122.004C256.254 121.776 255.525 121.345 254.892 120.712C254.277 120.08 253.97 119.174 253.97 117.997C253.97 117.065 254.251 116.23 254.813 115.492C255.376 114.754 256.211 114.165 257.318 113.726C258.443 113.286 259.787 113.067 261.352 113.067C262.441 113.067 263.505 113.172 264.542 113.383C265.596 113.576 266.492 113.866 267.231 114.253L265.596 118.181C264.331 117.478 262.942 117.127 261.431 117.127C260.13 117.127 259.48 117.355 259.48 117.812C259.48 118.041 259.655 118.208 260.007 118.313C260.358 118.401 260.912 118.489 261.668 118.577C262.845 118.717 263.838 118.902 264.647 119.13C265.473 119.359 266.194 119.79 266.809 120.422C267.442 121.055 267.758 121.96 267.758 123.138C267.758 124.034 267.477 124.851 266.914 125.59C266.352 126.328 265.508 126.917 264.383 127.356C263.258 127.795 261.896 128.015 260.297 128.015ZM283.134 113.067C285.665 113.067 287.599 113.638 288.934 114.78C290.27 115.905 290.938 117.645 290.938 120V127.751H285.402V125.853C284.716 127.294 283.354 128.015 281.315 128.015C280.173 128.015 279.197 127.822 278.389 127.435C277.598 127.031 276.991 126.495 276.57 125.827C276.165 125.141 275.963 124.377 275.963 123.533C275.963 122.11 276.508 121.029 277.598 120.29C278.688 119.552 280.34 119.183 282.554 119.183H284.953C284.76 118.058 283.855 117.496 282.238 117.496C281.588 117.496 280.929 117.601 280.261 117.812C279.593 118.006 279.022 118.278 278.547 118.63L276.649 114.701C277.475 114.192 278.468 113.796 279.628 113.515C280.805 113.216 281.974 113.067 283.134 113.067ZM283.108 124.43C283.53 124.43 283.908 124.315 284.242 124.087C284.576 123.858 284.822 123.516 284.98 123.059V122.057H283.503C282.291 122.057 281.684 122.461 281.684 123.27C281.684 123.604 281.807 123.885 282.053 124.113C282.317 124.324 282.669 124.43 283.108 124.43ZM320.531 109.297L312.727 127.751H306.611L298.807 109.297H305.503L309.906 120.08L314.414 109.297H320.531ZM321.085 113.33H327.043V127.751H321.085V113.33ZM324.064 112.17C322.992 112.17 322.122 111.889 321.454 111.327C320.804 110.747 320.479 110.017 320.479 109.139C320.479 108.26 320.804 107.539 321.454 106.977C322.122 106.397 322.992 106.107 324.064 106.107C325.154 106.107 326.024 106.379 326.674 106.924C327.324 107.469 327.65 108.172 327.65 109.033C327.65 109.947 327.324 110.703 326.674 111.3C326.024 111.88 325.154 112.17 324.064 112.17ZM344.632 120.528C344.632 120.616 344.606 121.081 344.553 121.925H334.535C334.746 122.47 335.098 122.892 335.59 123.191C336.082 123.472 336.697 123.612 337.435 123.612C338.068 123.612 338.595 123.533 339.017 123.375C339.456 123.217 339.931 122.944 340.441 122.558L343.552 125.695C342.145 127.242 340.045 128.015 337.251 128.015C335.511 128.015 333.981 127.699 332.663 127.066C331.345 126.416 330.326 125.519 329.605 124.377C328.884 123.234 328.524 121.951 328.524 120.528C328.524 119.087 328.876 117.803 329.579 116.679C330.299 115.536 331.275 114.649 332.505 114.016C333.753 113.383 335.15 113.067 336.697 113.067C338.156 113.067 339.483 113.357 340.678 113.937C341.891 114.517 342.849 115.369 343.552 116.494C344.272 117.619 344.632 118.963 344.632 120.528ZM336.75 117.127C336.134 117.127 335.625 117.294 335.221 117.628C334.816 117.962 334.553 118.436 334.43 119.051H339.07C338.947 118.454 338.683 117.988 338.279 117.654C337.875 117.303 337.365 117.127 336.75 117.127ZM351.786 114.886C352.84 113.673 354.396 113.067 356.452 113.067V118.34C355.977 118.269 355.538 118.234 355.134 118.234C353.095 118.234 352.076 119.271 352.076 121.345V127.751H346.117V113.33H351.786V114.886ZM367.764 113.067C369.539 113.067 370.962 113.603 372.034 114.675C373.124 115.747 373.669 117.364 373.669 119.526V127.751H367.711V120.554C367.711 118.902 367.122 118.076 365.944 118.076C365.277 118.076 364.732 118.313 364.31 118.788C363.906 119.245 363.703 119.974 363.703 120.976V127.751H357.745V113.33H363.413V114.754C363.976 114.192 364.626 113.77 365.364 113.489C366.103 113.207 366.902 113.067 367.764 113.067ZM391.462 120.528C391.462 120.616 391.436 121.081 391.383 121.925H381.365C381.576 122.47 381.927 122.892 382.42 123.191C382.912 123.472 383.527 123.612 384.265 123.612C384.898 123.612 385.425 123.533 385.847 123.375C386.286 123.217 386.761 122.944 387.271 122.558L390.381 125.695C388.975 127.242 386.875 128.015 384.081 128.015C382.34 128.015 380.811 127.699 379.493 127.066C378.175 126.416 377.156 125.519 376.435 124.377C375.714 123.234 375.354 121.951 375.354 120.528C375.354 119.087 375.706 117.803 376.409 116.679C377.129 115.536 378.105 114.649 379.335 114.016C380.583 113.383 381.98 113.067 383.527 113.067C384.986 113.067 386.313 113.357 387.508 113.937C388.721 114.517 389.678 115.369 390.381 116.494C391.102 117.619 391.462 118.963 391.462 120.528ZM383.58 117.127C382.964 117.127 382.455 117.294 382.05 117.628C381.646 117.962 381.383 118.436 381.26 119.051H385.9C385.777 118.454 385.513 117.988 385.109 117.654C384.704 117.303 384.195 117.127 383.58 117.127ZM398.589 128.015C397.359 128.015 396.146 127.883 394.951 127.62C393.756 127.356 392.789 127.013 392.051 126.591L393.685 122.663C394.353 123.067 395.144 123.384 396.058 123.612C396.972 123.841 397.86 123.955 398.721 123.955C399.406 123.955 399.881 123.902 400.145 123.797C400.426 123.674 400.566 123.498 400.566 123.27C400.566 123.041 400.391 122.883 400.039 122.795C399.705 122.707 399.152 122.619 398.378 122.531C397.201 122.391 396.199 122.215 395.373 122.004C394.547 121.776 393.817 121.345 393.185 120.712C392.569 120.08 392.262 119.174 392.262 117.997C392.262 117.065 392.543 116.23 393.105 115.492C393.668 114.754 394.503 114.165 395.61 113.726C396.735 113.286 398.079 113.067 399.644 113.067C400.733 113.067 401.797 113.172 402.834 113.383C403.888 113.576 404.785 113.866 405.523 114.253L403.888 118.181C402.623 117.478 401.234 117.127 399.723 117.127C398.422 117.127 397.772 117.355 397.772 117.812C397.772 118.041 397.948 118.208 398.299 118.313C398.651 118.401 399.204 118.489 399.96 118.577C401.138 118.717 402.131 118.902 402.939 119.13C403.765 119.359 404.486 119.79 405.101 120.422C405.734 121.055 406.05 121.96 406.05 123.138C406.05 124.034 405.769 124.851 405.206 125.59C404.644 126.328 403.8 126.917 402.676 127.356C401.551 127.795 400.189 128.015 398.589 128.015Z" fill="white"/>
<path d="M92.4839 151.611C94.3821 151.611 95.8519 152.204 96.8933 153.39C97.9478 154.577 98.4751 156.277 98.4751 158.492C98.4751 160.047 98.1917 161.379 97.6249 162.486C97.0581 163.58 96.2606 164.417 95.2324 164.997C94.2174 165.564 93.0376 165.847 91.693 165.847C90.9812 165.847 90.3089 165.775 89.6762 165.63C89.0566 165.472 88.5162 165.247 88.0548 164.957L89.0039 163.02C89.6893 163.468 90.5659 163.692 91.6337 163.692C92.9651 163.692 94.0064 163.283 94.7578 162.466C95.5092 161.649 95.8849 160.469 95.8849 158.927V158.907C95.4762 159.382 94.9555 159.744 94.3228 159.994C93.6901 160.232 92.9782 160.35 92.1873 160.35C91.2778 160.35 90.4605 160.179 89.7355 159.836C89.0105 159.48 88.4437 158.979 88.035 158.334C87.6264 157.688 87.422 156.943 87.422 156.099C87.422 155.203 87.6461 154.419 88.0943 153.746C88.5425 153.061 89.1489 152.533 89.9134 152.164C90.678 151.795 91.5348 151.611 92.4839 151.611ZM92.6817 158.334C93.5121 158.334 94.1844 158.109 94.6985 157.661C95.2258 157.213 95.4894 156.646 95.4894 155.961C95.4894 155.289 95.2324 154.735 94.7183 154.3C94.2174 153.852 93.5187 153.628 92.6223 153.628C91.8182 153.628 91.1657 153.845 90.6648 154.28C90.1639 154.702 89.9134 155.269 89.9134 155.981C89.9134 156.706 90.1639 157.279 90.6648 157.701C91.1657 158.123 91.838 158.334 92.6817 158.334ZM101.757 158.254C101.308 158.254 100.926 158.103 100.61 157.8C100.293 157.483 100.135 157.088 100.135 156.613C100.135 156.126 100.287 155.73 100.59 155.427C100.906 155.124 101.295 154.972 101.757 154.972C102.218 154.972 102.6 155.124 102.903 155.427C103.22 155.73 103.378 156.126 103.378 156.613C103.378 157.088 103.22 157.483 102.903 157.8C102.587 158.103 102.205 158.254 101.757 158.254ZM101.757 165.788C101.308 165.788 100.926 165.636 100.61 165.333C100.293 165.017 100.135 164.621 100.135 164.147C100.135 163.659 100.287 163.264 100.59 162.96C100.906 162.657 101.295 162.506 101.757 162.506C102.218 162.506 102.6 162.657 102.903 162.96C103.22 163.264 103.378 163.659 103.378 164.147C103.378 164.621 103.22 165.017 102.903 165.333C102.587 165.636 102.205 165.788 101.757 165.788ZM110.934 157.523C112.213 157.681 113.188 158.116 113.86 158.828C114.533 159.54 114.869 160.429 114.869 161.497C114.869 162.301 114.664 163.033 114.256 163.692C113.847 164.351 113.228 164.878 112.397 165.274C111.58 165.656 110.578 165.847 109.392 165.847C108.403 165.847 107.447 165.709 106.525 165.432C105.615 165.142 104.837 164.747 104.191 164.246L105.299 162.249C105.8 162.67 106.406 163.007 107.118 163.257C107.843 163.494 108.588 163.613 109.352 163.613C110.262 163.613 110.973 163.428 111.488 163.059C112.015 162.677 112.278 162.163 112.278 161.517C112.278 160.871 112.028 160.37 111.527 160.014C111.039 159.645 110.288 159.461 109.273 159.461H108.008V157.701L111.151 153.964H104.864V151.808H114.295V153.529L110.934 157.523ZM122.324 165.847C121.216 165.847 120.228 165.57 119.358 165.017C118.488 164.45 117.802 163.633 117.301 162.565C116.801 161.484 116.55 160.205 116.55 158.729C116.55 157.253 116.801 155.981 117.301 154.913C117.802 153.832 118.488 153.015 119.358 152.461C120.228 151.894 121.216 151.611 122.324 151.611C123.431 151.611 124.42 151.894 125.29 152.461C126.173 153.015 126.865 153.832 127.366 154.913C127.867 155.981 128.117 157.253 128.117 158.729C128.117 160.205 127.867 161.484 127.366 162.565C126.865 163.633 126.173 164.45 125.29 165.017C124.42 165.57 123.431 165.847 122.324 165.847ZM122.324 163.613C123.312 163.613 124.09 163.204 124.657 162.387C125.237 161.57 125.527 160.35 125.527 158.729C125.527 157.108 125.237 155.888 124.657 155.071C124.09 154.254 123.312 153.845 122.324 153.845C121.348 153.845 120.571 154.254 119.991 155.071C119.424 155.888 119.14 157.108 119.14 158.729C119.14 160.35 119.424 161.57 119.991 162.387C120.571 163.204 121.348 163.613 122.324 163.613ZM140.104 154.972C141.659 154.972 142.846 155.348 143.663 156.099C144.494 156.837 144.909 157.958 144.909 159.461V165.65H142.576V164.364C142.272 164.826 141.837 165.182 141.271 165.432C140.717 165.669 140.045 165.788 139.254 165.788C138.463 165.788 137.771 165.656 137.178 165.392C136.584 165.116 136.123 164.74 135.793 164.265C135.477 163.778 135.319 163.231 135.319 162.624C135.319 161.675 135.668 160.917 136.367 160.35C137.079 159.77 138.193 159.48 139.709 159.48H142.437V159.322C142.437 158.584 142.213 158.017 141.765 157.622C141.33 157.226 140.677 157.029 139.807 157.029C139.214 157.029 138.628 157.121 138.048 157.305C137.481 157.49 137 157.747 136.604 158.076L135.635 156.277C136.189 155.855 136.855 155.532 137.632 155.308C138.41 155.084 139.234 154.972 140.104 154.972ZM139.768 163.989C140.387 163.989 140.934 163.85 141.409 163.573C141.897 163.283 142.239 162.875 142.437 162.347V161.122H139.886C138.463 161.122 137.751 161.589 137.751 162.525C137.751 162.974 137.929 163.33 138.285 163.593C138.641 163.857 139.135 163.989 139.768 163.989ZM161.408 154.972C162.739 154.972 163.794 155.361 164.571 156.139C165.349 156.903 165.738 158.057 165.738 159.599V165.65H163.266V159.915C163.266 158.993 163.062 158.301 162.653 157.839C162.245 157.365 161.658 157.127 160.894 157.127C160.063 157.127 159.398 157.404 158.897 157.958C158.396 158.498 158.145 159.276 158.145 160.291V165.65H155.674V159.915C155.674 158.993 155.469 158.301 155.061 157.839C154.652 157.365 154.065 157.127 153.301 157.127C152.457 157.127 151.785 157.398 151.284 157.938C150.796 158.479 150.552 159.263 150.552 160.291V165.65H148.081V155.091H150.434V156.435C150.829 155.961 151.324 155.598 151.917 155.348C152.51 155.097 153.169 154.972 153.894 154.972C154.685 154.972 155.384 155.124 155.99 155.427C156.61 155.717 157.097 156.152 157.453 156.732C157.888 156.178 158.448 155.75 159.134 155.447C159.819 155.13 160.577 154.972 161.408 154.972ZM178.395 154.972C179.95 154.972 181.137 155.348 181.954 156.099C182.784 156.837 183.2 157.958 183.2 159.461V165.65H180.866V164.364C180.563 164.826 180.128 165.182 179.561 165.432C179.008 165.669 178.335 165.788 177.545 165.788C176.754 165.788 176.062 165.656 175.468 165.392C174.875 165.116 174.414 164.74 174.084 164.265C173.768 163.778 173.61 163.231 173.61 162.624C173.61 161.675 173.959 160.917 174.658 160.35C175.369 159.77 176.483 159.48 177.999 159.48H180.728V159.322C180.728 158.584 180.504 158.017 180.056 157.622C179.621 157.226 178.968 157.029 178.098 157.029C177.505 157.029 176.918 157.121 176.338 157.305C175.772 157.49 175.29 157.747 174.895 158.076L173.926 156.277C174.48 155.855 175.145 155.532 175.923 155.308C176.701 155.084 177.525 154.972 178.395 154.972ZM178.059 163.989C178.678 163.989 179.225 163.85 179.7 163.573C180.187 163.283 180.53 162.875 180.728 162.347V161.122H178.177C176.754 161.122 176.042 161.589 176.042 162.525C176.042 162.974 176.22 163.33 176.576 163.593C176.932 163.857 177.426 163.989 178.059 163.989ZM195.87 151.808V165.65H193.299V153.964H190.373V151.808H195.87ZM204.508 157.523C205.787 157.681 206.762 158.116 207.434 158.828C208.107 159.54 208.443 160.429 208.443 161.497C208.443 162.301 208.238 163.033 207.83 163.692C207.421 164.351 206.802 164.878 205.971 165.274C205.154 165.656 204.152 165.847 202.966 165.847C201.977 165.847 201.021 165.709 200.098 165.432C199.189 165.142 198.411 164.747 197.765 164.246L198.873 162.249C199.373 162.67 199.98 163.007 200.692 163.257C201.417 163.494 202.161 163.613 202.926 163.613C203.836 163.613 204.547 163.428 205.061 163.059C205.589 162.677 205.852 162.163 205.852 161.517C205.852 160.871 205.602 160.37 205.101 160.014C204.613 159.645 203.862 159.461 202.847 159.461H201.581V157.701L204.725 153.964H198.438V151.808H207.869V153.529L204.508 157.523ZM211.666 158.254C211.218 158.254 210.836 158.103 210.519 157.8C210.203 157.483 210.045 157.088 210.045 156.613C210.045 156.126 210.196 155.73 210.5 155.427C210.816 155.124 211.205 154.972 211.666 154.972C212.128 154.972 212.51 155.124 212.813 155.427C213.129 155.73 213.288 156.126 213.288 156.613C213.288 157.088 213.129 157.483 212.813 157.8C212.497 158.103 212.114 158.254 211.666 158.254ZM211.666 165.788C211.218 165.788 210.836 165.636 210.519 165.333C210.203 165.017 210.045 164.621 210.045 164.147C210.045 163.659 210.196 163.264 210.5 162.96C210.816 162.657 211.205 162.506 211.666 162.506C212.128 162.506 212.51 162.657 212.813 162.96C213.129 163.264 213.288 163.659 213.288 164.147C213.288 164.621 213.129 165.017 212.813 165.333C212.497 165.636 212.114 165.788 211.666 165.788ZM220.725 165.847C219.618 165.847 218.629 165.57 217.759 165.017C216.889 164.45 216.204 163.633 215.703 162.565C215.202 161.484 214.951 160.205 214.951 158.729C214.951 157.253 215.202 155.981 215.703 154.913C216.204 153.832 216.889 153.015 217.759 152.461C218.629 151.894 219.618 151.611 220.725 151.611C221.832 151.611 222.821 151.894 223.691 152.461C224.574 153.015 225.266 153.832 225.767 154.913C226.268 155.981 226.519 157.253 226.519 158.729C226.519 160.205 226.268 161.484 225.767 162.565C225.266 163.633 224.574 164.45 223.691 165.017C222.821 165.57 221.832 165.847 220.725 165.847ZM220.725 163.613C221.714 163.613 222.491 163.204 223.058 162.387C223.638 161.57 223.928 160.35 223.928 158.729C223.928 157.108 223.638 155.888 223.058 155.071C222.491 154.254 221.714 153.845 220.725 153.845C219.75 153.845 218.972 154.254 218.392 155.071C217.825 155.888 217.542 157.108 217.542 158.729C217.542 160.35 217.825 161.57 218.392 162.387C218.972 163.204 219.75 163.613 220.725 163.613ZM234.029 165.847C232.922 165.847 231.933 165.57 231.063 165.017C230.193 164.45 229.508 163.633 229.007 162.565C228.506 161.484 228.256 160.205 228.256 158.729C228.256 157.253 228.506 155.981 229.007 154.913C229.508 153.832 230.193 153.015 231.063 152.461C231.933 151.894 232.922 151.611 234.029 151.611C235.137 151.611 236.125 151.894 236.995 152.461C237.878 153.015 238.571 153.832 239.071 154.913C239.572 155.981 239.823 157.253 239.823 158.729C239.823 160.205 239.572 161.484 239.071 162.565C238.571 163.633 237.878 164.45 236.995 165.017C236.125 165.57 235.137 165.847 234.029 165.847ZM234.029 163.613C235.018 163.613 235.796 163.204 236.363 162.387C236.943 161.57 237.233 160.35 237.233 158.729C237.233 157.108 236.943 155.888 236.363 155.071C235.796 154.254 235.018 153.845 234.029 153.845C233.054 153.845 232.276 154.254 231.696 155.071C231.129 155.888 230.846 157.108 230.846 158.729C230.846 160.35 231.129 161.57 231.696 162.387C232.276 163.204 233.054 163.613 234.029 163.613ZM253.629 154.972C254.657 154.972 255.573 155.196 256.377 155.644C257.194 156.093 257.834 156.725 258.295 157.543C258.756 158.36 258.987 159.302 258.987 160.37C258.987 161.438 258.756 162.387 258.295 163.217C257.834 164.035 257.194 164.667 256.377 165.116C255.573 165.564 254.657 165.788 253.629 165.788C252.205 165.788 251.078 165.313 250.247 164.364V169.485H247.776V155.091H250.129V156.475C250.537 155.974 251.038 155.598 251.632 155.348C252.238 155.097 252.904 154.972 253.629 154.972ZM253.352 163.672C254.261 163.672 255.006 163.369 255.586 162.763C256.179 162.156 256.476 161.359 256.476 160.37C256.476 159.382 256.179 158.584 255.586 157.978C255.006 157.371 254.261 157.068 253.352 157.068C252.759 157.068 252.225 157.206 251.75 157.483C251.276 157.747 250.9 158.129 250.623 158.63C250.346 159.131 250.208 159.711 250.208 160.37C250.208 161.029 250.346 161.609 250.623 162.11C250.9 162.611 251.276 163 251.75 163.277C252.225 163.54 252.759 163.672 253.352 163.672ZM274.658 154.972C275.989 154.972 277.044 155.361 277.822 156.139C278.6 156.903 278.988 158.057 278.988 159.599V165.65H276.517V159.915C276.517 158.993 276.312 158.301 275.904 157.839C275.495 157.365 274.909 157.127 274.144 157.127C273.314 157.127 272.648 157.404 272.147 157.958C271.646 158.498 271.396 159.276 271.396 160.291V165.65H268.924V159.915C268.924 158.993 268.72 158.301 268.311 157.839C267.902 157.365 267.316 157.127 266.551 157.127C265.708 157.127 265.035 157.398 264.534 157.938C264.047 158.479 263.803 159.263 263.803 160.291V165.65H261.331V155.091H263.684V156.435C264.08 155.961 264.574 155.598 265.167 155.348C265.76 155.097 266.419 154.972 267.144 154.972C267.935 154.972 268.634 155.124 269.24 155.427C269.86 155.717 270.348 156.152 270.704 156.732C271.139 156.178 271.699 155.75 272.384 155.447C273.07 155.13 273.828 154.972 274.658 154.972ZM298.007 159.124H303.444V161.181H298.007V159.124ZM326.576 151.808V165.65H324.005V153.964H321.079V151.808H326.576ZM333.652 157.167C335.603 157.167 337.046 157.549 337.982 158.314C338.918 159.065 339.386 160.093 339.386 161.398C339.386 162.229 339.182 162.98 338.773 163.652C338.364 164.325 337.752 164.859 336.934 165.254C336.117 165.65 335.109 165.847 333.909 165.847C332.92 165.847 331.965 165.709 331.042 165.432C330.119 165.142 329.341 164.747 328.709 164.246L329.796 162.249C330.31 162.67 330.923 163.007 331.635 163.257C332.36 163.494 333.105 163.613 333.869 163.613C334.779 163.613 335.491 163.428 336.005 163.059C336.532 162.677 336.796 162.156 336.796 161.497C336.796 160.785 336.512 160.252 335.946 159.896C335.392 159.527 334.436 159.342 333.078 159.342H329.737L330.449 151.808H338.575V153.964H332.624L332.327 157.167H333.652ZM342.411 158.254C341.963 158.254 341.581 158.103 341.264 157.8C340.948 157.483 340.79 157.088 340.79 156.613C340.79 156.126 340.941 155.73 341.244 155.427C341.561 155.124 341.95 154.972 342.411 154.972C342.872 154.972 343.255 155.124 343.558 155.427C343.874 155.73 344.032 156.126 344.032 156.613C344.032 157.088 343.874 157.483 343.558 157.8C343.241 158.103 342.859 158.254 342.411 158.254ZM342.411 165.788C341.963 165.788 341.581 165.636 341.264 165.333C340.948 165.017 340.79 164.621 340.79 164.147C340.79 163.659 340.941 163.264 341.244 162.96C341.561 162.657 341.95 162.506 342.411 162.506C342.872 162.506 343.255 162.657 343.558 162.96C343.874 163.264 344.032 163.659 344.032 164.147C344.032 164.621 343.874 165.017 343.558 165.333C343.241 165.636 342.859 165.788 342.411 165.788ZM351.47 165.847C350.363 165.847 349.374 165.57 348.504 165.017C347.634 164.45 346.948 163.633 346.447 162.565C345.947 161.484 345.696 160.205 345.696 158.729C345.696 157.253 345.947 155.981 346.447 154.913C346.948 153.832 347.634 153.015 348.504 152.461C349.374 151.894 350.363 151.611 351.47 151.611C352.577 151.611 353.566 151.894 354.436 152.461C355.319 153.015 356.011 153.832 356.512 154.913C357.013 155.981 357.263 157.253 357.263 158.729C357.263 160.205 357.013 161.484 356.512 162.565C356.011 163.633 355.319 164.45 354.436 165.017C353.566 165.57 352.577 165.847 351.47 165.847ZM351.47 163.613C352.458 163.613 353.236 163.204 353.803 162.387C354.383 161.57 354.673 160.35 354.673 158.729C354.673 157.108 354.383 155.888 353.803 155.071C353.236 154.254 352.458 153.845 351.47 153.845C350.494 153.845 349.717 154.254 349.137 155.071C348.57 155.888 348.286 157.108 348.286 158.729C348.286 160.35 348.57 161.57 349.137 162.387C349.717 163.204 350.494 163.613 351.47 163.613ZM364.774 165.847C363.667 165.847 362.678 165.57 361.808 165.017C360.938 164.45 360.253 163.633 359.752 162.565C359.251 161.484 359 160.205 359 158.729C359 157.253 359.251 155.981 359.752 154.913C360.253 153.832 360.938 153.015 361.808 152.461C362.678 151.894 363.667 151.611 364.774 151.611C365.881 151.611 366.87 151.894 367.74 152.461C368.623 153.015 369.315 153.832 369.816 154.913C370.317 155.981 370.568 157.253 370.568 158.729C370.568 160.205 370.317 161.484 369.816 162.565C369.315 163.633 368.623 164.45 367.74 165.017C366.87 165.57 365.881 165.847 364.774 165.847ZM364.774 163.613C365.763 163.613 366.54 163.204 367.107 162.387C367.687 161.57 367.977 160.35 367.977 158.729C367.977 157.108 367.687 155.888 367.107 155.071C366.54 154.254 365.763 153.845 364.774 153.845C363.799 153.845 363.021 154.254 362.441 155.071C361.874 155.888 361.591 157.108 361.591 158.729C361.591 160.35 361.874 161.57 362.441 162.387C363.021 163.204 363.799 163.613 364.774 163.613ZM384.373 154.972C385.402 154.972 386.318 155.196 387.122 155.644C387.939 156.093 388.578 156.725 389.04 157.543C389.501 158.36 389.732 159.302 389.732 160.37C389.732 161.438 389.501 162.387 389.04 163.217C388.578 164.035 387.939 164.667 387.122 165.116C386.318 165.564 385.402 165.788 384.373 165.788C382.95 165.788 381.823 165.313 380.992 164.364V169.485H378.521V155.091H380.874V156.475C381.282 155.974 381.783 155.598 382.376 155.348C382.983 155.097 383.648 154.972 384.373 154.972ZM384.097 163.672C385.006 163.672 385.751 163.369 386.331 162.763C386.924 162.156 387.221 161.359 387.221 160.37C387.221 159.382 386.924 158.584 386.331 157.978C385.751 157.371 385.006 157.068 384.097 157.068C383.503 157.068 382.969 157.206 382.495 157.483C382.02 157.747 381.645 158.129 381.368 158.63C381.091 159.131 380.953 159.711 380.953 160.37C380.953 161.029 381.091 161.609 381.368 162.11C381.645 162.611 382.02 163 382.495 163.277C382.969 163.54 383.503 163.672 384.097 163.672ZM405.403 154.972C406.734 154.972 407.789 155.361 408.567 156.139C409.344 156.903 409.733 158.057 409.733 159.599V165.65H407.262V159.915C407.262 158.993 407.057 158.301 406.649 157.839C406.24 157.365 405.653 157.127 404.889 157.127C404.058 157.127 403.393 157.404 402.892 157.958C402.391 158.498 402.14 159.276 402.14 160.291V165.65H399.669V159.915C399.669 158.993 399.464 158.301 399.056 157.839C398.647 157.365 398.06 157.127 397.296 157.127C396.452 157.127 395.78 157.398 395.279 157.938C394.791 158.479 394.547 159.263 394.547 160.291V165.65H392.076V155.091H394.429V156.435C394.824 155.961 395.319 155.598 395.912 155.348C396.505 155.097 397.164 154.972 397.889 154.972C398.68 154.972 399.379 155.124 399.985 155.427C400.605 155.717 401.092 156.152 401.448 156.732C401.883 156.178 402.443 155.75 403.129 155.447C403.814 155.13 404.572 154.972 405.403 154.972ZM422.39 154.972C423.945 154.972 425.132 155.348 425.949 156.099C426.779 156.837 427.195 157.958 427.195 159.461V165.65H424.861V164.364C424.558 164.826 424.123 165.182 423.556 165.432C423.003 165.669 422.33 165.788 421.54 165.788C420.749 165.788 420.057 165.656 419.463 165.392C418.87 165.116 418.409 164.74 418.079 164.265C417.763 163.778 417.605 163.231 417.605 162.624C417.605 161.675 417.954 160.917 418.653 160.35C419.365 159.77 420.478 159.48 421.994 159.48H424.723V159.322C424.723 158.584 424.499 158.017 424.051 157.622C423.616 157.226 422.963 157.029 422.093 157.029C421.5 157.029 420.913 157.121 420.333 157.305C419.767 157.49 419.285 157.747 418.89 158.076L417.921 156.277C418.475 155.855 419.14 155.532 419.918 155.308C420.696 155.084 421.52 154.972 422.39 154.972ZM422.054 163.989C422.673 163.989 423.22 163.85 423.695 163.573C424.183 163.283 424.525 162.875 424.723 162.347V161.122H422.172C420.749 161.122 420.037 161.589 420.037 162.525C420.037 162.974 420.215 163.33 420.571 163.593C420.927 163.857 421.421 163.989 422.054 163.989ZM439.865 151.808V165.65H437.294V153.964H434.368V151.808H439.865ZM447.277 151.611C449.175 151.611 450.645 152.204 451.686 153.39C452.741 154.577 453.268 156.277 453.268 158.492C453.268 160.047 452.985 161.379 452.418 162.486C451.851 163.58 451.054 164.417 450.025 164.997C449.01 165.564 447.831 165.847 446.486 165.847C445.774 165.847 445.102 165.775 444.469 165.63C443.85 165.472 443.309 165.247 442.848 164.957L443.797 163.02C444.482 163.468 445.359 163.692 446.427 163.692C447.758 163.692 448.8 163.283 449.551 162.466C450.302 161.649 450.678 160.469 450.678 158.927V158.907C450.269 159.382 449.749 159.744 449.116 159.994C448.483 160.232 447.771 160.35 446.98 160.35C446.071 160.35 445.254 160.179 444.529 159.836C443.804 159.48 443.237 158.979 442.828 158.334C442.419 157.688 442.215 156.943 442.215 156.099C442.215 155.203 442.439 154.419 442.887 153.746C443.336 153.061 443.942 152.533 444.707 152.164C445.471 151.795 446.328 151.611 447.277 151.611ZM447.475 158.334C448.305 158.334 448.977 158.109 449.492 157.661C450.019 157.213 450.282 156.646 450.282 155.961C450.282 155.289 450.025 154.735 449.511 154.3C449.01 153.852 448.312 153.628 447.415 153.628C446.611 153.628 445.959 153.845 445.458 154.28C444.957 154.702 444.707 155.269 444.707 155.981C444.707 156.706 444.957 157.279 445.458 157.701C445.959 158.123 446.631 158.334 447.475 158.334ZM456.55 158.254C456.101 158.254 455.719 158.103 455.403 157.8C455.086 157.483 454.928 157.088 454.928 156.613C454.928 156.126 455.08 155.73 455.383 155.427C455.699 155.124 456.088 154.972 456.55 154.972C457.011 154.972 457.393 155.124 457.696 155.427C458.013 155.73 458.171 156.126 458.171 156.613C458.171 157.088 458.013 157.483 457.696 157.8C457.38 158.103 456.998 158.254 456.55 158.254ZM456.55 165.788C456.101 165.788 455.719 165.636 455.403 165.333C455.086 165.017 454.928 164.621 454.928 164.147C454.928 163.659 455.08 163.264 455.383 162.96C455.699 162.657 456.088 162.506 456.55 162.506C457.011 162.506 457.393 162.657 457.696 162.96C458.013 163.264 458.171 163.659 458.171 164.147C458.171 164.621 458.013 165.017 457.696 165.333C457.38 165.636 456.998 165.788 456.55 165.788ZM465.608 165.847C464.501 165.847 463.512 165.57 462.642 165.017C461.772 164.45 461.087 163.633 460.586 162.565C460.085 161.484 459.835 160.205 459.835 158.729C459.835 157.253 460.085 155.981 460.586 154.913C461.087 153.832 461.772 153.015 462.642 152.461C463.512 151.894 464.501 151.611 465.608 151.611C466.716 151.611 467.704 151.894 468.574 152.461C469.458 153.015 470.15 153.832 470.65 154.913C471.151 155.981 471.402 157.253 471.402 158.729C471.402 160.205 471.151 161.484 470.65 162.565C470.15 163.633 469.458 164.45 468.574 165.017C467.704 165.57 466.716 165.847 465.608 165.847ZM465.608 163.613C466.597 163.613 467.375 163.204 467.942 162.387C468.522 161.57 468.812 160.35 468.812 158.729C468.812 157.108 468.522 155.888 467.942 155.071C467.375 154.254 466.597 153.845 465.608 153.845C464.633 153.845 463.855 154.254 463.275 155.071C462.708 155.888 462.425 157.108 462.425 158.729C462.425 160.35 462.708 161.57 463.275 162.387C463.855 163.204 464.633 163.613 465.608 163.613ZM478.913 165.847C477.805 165.847 476.817 165.57 475.947 165.017C475.077 164.45 474.391 163.633 473.89 162.565C473.389 161.484 473.139 160.205 473.139 158.729C473.139 157.253 473.389 155.981 473.89 154.913C474.391 153.832 475.077 153.015 475.947 152.461C476.817 151.894 477.805 151.611 478.913 151.611C480.02 151.611 481.009 151.894 481.879 152.461C482.762 153.015 483.454 153.832 483.955 154.913C484.456 155.981 484.706 157.253 484.706 158.729C484.706 160.205 484.456 161.484 483.955 162.565C483.454 163.633 482.762 164.45 481.879 165.017C481.009 165.57 480.02 165.847 478.913 165.847ZM478.913 163.613C479.901 163.613 480.679 163.204 481.246 162.387C481.826 161.57 482.116 160.35 482.116 158.729C482.116 157.108 481.826 155.888 481.246 155.071C480.679 154.254 479.901 153.845 478.913 153.845C477.937 153.845 477.159 154.254 476.579 155.071C476.013 155.888 475.729 157.108 475.729 158.729C475.729 160.35 476.013 161.57 476.579 162.387C477.159 163.204 477.937 163.613 478.913 163.613ZM498.512 154.972C499.54 154.972 500.456 155.196 501.26 155.644C502.078 156.093 502.717 156.725 503.178 157.543C503.64 158.36 503.87 159.302 503.87 160.37C503.87 161.438 503.64 162.387 503.178 163.217C502.717 164.035 502.078 164.667 501.26 165.116C500.456 165.564 499.54 165.788 498.512 165.788C497.088 165.788 495.961 165.313 495.131 164.364V169.485H492.659V155.091H495.012V156.475C495.421 155.974 495.922 155.598 496.515 155.348C497.121 155.097 497.787 154.972 498.512 154.972ZM498.235 163.672C499.145 163.672 499.889 163.369 500.469 162.763C501.063 162.156 501.359 161.359 501.359 160.37C501.359 159.382 501.063 158.584 500.469 157.978C499.889 157.371 499.145 157.068 498.235 157.068C497.642 157.068 497.108 157.206 496.633 157.483C496.159 157.747 495.783 158.129 495.506 158.63C495.23 159.131 495.091 159.711 495.091 160.37C495.091 161.029 495.23 161.609 495.506 162.11C495.783 162.611 496.159 163 496.633 163.277C497.108 163.54 497.642 163.672 498.235 163.672ZM519.541 154.972C520.873 154.972 521.927 155.361 522.705 156.139C523.483 156.903 523.872 158.057 523.872 159.599V165.65H521.4V159.915C521.4 158.993 521.196 158.301 520.787 157.839C520.378 157.365 519.792 157.127 519.027 157.127C518.197 157.127 517.531 157.404 517.03 157.958C516.529 158.498 516.279 159.276 516.279 160.291V165.65H513.807V159.915C513.807 158.993 513.603 158.301 513.194 157.839C512.786 157.365 512.199 157.127 511.434 157.127C510.591 157.127 509.919 157.398 509.418 157.938C508.93 158.479 508.686 159.263 508.686 160.291V165.65H506.214V155.091H508.567V156.435C508.963 155.961 509.457 155.598 510.05 155.348C510.644 155.097 511.303 154.972 512.028 154.972C512.819 154.972 513.517 155.124 514.124 155.427C514.743 155.717 515.231 156.152 515.587 156.732C516.022 156.178 516.582 155.75 517.268 155.447C517.953 155.13 518.711 154.972 519.541 154.972Z" fill="white"/>
<path d="M453.352 77.1874C453.755 78.9066 454.755 79.9274 456.706 80.608C457.206 80.7691 460.899 80.8408 472.364 80.8945L487.377 80.984L487.731 79.8379C488.409 77.7604 489.36 75.8442 490.215 74.8234C491.214 73.6593 492.682 72.352 493.004 72.352C493.133 72.352 493.23 72.2803 493.23 72.1908C493.23 72.0296 497.906 69.3433 498.874 68.9493C500.003 68.5015 502.792 66.9256 503.292 66.4599C503.566 66.2092 504.066 65.6898 504.389 65.3138C505.582 63.9885 505.518 64.7586 505.502 52.6701C505.485 42.5157 505.502 41.7277 505.792 40.5099C506.147 39.0235 506.469 38.3967 507.017 38.1101C508.001 37.6266 508.839 38.8265 509.42 41.5487C509.791 43.2858 510 48.8734 510 56.8249V63.899L510.549 64.7049C510.855 65.1347 511.178 65.654 511.258 65.851C511.5 66.3346 513.064 67.23 514.516 67.6956C515.177 67.9285 515.789 68.1613 515.886 68.2329C515.967 68.3045 516.741 68.5732 517.579 68.8418C519.434 69.4328 522.014 70.7581 522.482 71.367C522.675 71.6177 522.949 71.8147 523.094 71.8147C523.239 71.8147 524.03 72.5669 524.868 73.4623C526.384 75.1457 527.093 76.0949 527.093 76.4531C527.093 76.5785 527.222 76.8292 527.4 77.0262C527.561 77.2232 527.948 78.2082 528.238 79.1932L528.787 81.002L540.074 80.8766C546.283 80.8229 552.523 80.6796 553.942 80.59C555.361 80.4826 557.312 80.3751 558.296 80.3214C559.263 80.2677 560.279 80.1781 560.554 80.1244C561.747 79.8379 562.843 78.8708 563.279 77.6888C563.601 76.8471 563.617 74.7338 563.295 73.4265C563.005 72.1908 562.231 70.5432 561.827 70.3103C561.666 70.2029 561.44 69.988 561.328 69.8268C560.36 68.412 558.893 67.4091 557.022 66.8897C554.007 66.0659 549.314 66.9614 545.331 69.1104C544.751 69.4149 544.267 69.6656 544.235 69.6656C544.202 69.6656 544.186 68.5374 544.186 67.1763V64.669L545.363 64.0422C547.621 62.8423 549.766 60.1739 550.507 57.6846C550.814 56.61 550.846 56.0728 550.878 51.9358C550.894 47.19 550.943 46.7422 551.765 43.1246C551.959 42.3366 552.281 41.3696 552.507 40.9935C552.733 40.5995 552.878 40.2234 552.829 40.1339C552.781 40.0622 553.216 38.916 553.797 37.5908C557.248 29.7646 559.57 23.1383 560.408 18.7506C560.666 17.3358 560.715 15.4733 560.473 15.3121C560.376 15.2584 560.312 15.0256 560.312 14.8107C560.312 14.2376 559.425 11.1572 558.844 9.74245C557.861 7.28893 556.764 5.53386 554.748 3.24152C553.684 2.02371 552.491 0.788002 552.104 0.501457C551.394 7.62939e-06 551.346 7.62939e-06 548.992 7.62939e-06C546.863 7.62939e-06 546.541 0.0358276 545.879 0.394005C545.476 0.60891 545.154 0.859634 545.154 0.931274C545.154 1.00291 544.702 1.32526 544.138 1.62971C542.654 2.45352 540.59 4.0116 539.478 5.15777C538.284 6.39349 536.849 8.36346 533.527 13.3421C530.851 17.3358 529.69 19.27 527.658 23.0129C526.981 24.2845 526.368 25.3769 526.303 25.4306C526.239 25.4844 526.142 25.6635 526.077 25.8246C526.029 26.0037 525.481 26.9708 524.868 27.9737C524.271 28.9945 523.272 30.6779 522.675 31.7346C522.062 32.8091 521.466 33.6687 521.337 33.6687C521.062 33.6687 520.643 33.2389 520.643 32.9524C520.643 32.8449 521.175 32.1644 521.804 31.448C523.062 30.069 523.804 28.8154 524.481 27.0066C525.029 25.4844 525.174 22.2787 524.755 20.6848C524.433 19.3953 523.868 18.1596 523.304 17.3895L522.869 16.8344L523.401 16.1359C524.723 14.4883 525.465 12.4288 525.481 10.4588C525.481 7.96947 524.916 6.44721 522.917 3.51015C522.207 2.48935 521.514 1.36108 521.385 1.00291C521.079 0.197006 520.869 0.1791 519.192 0.967087C515.58 2.66843 511.613 5.76667 510.92 7.46802C510.807 7.77247 510.678 7.86201 510.5 7.77247C510.355 7.70084 509.194 7.59338 507.904 7.55756L505.582 7.48592L504.744 6.53676C504.292 5.99949 503.244 5.08614 502.405 4.47723C500.616 3.2057 495.971 0.537277 495.52 0.537277C495.278 0.537277 494.907 1.14617 493.94 3.08034C492.117 6.78748 491.827 7.45011 491.44 9.044C490.844 11.5154 491.182 13.7182 492.456 15.4733L492.972 16.1717L492.585 16.906C491.392 19.2163 490.924 20.3624 490.715 21.5265C490.215 24.0875 490.827 26.8275 492.521 29.6751L493.536 31.3943L493.23 31.8958C493.053 32.1644 492.73 32.8091 492.504 33.3285C492.182 34.1165 492.101 34.2239 492.005 33.9195C491.15 31.3227 489.795 28.6542 486.732 23.5502C486.022 22.3682 484.861 20.5415 484.168 19.4849C483.474 18.4283 482.91 17.5149 482.91 17.4612C482.91 17.4075 482.765 17.1925 482.603 16.9776C482.426 16.7448 481.362 15.2405 480.217 13.6108C479.088 11.999 477.492 9.92154 476.702 9.00819C475.315 7.43221 471.848 4.11906 471.59 4.11906C471.525 4.11906 471.461 4.0116 471.461 3.86832C471.461 3.74297 470.929 3.36688 470.284 3.02661C469.236 2.47144 468.978 2.41771 467.671 2.41771C465.462 2.41771 464.688 2.90125 462.011 5.94576C459.189 9.16936 457.932 11.4975 456.771 15.6345C456.271 17.3895 456.255 17.5149 456.351 19.861C456.513 24.3024 457.867 28.8871 461.302 36.5342C461.979 38.0564 462.624 39.5966 462.753 39.9369C462.866 40.2771 463.382 41.5666 463.898 42.8023C464.866 45.1662 465.817 48.1212 466.204 50.0016C466.381 50.8076 466.446 52.3298 466.446 55.2669C466.446 57.8457 466.51 59.7083 466.623 60.1918C467.01 61.8036 467.946 63.4333 469.381 65.0272L470.767 66.5674L470.638 67.4449C470.574 67.9285 470.509 68.9314 470.509 69.6656L470.493 70.9909L469.639 70.0954C467.413 67.6777 464.914 66.639 461.899 66.8539C459.06 67.0509 456.706 68.3225 454.416 70.8655C453.271 72.137 452.82 74.8771 453.352 77.1874ZM456.142 74.6801C456.319 74.2861 456.464 73.8921 456.464 73.8026C456.464 73.5877 456.738 73.1937 457.641 72.0654C458.738 70.7043 460.915 69.7014 462.995 69.6298C464.092 69.594 466.462 69.8447 466.462 70.0059C466.462 70.0775 466.881 70.3282 467.381 70.5611C468.703 71.17 470.268 72.9429 471.025 74.698C471.816 76.5068 471.832 77.3844 471.106 78.2082C470.638 78.7454 470.493 78.7992 469.671 78.7992C468.268 78.7992 468.01 78.6022 467.591 77.2053C467.188 75.88 466.543 74.3757 466.22 74.0175C466.091 73.8921 465.817 73.7847 465.591 73.7847H465.188L465.494 74.5368C465.898 75.5218 465.914 76.9366 465.527 77.5814C464.64 79.0857 463.398 79.1752 462.189 77.8321C461.915 77.5097 461.866 77.2411 461.882 75.8084L461.899 74.1428H461.447C460.995 74.1428 460.818 74.4115 460.818 75.1278C460.818 76.9008 459.98 78.5126 458.948 78.7275C458.238 78.8708 456.98 78.4947 456.545 78.0112C455.771 77.1336 455.61 75.8263 456.142 74.6801ZM461.802 16.8344C462.253 15.0077 462.931 13.7361 464.204 12.3392C465.511 10.9065 466.462 10.4588 467.897 10.62C469.123 10.7453 470.235 11.3184 472.606 13.0735C478.104 17.1388 480.846 20.3624 483.442 25.7888C484.877 28.7617 485.264 30.087 485.716 33.5434C486.49 39.3459 486.296 40.492 484.264 42.6232C481.813 45.1842 478.653 49.0167 477.734 50.5568C476.621 52.4194 475.734 54.2819 474.767 56.8787C474.041 58.8307 473.38 59.9411 472.799 60.1918C471.961 60.5321 470.735 59.4755 469.993 57.7562C469.461 56.5384 469.429 55.6788 469.687 51.3985C469.977 46.778 469.316 43.1246 467.365 38.3788C466.881 37.2147 466.156 35.6208 465.752 34.8328C465.333 34.0448 464.898 33.0419 464.753 32.5942C464.608 32.1465 464.398 31.5376 464.269 31.251C463.866 30.2123 463.027 27.6513 462.253 25.0725C461.495 22.5473 461.463 22.4219 461.463 20.3266C461.463 18.679 461.544 17.8552 461.802 16.8344ZM476.282 64.7586C477.556 60.7112 481.152 58.2039 484.716 58.8845C486.425 59.2068 487.78 60.0306 489.15 61.5529C489.795 62.2692 490.328 63.0035 490.328 63.1826C490.328 63.3617 490.457 63.6661 490.634 63.8631C490.989 64.293 491.102 65.0809 491.231 67.7494C491.295 69.0746 491.279 69.7552 491.15 69.8984C491.053 70.0059 490.973 70.2387 490.973 70.4357C490.973 71.2058 489.957 73.0862 488.909 74.2503C486.877 76.5068 484.522 77.259 481.813 76.5605C480.572 76.2382 479.83 75.8263 478.83 74.9129C477.411 73.6056 476.379 71.6893 475.976 69.5761C475.75 68.4478 475.911 65.9227 476.282 64.7586ZM493.456 34.6716C493.907 33.2568 495.181 32.5047 497.181 32.5047C498.293 32.5226 498.487 32.5942 500.003 33.5792C500.583 33.9732 500.841 34.2955 501.244 35.1552L501.631 36.0327L501.277 36.4625C500.986 36.8028 500.745 36.8923 500.132 36.8923C499.471 36.8923 499.358 36.8386 499.358 36.5342C499.358 36.3372 499.277 36.176 499.196 36.176C499.1 36.176 499.035 36.0506 499.035 35.9073C499.035 35.585 498.342 34.7433 498.084 34.7433C497.987 34.7433 497.955 34.9582 498.003 35.2447C498.052 35.5313 497.987 36.0506 497.842 36.4267C497.632 36.9998 497.519 37.0893 497.229 36.9998C497.02 36.9461 496.762 36.8923 496.649 36.8923C496.52 36.8923 496.455 36.6058 496.455 36.0685C496.455 35.585 496.358 35.1552 496.213 34.994C496.004 34.7612 495.907 34.797 495.407 35.3522C495.101 35.6924 494.843 36.0685 494.843 36.176C494.843 36.4983 494.407 36.8923 494.036 36.8923C493.262 36.8923 493.037 36.0327 493.456 34.6716ZM493.827 20.4161C494.246 19.3953 494.585 18.9834 495.439 18.4462C495.826 18.2134 496.133 17.9626 496.133 17.8731C496.133 17.7835 495.826 17.3716 495.439 16.9418C494.246 15.5807 493.94 15.0972 493.665 14.148C493.278 12.8407 493.311 10.3155 493.73 8.68582C493.907 7.98737 494.085 7.23521 494.149 6.98448C494.198 6.73376 494.294 6.50094 494.359 6.44721C494.423 6.39349 494.633 6.0174 494.827 5.60549C495.31 4.51305 496.052 3.63551 496.584 3.52806C497.648 3.29525 500.406 4.54887 502.018 5.99949C502.502 6.44721 502.938 6.80539 503.002 6.80539C503.228 6.80539 504.486 8.47092 504.76 9.13354C504.969 9.67081 505.147 9.8499 505.421 9.8499C505.631 9.8499 505.856 9.72453 505.937 9.56335C506.066 9.29472 506.421 9.27682 508.856 9.34845C511.468 9.42008 511.645 9.40218 511.807 9.07982C512 8.65 514.628 5.73086 514.79 5.73086C514.983 5.74876 517.015 4.58469 517.063 4.42351C517.096 4.35187 517.241 4.29814 517.386 4.29814C517.531 4.29814 517.966 4.17278 518.337 4.02951C518.708 3.88624 519.24 3.8146 519.498 3.86832C520.063 3.99369 521.014 5.06823 521.708 6.35767C522.175 7.23521 522.336 7.59338 522.74 8.68582C522.852 8.97237 522.981 10.1544 523.03 11.3005C523.127 14.0943 522.901 14.8644 521.514 16.4583C520.95 17.103 520.482 17.6761 520.482 17.7298C520.482 17.7835 520.756 18.0164 521.095 18.2492C521.433 18.482 521.788 18.8043 521.869 18.9834C521.949 19.1625 522.159 19.5744 522.336 19.8968C522.611 20.3982 522.659 20.8101 522.659 22.3861C522.643 24.1591 522.611 24.3561 522.03 25.8246C521.24 27.8663 520.45 29.2094 519.127 30.7496C518.144 31.9137 517.999 32.0211 516.822 32.3972C516.128 32.63 515.096 33.0061 514.532 33.2568C513.048 33.9195 510.904 34.206 506.63 34.3314C503.808 34.403 502.889 34.3851 502.97 34.2418C503.034 34.1165 502.986 34.0269 502.873 34.0269C502.744 34.0269 502.26 33.6866 501.777 33.2926C500.712 32.3972 499.051 31.448 498.068 31.1615C496.681 30.7675 494.246 27.4723 493.536 25.0725C493.278 24.2128 493.456 21.2937 493.827 20.4161ZM514.145 35.6029C514.483 35.2089 515.193 34.6537 515.725 34.3851C517.676 33.4001 518.289 33.1315 518.886 33.024C519.466 32.9166 519.547 32.9703 520.708 34.2239C521.788 35.3701 521.933 35.6029 521.933 36.176C521.933 37.0356 521.288 37.5012 520.337 37.3222C519.772 37.2147 519.676 37.1431 519.676 36.767C519.676 36.2834 519.015 35.4596 518.628 35.4596C518.289 35.4596 518.321 35.6924 518.708 35.9969C518.886 36.1402 519.031 36.3909 519.031 36.5521C519.031 36.7312 519.127 36.8923 519.224 36.9282C519.595 37.0714 518.918 37.6087 518.386 37.6087C517.563 37.6087 516.338 36.0148 516.967 35.7641C517.08 35.7283 517.128 35.6208 517.063 35.5492C516.886 35.3343 516.451 35.9253 516.451 36.3909C516.451 36.6237 516.306 36.9282 516.128 37.0714C515.951 37.2147 515.806 37.4654 515.806 37.6445C515.806 38.1281 514.661 38.0922 514.354 37.6087C514.225 37.4117 514 37.2505 513.838 37.2505C513.322 37.2505 513.484 36.4088 514.145 35.6029ZM524.771 64.4899C524.836 64.0422 525.013 63.5229 525.174 63.3259C525.352 63.1289 525.481 62.8244 525.481 62.6453C525.481 62.0902 527.722 59.7799 528.883 59.1531C533.092 56.8608 537.865 59.1352 539.542 64.2392C540.058 65.7615 540.042 68.5911 539.542 70.2387C538.623 73.1758 536.543 75.3607 534.011 76.0233C531.286 76.7217 528.948 75.9696 526.9 73.713C525.836 72.531 524.836 70.6506 524.836 69.8626C524.836 69.6656 524.755 69.4507 524.658 69.3791C524.481 69.2537 524.546 66.1734 524.771 64.4899ZM528.464 32.7017C529.109 28.6184 530.883 24.7143 534.527 19.2163C535.398 17.9089 536.607 16.2971 537.204 15.6345C537.801 14.9539 538.994 13.5929 539.849 12.6258C541.719 10.4409 543.09 9.52753 546.557 8.14855C547.847 7.61129 548.314 7.52174 549.443 7.52174C550.233 7.52174 550.798 7.59338 550.798 7.70083C550.798 7.79037 550.911 7.87992 551.04 7.87992C551.169 7.87992 551.41 7.98737 551.556 8.13065C551.717 8.27392 552.168 8.66792 552.571 8.99027C554.249 10.3872 555.377 13.1989 555.345 15.9389C555.329 17.891 554.974 21.4907 554.797 21.4907C554.732 21.4907 554.668 21.6698 554.668 21.8847C554.668 22.2966 547.363 41.4412 547.024 41.8889C546.782 42.2292 546.815 46.1154 547.073 48.354C547.363 50.7717 547.315 54.6401 546.992 55.8579C546.347 58.3651 545.041 59.9948 543.719 59.9948C543.364 59.9948 543.138 59.8336 542.767 59.3143C541.8 57.9353 540.864 56.2519 539.945 54.264C537.156 48.1391 533.334 43.0709 530.206 41.2979C529.738 41.0472 529.254 40.8323 529.125 40.8323C528.98 40.8323 528.819 40.5458 528.706 40.0622C528.609 39.6503 528.48 39.1309 528.416 38.8981C528.174 38.0385 528.206 34.2955 528.464 32.7017ZM543.944 73.8563C544.718 72.3878 546.637 70.7939 548.943 69.7193C550.362 69.0567 550.443 69.0388 552.41 69.0388C553.894 69.0388 554.7 69.1284 555.474 69.3791C557.925 70.1671 559.925 71.7251 560.65 73.3549C560.957 74.0712 560.989 74.3757 560.908 75.5397C560.795 77.2948 560.505 77.7425 559.328 78.0112C558.844 78.1186 558.296 78.2619 558.086 78.3335C557.877 78.4231 557.732 78.3873 557.732 78.2798C557.732 78.1723 557.586 78.0828 557.409 78.0828C557.232 78.0828 557.087 77.9933 557.087 77.9037C557.087 77.7963 556.958 77.7246 556.796 77.7246C556.522 77.7246 556.377 77.3664 555.877 75.5756C555.764 75.1278 555.619 74.5547 555.571 74.2682C555.41 73.4623 555.2 73.713 555.087 74.8771C554.99 76.0591 554.555 77.3127 554.136 77.7067C553.974 77.8321 553.861 78.0649 553.861 78.1903C553.861 78.3335 553.781 78.441 553.7 78.441C553.603 78.441 553.539 78.3693 553.539 78.2977C553.539 78.2082 553.2 78.1903 552.797 78.2619C552.088 78.3873 551.281 78.1723 551.281 77.85C551.281 77.7784 551.136 77.7246 550.959 77.7246C550.669 77.7246 550.636 77.5993 550.636 76.3815C550.636 75.6114 550.733 74.7697 550.862 74.4115C551.072 73.8563 551.072 73.7847 550.862 73.7847C550.749 73.7847 550.636 73.8563 550.636 73.9638C550.636 74.0533 550.491 74.1428 550.314 74.1428C550.104 74.1428 549.991 74.2682 549.991 74.501C549.991 74.698 549.911 74.8592 549.83 74.8592C549.733 74.8592 549.669 75.1816 549.669 75.5756C549.669 75.9516 549.588 76.4531 549.492 76.6859C549.137 77.5814 547.589 78.3335 546.541 78.1544C545.896 78.0291 544.509 77.3485 544.509 77.1515C544.509 77.0799 544.38 77.0083 544.202 77.0083C544.041 77.0083 543.848 76.8292 543.783 76.5964C543.703 76.3815 543.606 76.0412 543.541 75.8442C543.38 75.3607 543.509 74.7338 543.944 73.8563Z" fill="#0F7499"/>
<path d="M478.527 69.783C478.995 71.8783 480.204 73.5797 481.849 74.493C482.59 74.9049 482.945 74.9766 484.026 74.9766C485.106 74.9766 485.461 74.9049 486.219 74.493C490.863 71.95 490.847 64.0342 486.203 61.4911C485.461 61.0972 485.106 61.0076 484.026 61.0076C482.945 61.0076 482.59 61.0972 481.833 61.5091C479.236 62.906 477.801 66.5236 478.527 69.783ZM479.833 65.8251C480.285 64.1238 482.091 62.3508 483.365 62.3508C484.122 62.3508 485.606 63.2104 485.896 63.8014C486.17 64.3745 485.848 65.0192 485.219 65.1625C484.413 65.3416 483.671 66.2549 483.542 67.2399C483.445 67.9384 483.494 68.2249 483.848 68.9771C484.445 70.2307 484.364 71.6634 483.703 71.6634C483.574 71.6634 483.461 71.735 483.461 71.8425C483.461 71.932 483.139 72.0216 482.752 72.0216C482.139 72.0216 481.962 71.9141 481.252 71.162C479.736 69.5681 479.285 67.8488 479.833 65.8251Z" fill="#0F7499"/>
<path d="M495.829 22.5393C495.974 22.9512 496.281 22.7901 496.684 22.0737C496.894 21.6797 497.248 21.2857 497.458 21.1782C497.781 20.9992 497.91 21.0529 498.345 21.4469C499.038 22.0916 500.038 22.5931 500.667 22.5931C501.296 22.5931 501.344 22.3244 500.796 21.8409C499.522 20.7305 499.425 18.6352 500.57 17.0055C501.135 16.1996 501.167 15.8951 500.667 16.0742C498.78 16.7368 495.378 21.2857 495.829 22.5393Z" fill="#0F7499"/>
<path d="M495.83 13.2803C495.991 14.3548 496.217 15.0354 496.539 15.4473L496.878 15.8771L497.265 15.3398C497.475 15.0354 497.652 14.7488 497.652 14.6593C497.652 14.3727 499.41 12.5998 500.28 12.0088C500.78 11.6864 501.2 11.3461 501.2 11.2745C501.2 11.185 501.49 11.1312 501.845 11.1312C502.199 11.1312 502.619 11.0596 502.78 10.9701C503.28 10.6656 504.392 10.4149 504.65 10.5223C505.166 10.7372 504.908 10.0746 504.086 9.08962C502.731 7.44201 499.91 5.50785 498.071 4.98849C497.2 4.73777 497.12 4.73777 496.862 5.02431C496.152 5.8123 495.491 11.1133 495.83 13.2803Z" fill="#0F7499"/>
<path d="M503.1 16.8621C503.358 16.8621 503.906 17.9545 504.067 18.7962C504.261 19.7454 504.051 20.8737 503.519 21.6437C503.309 21.9482 503.132 22.3064 503.132 22.4138C503.132 22.8078 504.406 22.4317 505.228 21.8049C505.793 21.3751 506.26 21.1602 506.615 21.1602C507.26 21.1602 507.341 20.8378 506.809 20.3364C506.631 20.1573 505.97 19.244 505.341 18.3306C504.728 17.4172 504.148 16.6293 504.035 16.5755C503.6 16.3964 503.084 16.4323 503.019 16.6293C502.971 16.7546 503.019 16.8621 503.1 16.8621Z" fill="#0F7499"/>
<path d="M504.779 27.1599C505.069 27.4285 505.472 27.733 505.666 27.8404C505.875 27.9479 506.037 28.0912 506.037 28.1807C506.037 28.3956 507.214 28.1986 508.004 27.8404C508.342 27.6972 508.617 27.5002 508.617 27.4106C508.617 27.3211 508.762 27.2495 508.939 27.2495C509.117 27.2495 509.262 27.3211 509.262 27.4285C509.262 27.5181 509.407 27.6076 509.584 27.6076C509.762 27.6076 509.907 27.6793 509.907 27.7867C509.907 27.8763 510.052 27.9658 510.229 27.9658C510.407 27.9658 510.552 28.0374 510.552 28.1449C510.552 28.5568 512.132 28.1807 512.712 27.6255C513.132 27.2136 513.503 26.3361 513.341 26.157C513.261 26.0675 512.938 26.3361 512.6 26.8017C512.035 27.536 511.922 27.6076 511.277 27.6076C510.874 27.6076 510.552 27.5181 510.552 27.4285C510.552 27.3211 510.439 27.2495 510.294 27.2495C509.971 27.2495 509.633 26.8555 509.407 26.2287L509.229 25.7272L508.713 26.4078C508.133 27.1778 507.472 27.6076 506.875 27.6076C506.311 27.6076 505.101 26.945 504.892 26.5152C504.714 26.1212 504.263 26.0496 504.263 26.4257C504.263 26.5689 504.505 26.8913 504.779 27.1599Z" fill="#0F7499"/>
<path d="M506.825 23.2735C506.987 23.4884 507.229 23.6675 507.341 23.6675C507.47 23.6675 507.68 23.8287 507.809 24.0257C507.938 24.2227 508.148 24.3839 508.277 24.3839C508.39 24.3839 508.631 24.545 508.793 24.76C509.083 25.136 509.083 25.136 510.131 23.9541C511.244 22.7184 511.453 22.2886 510.824 22.5393C510.631 22.6109 509.583 22.6825 508.486 22.6825C507.406 22.6825 506.519 22.7363 506.519 22.79C506.519 22.8437 506.648 23.0765 506.825 23.2735Z" fill="#0F7499"/>
<path d="M511.1 20.9812C511.455 20.9812 511.923 21.1962 512.487 21.626C513.31 22.2528 514.584 22.6289 514.584 22.2349C514.584 22.1274 514.406 21.7692 514.197 21.4648C513.664 20.6947 513.455 19.5664 513.648 18.6173C513.81 17.7935 514.326 16.7547 514.632 16.6294C515.051 16.4503 514.503 16.1458 514.019 16.2891C513.664 16.3966 513.245 16.8622 512.52 17.9546C511.955 18.7785 511.294 19.7097 511.02 19.9963C510.407 20.7126 510.423 20.9812 511.1 20.9812Z" fill="#0F7499"/>
<path d="M514.131 10.6479C514.776 10.827 515.518 11.024 515.776 11.0777C516.034 11.1314 516.405 11.3284 516.582 11.5254C516.776 11.7045 517.227 12.0806 517.598 12.3492C517.969 12.6179 518.856 13.4596 519.581 14.2117C520.307 14.9818 521 15.6086 521.129 15.6086C521.436 15.6086 521.774 14.8027 522.016 13.5133C522.178 12.6358 522.178 12.0806 522.032 10.7911C521.839 9.16143 521.145 6.70791 520.662 5.8841C520.42 5.47219 520.339 5.45428 519.694 5.59755C518.63 5.81246 517.114 6.54673 515.727 7.4959C514.437 8.39135 512.97 9.78824 512.97 10.1285C512.97 10.236 513.502 10.4688 514.131 10.6479Z" fill="#0F7499"/>
<path d="M517.033 22.4139C517.678 22.4139 518.677 21.9125 519.371 21.2677C519.806 20.8737 519.935 20.82 520.258 20.9991C520.467 21.1066 520.822 21.5006 521.032 21.8946C521.709 23.1124 522.225 22.593 521.693 21.2319C520.838 19.1008 518.5 16.3965 517.033 15.8951C516.549 15.716 516.581 16.0204 517.145 16.8263C518.29 18.456 518.194 20.5514 516.92 21.6617C516.371 22.1453 516.42 22.4139 517.033 22.4139Z" fill="#0F7499"/>
<path d="M527.322 69.0666C527.693 71.0904 529.031 73.0424 530.692 73.9558C531.45 74.3677 531.805 74.4393 532.885 74.4393C533.965 74.4393 534.32 74.3677 535.062 73.9558C538.916 71.8425 539.754 65.9326 536.723 62.3329C535.626 61.0255 534.481 60.4704 532.885 60.4704C531.805 60.4704 531.45 60.5599 530.708 60.9539C528.128 62.3687 526.725 65.7356 527.322 69.0666ZM531.031 63.2283C531.305 62.6552 532.804 61.8135 533.546 61.8135C534.852 61.8135 536.642 63.5865 537.11 65.3774C537.61 67.2937 537.11 69.1025 535.659 70.6247C534.949 71.3769 534.772 71.4844 534.159 71.4844C533.772 71.4844 533.449 71.3948 533.449 71.3053C533.449 71.1978 533.337 71.1262 533.208 71.1262C532.546 71.1262 532.466 69.6935 533.062 68.4398C533.643 67.222 533.514 66.1117 532.692 65.27C532.385 64.9476 531.998 64.679 531.821 64.679C531.498 64.679 530.869 64.088 530.869 63.7656C530.869 63.6581 530.95 63.4253 531.031 63.2283Z" fill="#0F7499"/>
<path d="M500.455 76.4093C500.81 77.663 501.31 78.5405 502.116 79.3643C503.181 80.4567 503.471 80.6179 504.438 80.6179C505.519 80.6179 506.373 79.9195 506.744 78.7196C506.986 77.9495 506.97 77.8779 506.68 77.5197C506.502 77.3227 506.357 77.0003 506.357 76.8212C506.357 76.6242 506.18 76.284 505.954 76.0512C505.664 75.7109 505.39 75.6034 504.825 75.6034C503.858 75.6034 503.874 75.9258 504.906 77.0361C505.341 77.5197 505.712 78.0032 505.712 78.1107C505.712 78.3972 504.954 79.1852 504.664 79.1852C504.535 79.1852 504.422 79.0957 504.422 79.0061C504.422 78.8987 504.309 78.827 504.18 78.827C503.858 78.827 502.487 77.3048 502.487 76.9466C502.487 76.8033 502.407 76.678 502.326 76.678C502.1 76.678 502.133 76.0153 502.358 75.89C502.52 75.8004 502.52 75.7646 502.358 75.6751C502.02 75.496 502.149 75.0841 502.729 74.4394C503.277 73.8305 503.31 73.8125 504.616 73.8125C505.777 73.8125 506.003 73.8663 506.196 74.1707C506.325 74.3677 506.551 74.5289 506.712 74.5289C506.873 74.5289 507.002 74.6543 507.002 74.7975C507.002 74.9587 507.148 75.2453 507.325 75.4602C507.486 75.6572 507.712 76.284 507.809 76.8391C507.905 77.3943 508.034 78.1286 508.099 78.4689C508.18 78.9345 508.309 79.1136 508.567 79.1494C508.905 79.2031 508.937 79.1315 508.937 78.4868C508.937 78.0749 509.002 77.7525 509.099 77.7525C509.179 77.7525 509.26 77.5018 509.26 77.2152C509.26 76.9108 509.324 76.678 509.421 76.678C509.502 76.678 509.582 76.4272 509.582 76.1407C509.582 75.7288 509.647 75.6034 509.905 75.6034C510.098 75.6034 510.227 75.4781 510.227 75.3169C510.227 74.9766 510.614 74.5289 510.905 74.5289C511.034 74.5289 511.227 74.3677 511.356 74.1707C511.55 73.8663 511.775 73.8125 512.775 73.8125C513.807 73.8125 514.001 73.8663 514.339 74.2603C514.694 74.6543 514.743 74.8333 514.743 76.1407C514.743 77.448 514.694 77.6271 514.339 78.0211C514.001 78.4151 513.807 78.4689 512.888 78.4689H511.84V77.7525C511.84 77.1794 511.904 77.0361 512.13 77.0361C512.291 77.0361 512.517 76.875 512.646 76.678C512.775 76.481 513.001 76.3198 513.162 76.3198C513.34 76.3198 513.453 76.1944 513.453 75.9616C513.453 75.6572 513.34 75.6034 512.646 75.6034C512.195 75.6034 511.84 75.6751 511.84 75.7825C511.84 75.8721 511.695 75.9616 511.517 75.9616C511.308 75.9616 511.195 76.087 511.195 76.284C511.195 76.4631 511.05 76.7138 510.889 76.8391C510.663 77.0182 510.55 77.4122 510.469 78.1465C510.373 79.0957 510.389 79.2568 510.727 79.6508C511.292 80.3135 511.969 80.6179 512.92 80.6179C514.098 80.6179 514.71 80.2956 515.5 79.2568C516.629 77.7346 517.065 76.6063 517.065 75.0662C517.081 73.9021 517.016 73.5618 516.565 72.5589C515.678 70.5352 514.275 69.1921 511.872 68.0101C509.212 66.7206 506.986 66.7385 504.551 68.0817C502.794 69.0488 500.697 71.2158 500.391 72.3798C500.165 73.2395 500.214 75.5318 500.455 76.4093ZM504.809 69.389C506.373 68.2071 508.841 67.9026 510.518 68.6727C511.469 69.1204 512.791 70.1949 512.808 70.5531C512.808 70.9471 512.033 71.6635 511.598 71.6635C511.372 71.6635 511.195 71.7351 511.195 71.8426C511.195 71.9321 511.034 72.0217 510.824 72.0217C510.614 72.0217 510.356 72.1291 510.244 72.2366C509.969 72.5589 506.164 72.5589 506.067 72.2366C506.035 72.1112 505.906 72.0217 505.777 72.0217C505.487 72.0217 503.922 70.3919 503.987 70.1591C504.019 70.0517 504.39 69.6935 504.809 69.389Z" fill="#0F7499"/>
</svg>
