<svg width="80" height="60" viewBox="0 0 80 60" fill="none" xmlns="http://www.w3.org/2000/svg">
<path d="M0.160894 57.1744C0.453024 58.4479 1.1775 59.2041 2.59141 59.7082C2.95365 59.8275 5.62956 59.8806 13.9377 59.9204L24.8166 59.9867L25.0737 59.1377C25.5645 57.5989 26.2539 56.1795 26.8732 55.4234C27.5977 54.5611 28.6611 53.5927 28.8948 53.5927C28.9882 53.5927 29.0583 53.5397 29.0583 53.4734C29.0583 53.354 32.447 51.3641 33.1482 51.0723C33.9661 50.7407 35.9877 49.5733 36.3499 49.2284C36.5485 49.0427 36.9108 48.658 37.1445 48.3794C38.0092 47.3977 37.9625 47.9682 37.9508 39.0139C37.9391 31.4924 37.9508 30.9087 38.1611 30.0066C38.4182 28.9056 38.6519 28.4413 39.0492 28.2291C39.762 27.8709 40.3696 28.7597 40.7903 30.776C41.059 32.0628 41.2109 36.2016 41.2109 42.0915V47.3314L41.6082 47.9284C41.8302 48.2467 42.0639 48.6314 42.1224 48.7774C42.2977 49.1355 43.4311 49.7988 44.4828 50.1437C44.9619 50.3162 45.4059 50.4886 45.476 50.5417C45.5344 50.5947 46.0953 50.7937 46.703 50.9927C48.0468 51.4305 49.9164 52.4121 50.2553 52.8631C50.3955 53.0489 50.5941 53.1948 50.6993 53.1948C50.8045 53.1948 51.377 53.7519 51.9847 54.4152C53.0831 55.6622 53.5972 56.3652 53.5972 56.6306C53.5972 56.7234 53.6907 56.9091 53.8192 57.0551C53.9361 57.201 54.2165 57.9306 54.4269 58.6602L54.8242 60L63.0038 59.9071C67.5026 59.8673 72.0248 59.7612 73.053 59.6949C74.0813 59.6153 75.4953 59.5357 76.208 59.4959C76.9092 59.4561 77.6453 59.3898 77.844 59.35C78.7087 59.1377 79.5033 58.4214 79.8188 57.5459C80.0525 56.9224 80.0642 55.3571 79.8305 54.3887C79.6201 53.4734 79.0592 52.2529 78.7671 52.0805C78.6503 52.0009 78.4867 51.8417 78.4049 51.7223C77.7038 50.6743 76.6404 49.9315 75.2849 49.5468C73.0998 48.9365 69.6994 49.5998 66.8132 51.1917C66.3925 51.4172 66.0419 51.6029 66.0186 51.6029C65.9952 51.6029 65.9835 50.7672 65.9835 49.759V47.9018L66.8365 47.4375C68.4725 46.5488 70.0266 44.5722 70.5641 42.7283C70.7861 41.9323 70.8095 41.5344 70.8329 38.47C70.8446 34.9547 70.8796 34.623 71.4756 31.9434C71.6158 31.3597 71.8495 30.6434 72.0131 30.3648C72.1767 30.073 72.2818 29.7944 72.2468 29.7281C72.2117 29.675 72.5272 28.826 72.9479 27.8444C75.4485 22.0473 77.1312 17.1391 77.7388 13.889C77.9258 12.841 77.9608 11.4614 77.7855 11.342C77.7154 11.3022 77.6687 11.1298 77.6687 10.9706C77.6687 10.5461 77.026 8.26443 76.6053 7.21645C75.8925 5.39908 75.098 4.09905 73.6373 2.40106C72.8661 1.49901 72.0014 0.583688 71.7209 0.371439C71.2068 4.35597e-06 71.1717 1.92066e-06 69.4657 1.92066e-06C67.9233 1.92066e-06 67.6896 0.0265346 67.2105 0.291845C66.9183 0.451032 66.6846 0.636749 66.6846 0.689811C66.6846 0.742873 66.3574 0.981652 65.9485 1.20717C64.8734 1.81738 63.3777 2.97148 62.5714 3.82048C61.7067 4.7358 60.6668 6.195 58.2596 9.88282C56.3199 12.841 55.4785 14.2737 54.0062 17.0462C53.5154 17.9881 53.0714 18.7973 53.0247 18.8371C52.9779 18.8769 52.9078 19.0095 52.8611 19.1289C52.826 19.2616 52.4287 19.9779 51.9847 20.7208C51.5523 21.4769 50.8278 22.7239 50.3955 23.5065C49.9514 24.3025 49.5191 24.9392 49.4256 24.9392C49.227 24.9392 48.9232 24.6208 48.9232 24.4086C48.9232 24.329 49.3088 23.8249 49.7645 23.2943C50.6759 22.2728 51.2134 21.3442 51.7042 20.0044C52.1015 18.8769 52.2067 16.5023 51.9029 15.3217C51.6692 14.3666 51.2602 13.4513 50.8512 12.8808L50.5357 12.4696L50.9213 11.9522C51.8795 10.7318 52.417 9.20628 52.4287 7.74708C52.4287 5.90317 52.0197 4.77559 50.5708 2.60005C50.0566 1.84391 49.5542 1.00818 49.4607 0.742872C49.2387 0.145924 49.0867 0.13266 47.8715 0.716344C45.254 1.97657 42.3795 4.2715 41.877 5.53173C41.7952 5.75724 41.7017 5.82357 41.5732 5.75725C41.468 5.70418 40.6267 5.62459 39.6919 5.59806L38.0092 5.545L37.4016 4.84192C37.0744 4.44395 36.3148 3.76741 35.7072 3.31638C34.4102 2.37453 31.0448 0.397968 30.7176 0.397968C30.5424 0.397968 30.2736 0.848997 29.5725 2.28167C28.2521 5.02764 28.0417 5.51846 27.7613 6.69909C27.3289 8.52974 27.5743 10.1614 28.4975 11.4614L28.8714 11.9788L28.5909 12.5227C27.7262 14.2339 27.3874 15.0829 27.2355 15.9452C26.8732 17.8421 27.3173 19.8718 28.5442 21.981L29.2804 23.2545L29.0583 23.6259C28.9298 23.8249 28.6961 24.3025 28.5325 24.6872C28.2988 25.2708 28.2404 25.3504 28.1703 25.1249C27.551 23.2014 26.5694 21.2249 24.3492 17.4442C23.8351 16.5686 22.9937 15.2156 22.4913 14.4329C21.9888 13.6502 21.5798 12.9737 21.5798 12.9339C21.5798 12.8941 21.4747 12.7349 21.3578 12.5757C21.2293 12.4033 20.458 11.289 19.6284 10.0818C18.8104 8.88791 17.6536 7.34911 17.081 6.67257C16.0761 5.5052 13.5638 3.05107 13.3768 3.05107C13.3301 3.05107 13.2833 2.97148 13.2833 2.86536C13.2833 2.7725 12.8977 2.49392 12.4303 2.24188C11.6708 1.83065 11.4838 1.79085 10.5373 1.79085C8.93646 1.79085 8.37558 2.14902 6.43584 4.40416C4.39093 6.79196 3.47949 8.51648 2.63815 11.5808C2.27591 12.8808 2.26422 12.9737 2.33433 14.7115C2.45119 18.0013 3.43274 21.3973 5.92169 27.0617C6.41246 28.1893 6.87987 29.3301 6.97335 29.5821C7.05515 29.8342 7.42907 30.7893 7.803 31.7046C8.50411 33.4557 9.19354 35.6445 9.47398 37.0374C9.60252 37.6343 9.64926 38.7619 9.64926 40.9374C9.64926 42.8477 9.696 44.2273 9.7778 44.5855C10.0582 45.7794 10.736 46.9865 11.776 48.1671L12.7809 49.308L12.6874 49.958C12.6407 50.3162 12.5939 51.059 12.5939 51.6029L12.5822 52.5846L11.9629 51.9213C10.3504 50.1304 8.53917 49.361 6.35404 49.5202C4.29745 49.6662 2.59141 50.608 0.932113 52.4917C0.102465 53.4336 -0.224717 55.4632 0.160894 57.1744ZM2.18243 55.3173C2.31097 55.0254 2.41613 54.7336 2.41613 54.6673C2.41613 54.5081 2.61478 54.2162 3.26915 53.3805C4.06374 52.3723 5.64124 51.6295 7.14863 51.5764C7.94322 51.5499 9.66094 51.7356 9.66094 51.855C9.66094 51.908 9.96476 52.0937 10.327 52.2662C11.2852 52.7172 12.4186 54.0305 12.9678 55.3305C13.5404 56.6704 13.5521 57.3204 13.0263 57.9306C12.6874 58.3285 12.5822 58.3683 11.9863 58.3683C10.9697 58.3683 10.7827 58.2224 10.4789 57.1877C10.1868 56.2061 9.71937 55.0918 9.48567 54.8264C9.39218 54.7336 9.19354 54.654 9.02995 54.654H8.73782L8.95983 55.2111C9.25196 55.9407 9.26365 56.9887 8.9832 57.4663C8.34052 58.5806 7.44076 58.6469 6.56437 57.652C6.36572 57.4132 6.33066 57.2142 6.34235 56.153L6.35404 54.9193H6.02686C5.69967 54.9193 5.57113 55.1183 5.57113 55.6489C5.57113 56.9622 4.9635 58.1561 4.21565 58.3153C3.7015 58.4214 2.79006 58.1428 2.47456 57.7847C1.91367 57.1346 1.79682 56.1663 2.18243 55.3173ZM6.28392 12.4696C6.61111 11.1165 7.10189 10.1747 8.02502 9.13996C8.97152 8.07871 9.66095 7.74707 10.7009 7.86646C11.589 7.95932 12.3953 8.38382 14.113 9.68384C18.0976 12.6951 20.0841 15.0829 21.9654 19.1024C23.0054 21.3044 23.2859 22.2861 23.6131 24.8463C24.1739 29.1444 24.0337 29.9934 22.5614 31.572C20.7852 33.4689 18.4949 36.3078 17.8289 37.4486C17.0226 38.8282 16.3799 40.2078 15.6788 42.1313C15.153 43.5773 14.6739 44.3997 14.2532 44.5855C13.6456 44.8375 12.7575 44.0548 12.22 42.7813C11.8344 41.8793 11.811 41.2425 11.998 38.0721C12.2083 34.6496 11.7292 31.9434 10.3153 28.428C9.96476 27.5658 9.43893 26.3851 9.1468 25.8015C8.84299 25.2178 8.52748 24.4749 8.42232 24.1433C8.31715 23.8116 8.16524 23.3606 8.07176 23.1484C7.77963 22.379 7.172 20.482 6.61111 18.5717C6.06191 16.7013 6.03854 16.6084 6.03854 15.0564C6.03854 13.836 6.09696 13.2257 6.28392 12.4696ZM16.7772 47.9682C17.7004 44.9702 20.3061 43.113 22.8886 43.6171C24.1272 43.8558 25.1088 44.4661 26.102 45.5936C26.5694 46.1243 26.955 46.6681 26.955 46.8008C26.955 46.9335 27.0485 47.159 27.177 47.3049C27.4341 47.6233 27.5159 48.2069 27.6094 50.1835C27.6561 51.1652 27.6444 51.6692 27.551 51.7754C27.4808 51.855 27.4224 52.0274 27.4224 52.1733C27.4224 52.7438 26.6863 54.1366 25.9267 54.9989C24.4544 56.6704 22.7483 57.2275 20.7852 56.7101C19.8855 56.4714 19.348 56.1663 18.6235 55.4897C17.5952 54.5213 16.8473 53.1019 16.5552 51.5366C16.3916 50.7009 16.5085 48.8304 16.7772 47.9682ZM29.2219 25.6821C29.5491 24.6341 30.4723 24.0769 31.9212 24.0769C32.7275 24.0902 32.8677 24.1433 33.9661 24.8729C34.3868 25.1647 34.5737 25.4035 34.8659 26.0402L35.1463 26.6903L34.8893 27.0086C34.6789 27.2607 34.5036 27.327 34.0596 27.327C33.5805 27.327 33.4987 27.2872 33.4987 27.0617C33.4987 26.9158 33.4403 26.7964 33.3819 26.7964C33.3118 26.7964 33.265 26.7035 33.265 26.5974C33.265 26.3586 32.7625 25.7351 32.5756 25.7351C32.5055 25.7351 32.4821 25.8943 32.5172 26.1066C32.5522 26.3188 32.5055 26.7035 32.4003 26.9821C32.2484 27.4066 32.1666 27.4729 31.9563 27.4066C31.8831 27.3874 31.8018 27.3683 31.728 27.3535C31.6486 27.3377 31.578 27.327 31.5356 27.327C31.4421 27.327 31.3954 27.1147 31.3954 26.7168C31.3954 26.3586 31.3253 26.0402 31.2201 25.9209C31.0682 25.7484 30.9981 25.7749 30.6358 26.1862C30.4138 26.4382 30.2269 26.7168 30.2269 26.7964C30.2269 27.0352 29.9114 27.327 29.6426 27.327C29.0817 27.327 28.9181 26.6903 29.2219 25.6821ZM29.4907 15.1227C29.7945 14.3666 30.0399 14.0615 30.6592 13.6635C30.9397 13.491 31.1617 13.3053 31.1617 13.239C31.1617 13.1727 30.9397 12.8676 30.6592 12.5492C29.7945 11.541 29.5725 11.1828 29.3738 10.4798C29.0934 9.51139 29.1168 7.64095 29.4206 6.43378C29.5491 5.91643 29.6777 5.35928 29.7244 5.17356C29.7595 4.98784 29.8296 4.81539 29.8763 4.77559C29.923 4.7358 30.075 4.45722 30.2152 4.15212C30.5657 3.34292 31.1033 2.69291 31.4889 2.61331C32.2601 2.44086 34.2583 3.36945 35.4268 4.44395C35.7773 4.77559 36.0928 5.0409 36.1396 5.0409C36.3032 5.0409 37.2146 6.2746 37.4132 6.76542C37.5652 7.16339 37.6937 7.29604 37.8923 7.29604C38.0443 7.29604 38.2078 7.20319 38.2663 7.0838C38.3597 6.88482 38.6168 6.87155 40.3813 6.92461C42.2743 6.97767 42.4028 6.96441 42.5197 6.72563C42.6599 6.40725 44.5646 4.24497 44.6814 4.24497C44.8217 4.25824 46.294 3.39598 46.329 3.27659C46.3524 3.22353 46.4576 3.18373 46.5627 3.18373C46.6679 3.18373 46.9834 3.09087 47.2522 2.98475C47.5209 2.87862 47.9065 2.82556 48.0935 2.86536C48.5025 2.95822 49.1919 3.75415 49.6944 4.70927C50.0332 5.35928 50.1501 5.62459 50.4422 6.43378C50.524 6.64603 50.6175 7.52156 50.6526 8.37055C50.7227 10.44 50.5591 11.0104 49.5542 12.191C49.1452 12.6686 48.8063 13.0931 48.8063 13.1329C48.8063 13.1727 49.005 13.3451 49.2503 13.5176C49.4957 13.69 49.7528 13.9288 49.8112 14.0615C49.8697 14.1941 50.0216 14.4992 50.1501 14.738C50.3487 15.1094 50.3838 15.4145 50.3838 16.5819C50.3721 17.8952 50.3487 18.0411 49.9281 19.1289C49.3555 20.6412 48.7829 21.6361 47.8247 22.7769C47.1119 23.6392 47.0068 23.7188 46.1538 23.9974C45.6513 24.1698 44.9035 24.4484 44.4945 24.6341C43.4194 25.1249 41.8653 25.3372 38.7687 25.43C36.7238 25.4831 36.0578 25.4698 36.1162 25.3637C36.1629 25.2708 36.1279 25.2045 36.0461 25.2045C35.9526 25.2045 35.602 24.9525 35.2515 24.6606C34.4803 23.9974 33.2767 23.2943 32.5639 23.082C31.559 22.7902 29.7945 20.3493 29.2804 18.5717C29.0934 17.935 29.2219 15.7727 29.4907 15.1227ZM44.214 26.3719C44.4594 26.08 44.9736 25.6688 45.3592 25.4698C46.7731 24.7402 47.2171 24.5412 47.6495 24.4616C48.0701 24.3821 48.1286 24.4218 48.9699 25.3504C49.7528 26.1994 49.858 26.3719 49.858 26.7964C49.858 27.4331 49.3906 27.778 48.7011 27.6454C48.2922 27.5658 48.222 27.5127 48.222 27.2341C48.222 26.876 47.7429 26.2658 47.4625 26.2658C47.2171 26.2658 47.2405 26.4382 47.5209 26.6637C47.6495 26.7698 47.7546 26.9556 47.7546 27.075C47.7546 27.2076 47.8247 27.327 47.8949 27.3535C48.1636 27.4597 47.6728 27.8576 47.2872 27.8576C46.6913 27.8576 45.8032 26.677 46.2589 26.4913C46.3407 26.4647 46.3758 26.3851 46.329 26.3321C46.2005 26.1729 45.885 26.6107 45.885 26.9556C45.885 27.128 45.7798 27.3535 45.6513 27.4597C45.5228 27.5658 45.4176 27.7515 45.4176 27.8841C45.4176 28.2423 44.588 28.2158 44.3659 27.8576C44.2725 27.7117 44.1089 27.5923 43.992 27.5923C43.6181 27.5923 43.7349 26.9688 44.214 26.3719ZM51.9146 47.7692C51.9613 47.4375 52.0898 47.0528 52.2067 46.9069C52.3352 46.761 52.4287 46.5355 52.4287 46.4028C52.4287 45.9916 54.0529 44.2803 54.8943 43.8161C57.9441 42.1181 61.4029 43.8028 62.6182 47.5835C62.9921 48.711 62.9804 50.807 62.6182 52.0274C61.9521 54.203 60.4447 55.8214 58.6102 56.3122C56.6354 56.8295 54.941 56.2724 53.457 54.6009C52.6858 53.7254 51.9613 52.3325 51.9613 51.7488C51.9613 51.6029 51.9029 51.4437 51.8328 51.3907C51.7042 51.2978 51.751 49.0161 51.9146 47.7692ZM54.5905 24.2229C55.0579 21.1983 56.3432 18.3064 58.9841 14.2339C59.6151 13.2655 60.4915 12.0716 60.9238 11.5808C61.3562 11.0767 62.2209 10.0685 62.8402 9.3522C64.1957 7.73381 65.1889 7.05726 67.7012 6.03582C68.6361 5.63785 68.9749 5.57152 69.7929 5.57152C70.3655 5.57152 70.7744 5.62459 70.7744 5.70418C70.7744 5.77051 70.8562 5.83684 70.9497 5.83684C71.0432 5.83684 71.2185 5.91643 71.3236 6.02256C71.4405 6.12868 71.7677 6.42052 72.0598 6.6593C73.2751 7.69401 74.093 9.7767 74.0697 11.8063C74.058 13.2523 73.8009 15.9186 73.6724 15.9186C73.6256 15.9186 73.5789 16.0513 73.5789 16.2105C73.5789 16.5156 68.2855 30.6964 68.0401 31.0281C67.8648 31.2801 67.8882 34.1587 68.0752 35.8169C68.2855 37.6078 68.2504 40.4731 68.0167 41.3752C67.5493 43.2324 66.6028 44.4395 65.6446 44.4395C65.3876 44.4395 65.224 44.3201 64.9552 43.9354C64.2541 42.914 63.5764 41.667 62.9103 40.1946C60.8888 35.6578 58.1194 31.9036 55.8525 30.5903C55.5136 30.4046 55.163 30.2454 55.0696 30.2454C54.9644 30.2454 54.8475 30.0332 54.7657 29.675C54.6956 29.3699 54.6022 28.9852 54.5554 28.8127C54.3801 28.176 54.4035 25.4035 54.5905 24.2229ZM65.8082 54.7071C66.3691 53.6193 67.7597 52.4386 69.4306 51.6427C70.4589 51.1519 70.5174 51.1386 71.943 51.1386C73.018 51.1386 73.6023 51.205 74.1631 51.3907C75.9393 51.9744 77.3883 53.1285 77.9141 54.3356C78.1361 54.8662 78.1595 55.0918 78.101 55.954C78.0193 57.254 77.8089 57.5857 76.9559 57.7847C76.6053 57.8642 76.208 57.9704 76.0561 58.0234C75.9042 58.0898 75.7991 58.0632 75.7991 57.9836C75.7991 57.904 75.6939 57.8377 75.5654 57.8377C75.4368 57.8377 75.3317 57.7714 75.3317 57.7051C75.3317 57.6255 75.2382 57.5724 75.1213 57.5724C74.9227 57.5724 74.8175 57.3071 74.4553 55.9805C74.3735 55.6489 74.2683 55.2244 74.2333 55.0122C74.1164 54.4152 73.9645 54.6009 73.8827 55.4632C73.8126 56.3387 73.4971 57.2673 73.1933 57.5591C73.0764 57.652 72.9946 57.8245 72.9946 57.9173C72.9946 58.0234 72.9362 58.103 72.8778 58.103C72.8077 58.103 72.7609 58.05 72.7609 57.9969C72.7609 57.9306 72.5155 57.9173 72.2234 57.9704C71.7093 58.0632 71.125 57.904 71.125 57.6653C71.125 57.6122 71.0198 57.5724 70.8913 57.5724C70.681 57.5724 70.6576 57.4795 70.6576 56.5775C70.6576 56.0071 70.7277 55.3836 70.8212 55.1183C70.9731 54.7071 70.9731 54.654 70.8212 54.654C70.7394 54.654 70.6576 54.7071 70.6576 54.7866C70.6576 54.853 70.5524 54.9193 70.4239 54.9193C70.272 54.9193 70.1902 55.0122 70.1902 55.1846C70.1902 55.3305 70.1318 55.4499 70.0733 55.4499C70.0032 55.4499 69.9565 55.6887 69.9565 55.9805C69.9565 56.2591 69.8981 56.6306 69.8279 56.803C69.5709 57.4663 68.4491 58.0234 67.6896 57.8908C67.2221 57.7979 66.2172 57.2938 66.2172 57.1479C66.2172 57.0948 66.1237 57.0418 65.9952 57.0418C65.8783 57.0418 65.7381 56.9091 65.6914 56.7367C65.633 56.5775 65.5628 56.3254 65.5161 56.1795C65.3993 55.8214 65.4927 55.3571 65.8082 54.7071Z" fill="#0F7499"/>
<path d="M18.004 51.6694C18.3429 53.2214 19.2192 54.4816 20.4111 55.1582C20.9486 55.4633 21.2057 55.5164 21.9886 55.5164C22.7715 55.5164 23.0286 55.4633 23.5778 55.1582C26.9431 53.2745 26.9314 47.4111 23.5661 45.5274C23.0286 45.2356 22.7715 45.1692 21.9886 45.1692C21.2057 45.1692 20.9486 45.2356 20.3994 45.5407C18.5181 46.5754 17.4782 49.255 18.004 51.6694ZM18.9505 48.7377C19.2777 47.4774 20.5864 46.1642 21.5095 46.1642C22.0587 46.1642 23.1338 46.8009 23.3441 47.2387C23.5427 47.6632 23.309 48.1407 22.8533 48.2468C22.2691 48.3795 21.7315 49.056 21.6381 49.7856C21.568 50.303 21.603 50.5153 21.8601 51.0724C22.2924 52.001 22.234 53.0622 21.7549 53.0622C21.6614 53.0622 21.5796 53.1153 21.5796 53.1949C21.5796 53.2612 21.3459 53.3275 21.0655 53.3275C20.6215 53.3275 20.4929 53.248 19.9788 52.6908C18.8804 51.5102 18.5532 50.2367 18.9505 48.7377Z" fill="#0F7499"/>
<path d="M30.5423 16.6748C30.6474 16.9799 30.8695 16.8605 31.1616 16.3298C31.3135 16.038 31.5706 15.7462 31.7225 15.6666C31.9562 15.5339 32.0497 15.5737 32.3652 15.8656C32.8676 16.3431 33.5921 16.7145 34.0478 16.7145C34.5035 16.7145 34.5386 16.5156 34.1413 16.1574C33.2182 15.3349 33.1481 13.7829 33.9777 12.5757C34.3867 11.9788 34.4101 11.7532 34.0478 11.8859C32.6807 12.3767 30.2151 15.7462 30.5423 16.6748Z" fill="#0F7499"/>
<path d="M30.5426 9.81649C30.6595 10.6124 30.8231 11.1165 31.0568 11.4216L31.3022 11.74L31.5826 11.342C31.7345 11.1165 31.8631 10.9043 31.8631 10.8379C31.8631 10.6257 33.1368 9.3124 33.7678 8.87464C34.13 8.63586 34.4338 8.38381 34.4338 8.33075C34.4338 8.26442 34.6441 8.22463 34.9012 8.22463C35.1583 8.22463 35.4621 8.17157 35.579 8.10524C35.9412 7.87972 36.7475 7.69401 36.9344 7.7736C37.3084 7.93279 37.1214 7.44196 36.5255 6.71236C35.5439 5.49193 33.499 4.05926 32.1669 3.67456C31.5359 3.48884 31.4775 3.48884 31.2905 3.70109C30.7763 4.28477 30.2973 8.21136 30.5426 9.81649Z" fill="#0F7499"/>
<path d="M35.8125 12.4695C35.9994 12.4695 36.3967 13.2787 36.5136 13.9022C36.6538 14.6053 36.5019 15.441 36.1163 16.0114C35.9644 16.237 35.8358 16.5023 35.8358 16.5819C35.8358 16.8737 36.759 16.5951 37.3549 16.1308C37.7639 15.8125 38.1028 15.6533 38.3598 15.6533C38.8272 15.6533 38.8857 15.4145 38.5001 15.0431C38.3715 14.9104 37.8924 14.2339 37.4367 13.5573C36.9927 12.8808 36.572 12.2971 36.4902 12.2573C36.1747 12.1246 35.8008 12.1512 35.754 12.2971C35.719 12.3899 35.754 12.4695 35.8125 12.4695Z" fill="#0F7499"/>
<path d="M37.0277 20.0972C37.2381 20.2962 37.5302 20.5217 37.6704 20.6013C37.8223 20.6809 37.9392 20.787 37.9392 20.8534C37.9392 21.0126 38.7922 20.8666 39.3648 20.6013C39.6102 20.4952 39.8088 20.3493 39.8088 20.283C39.8088 20.2166 39.914 20.1636 40.0425 20.1636C40.171 20.1636 40.2762 20.2166 40.2762 20.2962C40.2762 20.3625 40.3814 20.4289 40.5099 20.4289C40.6385 20.4289 40.7436 20.4819 40.7436 20.5615C40.7436 20.6279 40.8488 20.6942 40.9773 20.6942C41.1059 20.6942 41.211 20.7472 41.211 20.8268C41.211 21.1319 42.3562 20.8534 42.7769 20.4421C43.0807 20.137 43.3494 19.487 43.2326 19.3544C43.1741 19.288 42.9404 19.487 42.6951 19.8319C42.2861 20.3758 42.2043 20.4289 41.7369 20.4289C41.4447 20.4289 41.211 20.3625 41.211 20.2962C41.211 20.2166 41.1292 20.1636 41.0241 20.1636C40.7904 20.1636 40.545 19.8717 40.3814 19.4074L40.2528 19.036L39.8789 19.5401C39.4582 20.1105 38.9792 20.4289 38.5468 20.4289C38.1378 20.4289 37.2614 19.9381 37.1095 19.6197C36.981 19.3278 36.6538 19.2748 36.6538 19.5534C36.6538 19.6595 36.8291 19.8983 37.0277 20.0972Z" fill="#0F7499"/>
<path d="M38.5115 17.2186C38.6283 17.3778 38.8036 17.5105 38.8854 17.5105C38.9789 17.5105 39.1308 17.6299 39.2243 17.7758C39.3178 17.9217 39.4697 18.0411 39.5631 18.0411C39.6449 18.0411 39.8202 18.1605 39.9371 18.3197C40.1474 18.5982 40.1474 18.5983 40.9069 17.7227C41.7132 16.8074 41.8651 16.489 41.4094 16.6747C41.2692 16.7278 40.5096 16.7809 39.715 16.7809C38.9321 16.7809 38.2895 16.8207 38.2895 16.8605C38.2895 16.9003 38.3829 17.0727 38.5115 17.2186Z" fill="#0F7499"/>
<path d="M41.6083 15.5207C41.8653 15.5207 42.2042 15.6799 42.6132 15.9983C43.2091 16.4626 44.1322 16.7411 44.1322 16.4493C44.1322 16.3697 44.0037 16.1044 43.8518 15.8789C43.4662 15.3085 43.3143 14.4727 43.4545 13.7697C43.5714 13.1594 43.9453 12.39 44.1673 12.2972C44.4711 12.1645 44.0738 11.939 43.7233 12.0451C43.4662 12.1247 43.1624 12.4696 42.6365 13.2788C42.2276 13.889 41.7485 14.5788 41.5498 14.7911C41.1058 15.3217 41.1175 15.5207 41.6083 15.5207Z" fill="#0F7499"/>
<path d="M43.8049 7.86646C44.2723 7.99912 44.8099 8.14504 44.9968 8.18484C45.1838 8.22463 45.4525 8.37055 45.5811 8.51647C45.7213 8.64913 46.0485 8.92771 46.3173 9.12669C46.586 9.32567 47.2287 9.94915 47.7545 10.5063C48.2804 11.0767 48.7828 11.541 48.8763 11.541C49.0983 11.541 49.3437 10.9441 49.519 9.98895C49.6358 9.33894 49.6358 8.92771 49.5307 7.97259C49.3905 6.76542 48.888 4.94805 48.5374 4.33783C48.3622 4.03273 48.3037 4.01946 47.8363 4.12558C47.0651 4.28477 45.9667 4.82866 44.9618 5.53173C44.027 6.19501 42.9636 7.22972 42.9636 7.48176C42.9636 7.56136 43.3492 7.73381 43.8049 7.86646Z" fill="#0F7499"/>
<path d="M45.9085 16.5819C46.3759 16.5819 47.1004 16.2105 47.6029 15.7329C47.9184 15.4411 48.0119 15.4013 48.2456 15.534C48.3975 15.6135 48.6545 15.9054 48.8064 16.1972C49.2972 17.0993 49.6712 16.7146 49.2855 15.7064C48.6662 14.1278 46.9719 12.1247 45.9085 11.7533C45.558 11.6206 45.5813 11.8461 45.9903 12.4431C46.82 13.6502 46.7499 15.2023 45.8267 16.0248C45.4294 16.3829 45.4645 16.5819 45.9085 16.5819Z" fill="#0F7499"/>
<path d="M53.3636 51.1386C53.6324 52.6376 54.6023 54.0836 55.8059 54.7601C56.3551 55.0652 56.6121 55.1183 57.395 55.1183C58.1779 55.1183 58.435 55.0652 58.9725 54.7601C61.7653 53.1948 62.3729 48.8172 60.1761 46.1508C59.3815 45.1824 58.5519 44.7712 57.395 44.7712C56.6121 44.7712 56.3551 44.8375 55.8175 45.1293C53.9479 46.1773 52.9313 48.6712 53.3636 51.1386ZM56.0512 46.8141C56.2499 46.3896 57.3366 45.7661 57.8741 45.7661C58.8206 45.7661 60.1177 47.0794 60.4566 48.4059C60.8188 49.8253 60.4566 51.1652 59.4049 52.2927C58.8907 52.8499 58.7622 52.9295 58.3182 52.9295C58.0377 52.9295 57.804 52.8631 57.804 52.7968C57.804 52.7172 57.7222 52.6642 57.6287 52.6642C57.1496 52.6642 57.0912 51.6029 57.5236 50.6743C57.9442 49.7723 57.8508 48.9498 57.2548 48.3263C57.0328 48.0876 56.7524 47.8886 56.6238 47.8886C56.3901 47.8886 55.9344 47.4508 55.9344 47.212C55.9344 47.1324 55.9928 46.96 56.0512 46.8141Z" fill="#0F7499"/>
<path d="M33.896 56.5775C34.1531 57.5061 34.5154 58.1561 35.0996 58.7664C35.8708 59.5756 36.0812 59.6949 36.7823 59.6949C37.5652 59.6949 38.1845 59.1776 38.4533 58.2888C38.6285 57.7184 38.6169 57.6653 38.4065 57.4C38.278 57.2541 38.1728 57.0153 38.1728 56.8827C38.1728 56.7367 38.0443 56.4847 37.8807 56.3122C37.6704 56.0602 37.4717 55.9806 37.0627 55.9806C36.3616 55.9806 36.3733 56.2194 37.1211 57.0418C37.4366 57.4 37.7054 57.7582 37.7054 57.8378C37.7054 58.05 37.1562 58.6337 36.9459 58.6337C36.8524 58.6337 36.7706 58.5674 36.7706 58.501C36.7706 58.4215 36.6888 58.3684 36.5953 58.3684C36.3616 58.3684 35.3684 57.2408 35.3684 56.9755C35.3684 56.8694 35.3099 56.7765 35.2515 56.7765C35.0879 56.7765 35.1113 56.2857 35.2749 56.1928C35.3917 56.1265 35.3917 56.1 35.2749 56.0337C35.0295 55.901 35.123 55.5959 35.5436 55.1183C35.9409 54.6673 35.9643 54.654 36.9108 54.654C37.7521 54.654 37.9157 54.6938 38.056 54.9194C38.1494 55.0653 38.313 55.1847 38.4299 55.1847C38.5467 55.1847 38.6402 55.2775 38.6402 55.3836C38.6402 55.503 38.7454 55.7153 38.8739 55.8745C38.9908 56.0204 39.1544 56.4847 39.2245 56.8959C39.2946 57.3072 39.3881 57.851 39.4348 58.1031C39.4932 58.448 39.5867 58.5806 39.7737 58.6072C40.0191 58.647 40.0424 58.5939 40.0424 58.1163C40.0424 57.8112 40.0892 57.5725 40.1593 57.5725C40.2177 57.5725 40.2761 57.3867 40.2761 57.1745C40.2761 56.949 40.3229 56.7765 40.393 56.7765C40.4514 56.7765 40.5098 56.5908 40.5098 56.3786C40.5098 56.0735 40.5566 55.9806 40.7436 55.9806C40.8838 55.9806 40.9773 55.8877 40.9773 55.7683C40.9773 55.5163 41.2577 55.1847 41.468 55.1847C41.5615 55.1847 41.7017 55.0653 41.7952 54.9194C41.9354 54.6938 42.099 54.654 42.8235 54.654C43.5714 54.654 43.7116 54.6938 43.957 54.9857C44.2141 55.2775 44.2491 55.4102 44.2491 56.3786C44.2491 57.3469 44.2141 57.4796 43.957 57.7714C43.7116 58.0633 43.5714 58.1031 42.9053 58.1031H42.1458V57.5725C42.1458 57.148 42.1925 57.0418 42.3561 57.0418C42.473 57.0418 42.6366 56.9225 42.73 56.7765C42.8235 56.6306 42.9871 56.5112 43.104 56.5112C43.2325 56.5112 43.3143 56.4184 43.3143 56.2459C43.3143 56.0204 43.2325 55.9806 42.73 55.9806C42.4028 55.9806 42.1458 56.0337 42.1458 56.1133C42.1458 56.1796 42.0406 56.2459 41.9121 56.2459C41.7602 56.2459 41.6784 56.3388 41.6784 56.4847C41.6784 56.6173 41.5732 56.8031 41.4563 56.8959C41.2928 57.0286 41.211 57.3204 41.1525 57.8643C41.0824 58.5674 41.0941 58.6868 41.3395 58.9786C41.7485 59.4694 42.2393 59.6949 42.9287 59.6949C43.7817 59.6949 44.2257 59.4562 44.7983 58.6868C45.6163 57.5592 45.9318 56.7235 45.9318 55.5826C45.9435 54.7204 45.8967 54.4683 45.5695 53.7255C44.9268 52.2265 43.9102 51.2315 42.1691 50.356C40.2411 49.4009 38.6285 49.4142 36.8641 50.4091C35.5904 51.1254 34.0713 52.7305 33.8493 53.5928C33.6857 54.2295 33.7208 55.9275 33.896 56.5775ZM37.051 51.3775C38.1845 50.5019 39.9723 50.2764 41.1876 50.8468C41.877 51.1785 42.8352 51.9744 42.8469 52.2397C42.8469 52.5316 42.286 53.0622 41.9705 53.0622C41.8069 53.0622 41.6784 53.1152 41.6784 53.1948C41.6784 53.2612 41.5615 53.3275 41.4096 53.3275C41.2577 53.3275 41.0707 53.4071 40.9889 53.4867C40.7903 53.7255 38.0326 53.7255 37.9625 53.4867C37.9391 53.3938 37.8456 53.3275 37.7521 53.3275C37.5418 53.3275 36.4084 52.1203 36.4551 51.9479C36.4785 51.8683 36.7472 51.603 37.051 51.3775Z" fill="#0F7499"/>
<path d="M31.0149 16.4989C31.0149 16.4988 31.0141 16.4964 31.0122 16.4924C31.0138 16.4971 31.0148 16.4991 31.0149 16.4989ZM32.0597 14.3902C31.8654 14.6557 31.6885 14.9217 31.5372 15.1755C31.6908 15.0978 31.9067 15.0266 32.164 15.11C32.3798 15.18 32.5627 15.3491 32.7012 15.4773L32.7013 15.4772L32.7062 15.4819C32.8863 15.6531 33.1034 15.811 33.3225 15.9353C32.8281 15.1383 32.773 14.1041 33.1095 13.1579C32.7506 13.5147 32.3853 13.9454 32.0597 14.3902ZM33.8956 12.5004L33.9742 12.5544L33.8955 12.5005C33.7001 12.6265 33.4705 12.811 33.2192 13.051L33.8956 12.5004Z" fill="#0F7499" stroke="#0F7499"/>
<path d="M31.0332 9.71969L31.0337 9.72262C31.1106 10.2464 31.2033 10.596 31.3016 10.8291C31.3165 10.8048 31.33 10.782 31.3419 10.7611C31.3542 10.7396 31.3632 10.7228 31.3695 10.7105C31.3825 10.6419 31.4047 10.5892 31.4168 10.5618C31.4398 10.51 31.4674 10.4622 31.4927 10.4223C31.5436 10.3417 31.6094 10.2543 31.6795 10.1675C31.8216 9.99186 32.0117 9.78236 32.2162 9.57148C32.6193 9.15596 33.1226 8.68987 33.4791 8.44258L33.479 8.44246L33.4889 8.43593C33.6578 8.32462 33.8099 8.21214 33.9158 8.1253C33.9475 8.0993 33.9722 8.07787 33.9905 8.06125C34.0654 7.92045 34.1879 7.84783 34.226 7.82687C34.3119 7.77963 34.4007 7.75601 34.4622 7.74278C34.5939 7.71443 34.749 7.70339 34.8976 7.70339C34.995 7.70339 35.1062 7.69303 35.2025 7.67611C35.2502 7.66773 35.2886 7.65872 35.316 7.65071C35.3252 7.64802 35.3317 7.64587 35.3359 7.64441C35.5817 7.49768 35.9203 7.385 36.2024 7.31749C36.2514 7.30577 36.3006 7.29493 36.3496 7.2852C36.2885 7.20134 36.2171 7.10847 36.1346 7.00742L36.1345 7.00742L36.1322 7.00448C35.6805 6.44286 34.9638 5.81061 34.1877 5.26879C33.4081 4.72452 32.6155 4.30436 32.0245 4.13368L32.0245 4.13369L32.022 4.13297C31.8628 4.0861 31.7537 4.05518 31.6721 4.03603C31.6639 4.03411 31.6564 4.03239 31.6493 4.03084C31.6453 4.03767 31.6406 4.04629 31.635 4.05696C31.6152 4.09522 31.5918 4.14842 31.5657 4.21854C31.5134 4.35923 31.4589 4.54561 31.4049 4.77192C31.2972 5.22349 31.1996 5.79962 31.1244 6.41514C30.9722 7.66064 30.9213 8.98753 31.0332 9.71969Z" fill="#0F7499" stroke="#0F7499"/>
<path d="M37.015 13.8104C37.0105 13.8036 37.0061 13.7968 37.0016 13.79C37.1379 14.4819 37.0379 15.2785 36.7258 15.9234C36.8376 15.8613 36.9467 15.7909 37.0439 15.7152L37.0441 15.715C37.3491 15.4776 37.6688 15.2805 37.9856 15.1883C37.8966 15.0734 37.7897 14.9265 37.6804 14.7733C37.4844 14.4986 37.2481 14.1565 37.0183 13.8154L37.0183 13.8154L37.015 13.8104ZM38.2679 15.5208C38.268 15.5209 38.2675 15.5199 38.2664 15.5178C38.2673 15.5198 38.2679 15.5208 38.2679 15.5208Z" fill="#0F7499" stroke="#0F7499"/>
<mask id="path-16-inside-1_500:7069" fill="white">
<path d="M37.0241 20.076C37.2344 20.275 37.5265 20.5005 37.6668 20.5801C37.8187 20.6597 37.9355 20.7658 37.9355 20.8321C37.9355 20.9913 38.7885 20.8454 39.3611 20.5801C39.6065 20.474 39.8052 20.328 39.8052 20.2617C39.8052 20.1954 39.9103 20.1423 40.0389 20.1423C40.1674 20.1423 40.2726 20.1954 40.2726 20.275C40.2726 20.3413 40.3777 20.4076 40.5063 20.4076C40.6348 20.4076 40.74 20.4607 40.74 20.5403C40.74 20.6066 40.8451 20.6729 40.9737 20.6729C41.1022 20.6729 41.2074 20.726 41.2074 20.8056C41.2074 21.1107 42.3525 20.8321 42.7732 20.4209C43.077 20.1158 43.3458 19.4658 43.2289 19.3331C43.1705 19.2668 42.9368 19.4658 42.6914 19.8107C42.2824 20.3546 42.2006 20.4076 41.7332 20.4076C41.4411 20.4076 41.2074 20.3413 41.2074 20.275C41.2074 20.1954 41.1256 20.1423 41.0204 20.1423C40.7867 20.1423 40.5413 19.8505 40.3777 19.3862L40.2492 19.0148L39.8753 19.5188C39.4546 20.0893 38.9755 20.4076 38.5432 20.4076C38.1342 20.4076 37.2578 19.9168 37.1059 19.5984C36.9773 19.3066 36.6502 19.2535 36.6502 19.5321C36.6502 19.6382 36.8254 19.877 37.0241 20.076Z"/>
</mask>
<path d="M37.0241 20.076C37.2344 20.275 37.5265 20.5005 37.6668 20.5801C37.8187 20.6597 37.9355 20.7658 37.9355 20.8321C37.9355 20.9913 38.7885 20.8454 39.3611 20.5801C39.6065 20.474 39.8052 20.328 39.8052 20.2617C39.8052 20.1954 39.9103 20.1423 40.0389 20.1423C40.1674 20.1423 40.2726 20.1954 40.2726 20.275C40.2726 20.3413 40.3777 20.4076 40.5063 20.4076C40.6348 20.4076 40.74 20.4607 40.74 20.5403C40.74 20.6066 40.8451 20.6729 40.9737 20.6729C41.1022 20.6729 41.2074 20.726 41.2074 20.8056C41.2074 21.1107 42.3525 20.8321 42.7732 20.4209C43.077 20.1158 43.3458 19.4658 43.2289 19.3331C43.1705 19.2668 42.9368 19.4658 42.6914 19.8107C42.2824 20.3546 42.2006 20.4076 41.7332 20.4076C41.4411 20.4076 41.2074 20.3413 41.2074 20.275C41.2074 20.1954 41.1256 20.1423 41.0204 20.1423C40.7867 20.1423 40.5413 19.8505 40.3777 19.3862L40.2492 19.0148L39.8753 19.5188C39.4546 20.0893 38.9755 20.4076 38.5432 20.4076C38.1342 20.4076 37.2578 19.9168 37.1059 19.5984C36.9773 19.3066 36.6502 19.2535 36.6502 19.5321C36.6502 19.6382 36.8254 19.877 37.0241 20.076Z" fill="#0F7499"/>
<path d="M37.0241 20.076L36.3368 20.8024L36.3265 20.7926L36.3164 20.7825L37.0241 20.076ZM37.6668 20.5801L37.2027 21.4659L37.1878 21.4581L37.1731 21.4498L37.6668 20.5801ZM39.3611 20.5801L38.9407 19.6728L38.9524 19.6674L38.9642 19.6622L39.3611 20.5801ZM42.7732 20.4209L43.4819 21.1266L43.4722 21.136L42.7732 20.4209ZM42.6914 19.8107L43.5062 20.3904L43.4986 20.4012L43.4906 20.4117L42.6914 19.8107ZM40.3777 19.3862L39.4345 19.7185L39.4327 19.7132L40.3777 19.3862ZM40.2492 19.0148L39.446 18.419L40.5747 16.8975L41.1942 18.6877L40.2492 19.0148ZM39.8753 19.5188L39.0705 18.9253L39.0721 18.9231L39.8753 19.5188ZM37.1059 19.5984L36.2034 20.0291L36.1968 20.0154L36.1907 20.0015L37.1059 19.5984ZM37.7113 19.3496C37.789 19.4231 37.8897 19.5086 37.987 19.5845C38.0348 19.6218 38.0776 19.6535 38.1121 19.6778C38.1501 19.7045 38.1651 19.7131 38.1604 19.7104L37.1731 21.4498C36.936 21.3151 36.5779 21.0305 36.3368 20.8024L37.7113 19.3496ZM38.1309 19.6943C38.2677 19.766 38.4123 19.861 38.5387 19.9784C38.601 20.0363 38.6816 20.1205 38.7535 20.2312C38.8153 20.3263 38.9355 20.5391 38.9355 20.8321H36.9355C36.9355 21.092 37.0412 21.2666 37.0763 21.3207C37.1215 21.3904 37.1634 21.4307 37.1776 21.4438C37.2076 21.4717 37.2177 21.4737 37.2027 21.4659L38.1309 19.6943ZM38.9355 20.8321C38.9355 20.5969 38.8494 20.3803 38.7112 20.2156C38.5877 20.0684 38.4514 19.9957 38.3751 19.9622C38.2953 19.9272 38.2305 19.913 38.1982 19.9071C38.163 19.9006 38.1384 19.899 38.129 19.8985C38.1088 19.8975 38.1487 19.8999 38.2616 19.8802C38.4742 19.8431 38.7451 19.7634 38.9407 19.6728L39.7815 21.4874C39.4046 21.6621 38.9627 21.788 38.6057 21.8504C38.4337 21.8804 38.2245 21.9061 38.0265 21.8959C37.9401 21.8915 37.7614 21.877 37.5715 21.7936C37.3735 21.7067 36.9355 21.4215 36.9355 20.8321H38.9355ZM38.9642 19.6622C39.0305 19.6335 39.0764 19.6048 39.0896 19.5954C39.099 19.5886 39.0718 19.6063 39.0309 19.6513C39.0105 19.6736 38.967 19.7241 38.9238 19.8011C38.8861 19.8684 38.8052 20.0321 38.8052 20.2617H40.8052C40.8052 20.5079 40.718 20.6907 40.6684 20.7791C40.6134 20.8772 40.5525 20.9508 40.5097 20.9978C40.4238 21.0921 40.3317 21.1654 40.2608 21.2166C40.1132 21.3232 39.9371 21.4205 39.7581 21.4979L38.9642 19.6622ZM38.8052 20.2617C38.8052 19.6559 39.2638 19.3655 39.4203 19.2859C39.6303 19.179 39.8506 19.1423 40.0389 19.1423V21.1423C40.0985 21.1423 40.202 21.1322 40.3274 21.0684C40.3991 21.0319 40.8052 20.8012 40.8052 20.2617H38.8052ZM40.0389 19.1423C40.2249 19.1423 40.459 19.1783 40.6845 19.3019C40.9024 19.4213 41.2726 19.7303 41.2726 20.275H39.2726C39.2726 20.7401 39.5901 20.9828 39.7233 21.0557C39.8641 21.1329 39.9814 21.1423 40.0389 21.1423V19.1423ZM41.2726 20.275C41.2726 20.0195 41.171 19.8285 41.0859 19.7169C41.0014 19.6063 40.9101 19.5406 40.8476 19.5039C40.7231 19.4308 40.604 19.4076 40.5063 19.4076V21.4076C40.28 21.4076 40.044 21.3513 39.8349 21.2285C39.6814 21.1384 39.2726 20.8418 39.2726 20.275H41.2726ZM40.5063 19.4076C40.6923 19.4076 40.9264 19.4436 41.1519 19.5672C41.3698 19.6866 41.74 19.9956 41.74 20.5403H39.74C39.74 21.0054 40.0575 21.2481 40.1907 21.3211C40.3315 21.3982 40.4488 21.4076 40.5063 21.4076V19.4076ZM41.74 20.5403C41.74 20.2848 41.6384 20.0938 41.5533 19.9822C41.4688 19.8716 41.3775 19.8059 41.315 19.7692C41.1905 19.6961 41.0714 19.6729 40.9737 19.6729V21.6729C40.7474 21.6729 40.5114 21.6166 40.3023 21.4938C40.1488 21.4037 39.74 21.1071 39.74 20.5403H41.74ZM40.9737 19.6729C41.1597 19.6729 41.3938 19.7089 41.6193 19.8325C41.8372 19.9519 42.2074 20.2609 42.2074 20.8056H40.2074C40.2074 21.2707 40.525 21.5134 40.6581 21.5864C40.7989 21.6635 40.9162 21.6729 40.9737 21.6729V19.6729ZM42.2074 20.8056C42.2074 20.6615 42.1716 20.5029 42.0851 20.3539C42.0009 20.2089 41.892 20.113 41.8004 20.0538C41.637 19.9481 41.4979 19.9375 41.4835 19.9361C41.439 19.9321 41.4723 19.9405 41.5949 19.9105C41.7002 19.8848 41.8184 19.8434 41.9216 19.7943C42.0343 19.7408 42.0774 19.7027 42.0741 19.7058L43.4722 21.136C43.0787 21.5207 42.4885 21.7509 42.0702 21.8532C41.8539 21.9061 41.5747 21.9527 41.3023 21.9279C41.1739 21.9163 40.9421 21.8805 40.7144 21.7333C40.4336 21.5517 40.2074 21.2241 40.2074 20.8056H42.2074ZM42.0646 19.7153C42.0728 19.707 42.1016 19.674 42.1406 19.6115C42.1778 19.552 42.2113 19.4864 42.2358 19.4275C42.2632 19.3619 42.2655 19.3381 42.2623 19.358C42.2609 19.3668 42.2518 19.4232 42.2607 19.5092C42.2684 19.5824 42.3007 19.7922 42.4785 19.9941L43.9793 18.6721C44.1864 18.9072 44.2358 19.1663 44.2499 19.3017C44.2654 19.4498 44.2521 19.5812 44.2371 19.6743C44.2069 19.8629 44.145 20.0455 44.0818 20.1971C43.9589 20.4919 43.7529 20.8543 43.4818 21.1265L42.0646 19.7153ZM42.4785 19.9941C42.6886 20.2326 42.9642 20.3162 43.1804 20.3203C43.3658 20.3238 43.5 20.2715 43.5524 20.2488C43.6592 20.2025 43.7086 20.1529 43.6897 20.1694C43.6702 20.1865 43.6011 20.2571 43.5062 20.3904L41.8766 19.231C42.0271 19.0194 42.1975 18.818 42.3708 18.666C42.4483 18.5979 42.5825 18.4894 42.7572 18.4137C42.8448 18.3758 43.4906 18.1173 43.9793 18.6721L42.4785 19.9941ZM43.4906 20.4117C43.3172 20.6423 43.0829 20.9619 42.7642 21.1611C42.3695 21.4078 41.969 21.4076 41.7332 21.4076V19.4076C41.7839 19.4076 41.8166 19.4069 41.8393 19.4057C41.8615 19.4045 41.8646 19.4034 41.8561 19.4048C41.846 19.4065 41.8227 19.4113 41.7919 19.4225C41.7601 19.4341 41.7301 19.4489 41.7042 19.4651C41.6565 19.4949 41.6473 19.5141 41.6878 19.4687C41.73 19.4212 41.7899 19.3457 41.8921 19.2097L43.4906 20.4117ZM41.7332 21.4076C41.5206 21.4076 41.3016 21.3844 41.1073 21.3335C41.0173 21.31 40.8804 21.2672 40.7421 21.186C40.6736 21.1458 40.5618 21.0714 40.4571 20.9487C40.3498 20.8228 40.2074 20.5929 40.2074 20.275H42.2074C42.2074 19.9737 42.0723 19.7603 41.9788 19.6508C41.8881 19.5444 41.7969 19.4861 41.7548 19.4614C41.7067 19.4331 41.6688 19.4177 41.6506 19.4108C41.6307 19.4033 41.6178 19.3998 41.6142 19.3988C41.6098 19.3977 41.6537 19.4076 41.7332 19.4076V21.4076ZM40.2074 20.275C40.2074 20.6208 40.399 20.873 40.5848 21.0015C40.7534 21.118 40.9172 21.1423 41.0204 21.1423V19.1423C41.2288 19.1423 41.486 19.1932 41.7218 19.3561C41.9749 19.531 42.2074 19.8495 42.2074 20.275H40.2074ZM41.0204 21.1423C40.4777 21.1423 40.1047 20.8148 39.9099 20.5849C39.6969 20.3335 39.5428 20.0257 39.4346 19.7185L41.3209 19.0539C41.347 19.1279 41.3731 19.1856 41.3957 19.2278C41.4189 19.271 41.4341 19.29 41.4357 19.2919C41.4388 19.2956 41.4143 19.2648 41.3541 19.2291C41.2908 19.1916 41.1758 19.1423 41.0204 19.1423V21.1423ZM39.4327 19.7132L39.3042 19.3418L41.1942 18.6877L41.3227 19.0592L39.4327 19.7132ZM41.0523 19.6105L40.6784 20.1146L39.0721 18.9231L39.446 18.419L41.0523 19.6105ZM40.6801 20.1124C40.1899 20.7771 39.4509 21.4076 38.5432 21.4076V19.4076C38.5118 19.4076 38.5495 19.418 38.659 19.345C38.7672 19.2729 38.9118 19.1405 39.0705 18.9253L40.6801 20.1124ZM38.5432 21.4076C38.2721 21.4076 38.0142 21.3335 37.8296 21.2672C37.6272 21.1945 37.4237 21.0984 37.2383 20.9942C37.0536 20.8905 36.8654 20.7667 36.7002 20.6302C36.5598 20.5142 36.3376 20.3105 36.2034 20.0291L38.0084 19.1678C37.9891 19.1273 37.9707 19.0991 37.9599 19.0838C37.9487 19.068 37.941 19.0593 37.9395 19.0575C37.9373 19.0551 37.9469 19.0659 37.9739 19.0882C38.0284 19.1333 38.1134 19.1919 38.218 19.2506C38.3217 19.3089 38.4235 19.3554 38.5053 19.3848C38.5456 19.3992 38.5727 19.4065 38.5865 19.4096C38.6033 19.4133 38.5862 19.4076 38.5432 19.4076V21.4076ZM36.1907 20.0015C36.2299 20.0905 36.3622 20.2916 36.6791 20.3399C36.855 20.3668 37.1356 20.3419 37.3751 20.1247C37.6116 19.9101 37.6502 19.6516 37.6502 19.5321H35.6502C35.6502 19.2734 35.7296 18.917 36.0315 18.6432C36.3364 18.3667 36.7068 18.321 36.9806 18.3628C37.4932 18.441 37.8533 18.8145 38.021 19.1954L36.1907 20.0015ZM37.6502 19.5321C37.6502 19.471 37.644 19.4198 37.6373 19.3815C37.6305 19.3427 37.6221 19.3109 37.615 19.2874C37.6012 19.242 37.5871 19.2114 37.581 19.1987C37.5694 19.1747 37.5657 19.1727 37.5812 19.1948C37.5945 19.2138 37.6152 19.2408 37.6427 19.2731C37.6699 19.305 37.7004 19.338 37.7318 19.3695L36.3164 20.7825C36.1842 20.6501 36.0516 20.4969 35.9441 20.3436C35.8909 20.2679 35.831 20.1739 35.7803 20.0691C35.7428 19.9914 35.6502 19.7899 35.6502 19.5321H37.6502Z" fill="#0F7499" mask="url(#path-16-inside-1_500:7069)"/>
<path d="M39.4594 17.2611C39.5271 17.3273 39.5896 17.4032 39.6419 17.4848C39.6491 17.4961 39.6587 17.5088 39.67 17.5211C39.6736 17.5251 39.6771 17.5288 39.6805 17.5321C39.751 17.5463 39.8082 17.5698 39.8451 17.5867C39.9112 17.6171 39.9727 17.6553 40.0269 17.6946C40.0691 17.7252 40.1118 17.76 40.1537 17.7986C40.2485 17.6934 40.3683 17.5555 40.5258 17.3738L40.5258 17.3738L40.5283 17.371C40.5694 17.3243 40.6086 17.2795 40.6458 17.2364C40.3655 17.2508 40.0412 17.2596 39.7116 17.2596C39.6254 17.2596 39.5411 17.2601 39.4594 17.2611ZM40.3848 18.0639C40.3848 18.0638 40.3841 18.063 40.3827 18.0616C40.3841 18.0632 40.3848 18.0639 40.3848 18.0639Z" fill="#0F7499" stroke="#0F7499"/>
<path d="M42.9169 15.5823L42.917 15.5825C43.0142 15.6582 43.1234 15.7286 43.2352 15.7907C42.9255 15.1506 42.8246 14.361 42.9564 13.6728C42.7769 13.9389 42.5884 14.2135 42.4184 14.4526C42.2516 14.6872 42.0873 14.9096 41.9642 15.0524C42.2847 15.1432 42.6084 15.3422 42.9169 15.5823Z" fill="#0F7499" stroke="#0F7499"/>
<path d="M48.1147 10.1419L48.1148 10.1419L48.1187 10.1462C48.362 10.4101 48.5976 10.6478 48.7842 10.822C48.8658 10.5995 48.9496 10.2815 49.0236 9.87837C49.1286 9.29389 49.1325 8.93499 49.0304 8.00757C48.964 7.43686 48.8098 6.70738 48.6273 6.04239C48.4408 5.3626 48.2411 4.81049 48.1005 4.56566C48.0992 4.56343 48.0979 4.56124 48.0967 4.5591C48.0935 4.55973 48.0901 4.56037 48.0867 4.56105C48.0471 4.56886 48.0005 4.57902 47.9436 4.59193L47.9436 4.59203L47.934 4.59402C47.2586 4.73342 46.2258 5.23415 45.2463 5.91924C44.8025 6.23426 44.3234 6.64125 43.9578 6.99773C43.8524 7.10041 43.7594 7.19614 43.6809 7.28189C43.7605 7.30981 43.8478 7.3379 43.9396 7.36467C44.4117 7.49864 44.9305 7.63901 45.0975 7.67455C45.2541 7.70789 45.4158 7.77727 45.5517 7.85334C45.6788 7.92452 45.8218 8.02301 45.9344 8.14435C46.0671 8.26796 46.3665 8.52231 46.6114 8.7036C46.9207 8.93265 47.5917 9.58765 48.1147 10.1419ZM48.6471 11.1046C48.6471 11.1048 48.6486 11.1032 48.6518 11.0994C48.6486 11.1025 48.6471 11.1044 48.6471 11.1046ZM43.4333 7.59627C43.4335 7.59617 43.4354 7.59278 43.438 7.58644C43.4343 7.59321 43.433 7.59638 43.4333 7.59627Z" fill="#0F7499" stroke="#0F7499"/>
<path d="M47.2548 15.3492L47.2547 15.3491L47.2597 15.3445C47.3983 15.2163 47.5812 15.0473 47.797 14.9773C48.0466 14.8963 48.2573 14.961 48.4099 15.0359C48.1257 14.5409 47.7655 14.0337 47.3792 13.5799C47.2017 13.3715 47.0214 13.1775 46.8438 13.0038C47.1887 13.9555 47.1366 14.9989 46.6389 15.8018C46.8583 15.6777 47.0749 15.5201 47.2548 15.3492Z" fill="#0F7499" stroke="#0F7499"/>
</svg>
