<svg width="598" height="167" viewBox="0 0 598 167" fill="none" xmlns="http://www.w3.org/2000/svg">
<path d="M2.5 99.9132C2.5 90.2482 10.335 82.4132 20 82.4132H578C587.665 82.4132 595.5 90.2482 595.5 99.9132V146.913C595.5 156.578 587.665 164.413 578 164.413H20C10.335 164.413 2.5 156.578 2.5 146.913V99.9132Z" fill="#0F7499" stroke="#0F7499" stroke-width="5"/>
<path d="M195.811 140.681C193.027 140.681 190.307 140.377 187.651 139.769C185.027 139.129 182.867 138.281 181.171 137.225L184.819 128.969C186.419 129.897 188.211 130.649 190.195 131.225C192.179 131.769 194.083 132.041 195.907 132.041C197.475 132.041 198.595 131.897 199.267 131.609C199.939 131.289 200.275 130.825 200.275 130.217C200.275 129.513 199.827 128.985 198.931 128.633C198.067 128.281 196.627 127.897 194.611 127.481C192.019 126.937 189.859 126.361 188.131 125.753C186.403 125.113 184.899 124.089 183.619 122.681C182.339 121.241 181.699 119.305 181.699 116.873C181.699 114.761 182.291 112.841 183.475 111.113C184.659 109.385 186.419 108.025 188.755 107.033C191.123 106.041 193.987 105.545 197.347 105.545C199.651 105.545 201.907 105.801 204.115 106.313C206.355 106.793 208.323 107.513 210.019 108.473L206.611 116.681C203.315 115.017 200.195 114.185 197.251 114.185C194.339 114.185 192.883 114.889 192.883 116.297C192.883 116.969 193.315 117.481 194.179 117.833C195.043 118.153 196.467 118.505 198.451 118.889C201.011 119.369 203.171 119.929 204.931 120.569C206.691 121.177 208.211 122.185 209.491 123.593C210.803 125.001 211.459 126.921 211.459 129.353C211.459 131.465 210.867 133.385 209.683 135.113C208.499 136.809 206.723 138.169 204.355 139.193C202.019 140.185 199.171 140.681 195.811 140.681ZM242.43 126.761C242.43 126.921 242.382 127.769 242.286 129.305H224.046C224.43 130.297 225.07 131.065 225.966 131.609C226.862 132.121 227.982 132.377 229.326 132.377C230.478 132.377 231.438 132.233 232.206 131.945C233.006 131.657 233.87 131.161 234.798 130.457L240.462 136.169C237.902 138.985 234.078 140.393 228.99 140.393C225.822 140.393 223.038 139.817 220.638 138.665C218.238 137.481 216.382 135.849 215.07 133.769C213.758 131.689 213.102 129.353 213.102 126.761C213.102 124.137 213.742 121.801 215.022 119.753C216.334 117.673 218.11 116.057 220.35 114.905C222.622 113.753 225.166 113.177 227.982 113.177C230.638 113.177 233.054 113.705 235.23 114.761C237.438 115.817 239.182 117.369 240.462 119.417C241.774 121.465 242.43 123.913 242.43 126.761ZM228.078 120.569C226.958 120.569 226.03 120.873 225.294 121.481C224.558 122.089 224.078 122.953 223.854 124.073H232.302C232.078 122.985 231.598 122.137 230.862 121.529C230.126 120.889 229.198 120.569 228.078 120.569ZM256.173 116.489C258.093 114.281 260.925 113.177 264.669 113.177V122.777C263.805 122.649 263.005 122.585 262.269 122.585C258.557 122.585 256.701 124.473 256.701 128.249V139.913H245.853V113.657H256.173V116.489ZM297.679 113.657L287.119 139.913H275.887L265.327 113.657H276.463L281.743 127.721L287.407 113.657H297.679ZM299.338 113.657H310.186V139.913H299.338V113.657ZM304.762 111.545C302.81 111.545 301.226 111.033 300.01 110.009C298.826 108.953 298.234 107.625 298.234 106.025C298.234 104.425 298.826 103.113 300.01 102.089C301.226 101.033 302.81 100.505 304.762 100.505C306.746 100.505 308.33 101.001 309.514 101.993C310.698 102.985 311.29 104.265 311.29 105.833C311.29 107.497 310.698 108.873 309.514 109.961C308.33 111.017 306.746 111.545 304.762 111.545ZM329.106 140.393C326.13 140.393 323.458 139.817 321.09 138.665C318.754 137.513 316.914 135.897 315.57 133.817C314.258 131.737 313.602 129.385 313.602 126.761C313.602 124.137 314.258 121.801 315.57 119.753C316.914 117.673 318.754 116.057 321.09 114.905C323.458 113.753 326.13 113.177 329.106 113.177C332.306 113.177 335.042 113.865 337.314 115.241C339.586 116.617 341.154 118.521 342.018 120.953L333.618 125.081C332.594 122.777 331.074 121.625 329.058 121.625C327.778 121.625 326.706 122.073 325.842 122.969C325.01 123.865 324.594 125.129 324.594 126.761C324.594 128.425 325.01 129.705 325.842 130.601C326.706 131.497 327.778 131.945 329.058 131.945C331.074 131.945 332.594 130.793 333.618 128.489L342.018 132.617C341.154 135.049 339.586 136.953 337.314 138.329C335.042 139.705 332.306 140.393 329.106 140.393ZM344.525 113.657H355.373V139.913H344.525V113.657ZM349.949 111.545C347.997 111.545 346.413 111.033 345.197 110.009C344.013 108.953 343.421 107.625 343.421 106.025C343.421 104.425 344.013 103.113 345.197 102.089C346.413 101.033 347.997 100.505 349.949 100.505C351.933 100.505 353.517 101.001 354.701 101.993C355.885 102.985 356.477 104.265 356.477 105.833C356.477 107.497 355.885 108.873 354.701 109.961C353.517 111.017 351.933 111.545 349.949 111.545ZM374.053 140.393C371.141 140.393 368.517 139.817 366.181 138.665C363.877 137.481 362.069 135.865 360.757 133.817C359.445 131.737 358.789 129.385 358.789 126.761C358.789 124.137 359.445 121.801 360.757 119.753C362.069 117.673 363.877 116.057 366.181 114.905C368.517 113.753 371.141 113.177 374.053 113.177C376.997 113.177 379.621 113.753 381.925 114.905C384.261 116.057 386.069 117.673 387.349 119.753C388.661 121.801 389.317 124.137 389.317 126.761C389.317 129.385 388.661 131.737 387.349 133.817C386.069 135.865 384.261 137.481 381.925 138.665C379.621 139.817 376.997 140.393 374.053 140.393ZM374.053 131.945C375.301 131.945 376.325 131.497 377.125 130.601C377.925 129.673 378.325 128.393 378.325 126.761C378.325 125.129 377.925 123.865 377.125 122.969C376.325 122.073 375.301 121.625 374.053 121.625C372.805 121.625 371.781 122.073 370.981 122.969C370.181 123.865 369.781 125.129 369.781 126.761C369.781 128.393 370.181 129.673 370.981 130.601C371.781 131.497 372.805 131.945 374.053 131.945ZM402.984 140.393C400.745 140.393 398.537 140.153 396.361 139.673C394.185 139.193 392.425 138.569 391.081 137.801L394.057 130.649C395.273 131.385 396.713 131.961 398.377 132.377C400.041 132.793 401.657 133.001 403.225 133.001C404.473 133.001 405.337 132.905 405.817 132.713C406.329 132.489 406.585 132.169 406.585 131.753C406.585 131.337 406.265 131.049 405.625 130.889C405.017 130.729 404.009 130.569 402.601 130.409C400.457 130.153 398.633 129.833 397.129 129.449C395.625 129.033 394.297 128.249 393.145 127.097C392.025 125.945 391.465 124.297 391.465 122.153C391.465 120.457 391.977 118.937 393.001 117.593C394.025 116.249 395.545 115.177 397.561 114.377C399.609 113.577 402.057 113.177 404.905 113.177C406.889 113.177 408.825 113.369 410.713 113.753C412.633 114.105 414.265 114.633 415.609 115.337L412.633 122.489C410.329 121.209 407.801 120.569 405.049 120.569C402.681 120.569 401.497 120.985 401.497 121.817C401.497 122.233 401.817 122.537 402.457 122.729C403.097 122.889 404.105 123.049 405.481 123.209C407.625 123.465 409.433 123.801 410.905 124.217C412.409 124.633 413.721 125.417 414.841 126.569C415.993 127.721 416.569 129.369 416.569 131.513C416.569 133.145 416.057 134.633 415.033 135.977C414.009 137.321 412.473 138.393 410.425 139.193C408.377 139.993 405.897 140.393 402.984 140.393Z" fill="#FAFAFA"/>
<path d="M436.27 78.6614C436.759 80.4135 437.973 81.4538 440.341 82.1473C440.948 82.3116 445.43 82.3846 459.346 82.4393L477.568 82.5306L477.999 81.3625C478.821 79.2454 479.975 77.2926 481.013 76.2523C482.226 75.066 484.007 73.7336 484.399 73.7336C484.555 73.7336 484.673 73.6606 484.673 73.5694C484.673 73.4051 490.349 70.6675 491.523 70.266C492.893 69.8097 496.279 68.2036 496.886 67.7291C497.219 67.4736 497.826 66.9443 498.217 66.561C499.666 65.2105 499.587 65.9953 499.568 53.6759C499.548 43.3276 499.568 42.5246 499.92 41.2835C500.351 39.7687 500.742 39.1299 501.407 38.8379C502.601 38.3451 503.619 39.568 504.324 42.3421C504.774 44.1124 505.028 49.8067 505.028 57.9101V65.1192L505.694 65.9405C506.066 66.3785 506.457 66.9078 506.555 67.1086C506.849 67.6013 508.747 68.5139 510.509 68.9884C511.311 69.2257 512.055 69.4629 512.172 69.5359C512.27 69.6089 513.21 69.8827 514.228 70.1565C516.478 70.7587 519.61 72.1093 520.178 72.7298C520.413 72.9854 520.745 73.1861 520.921 73.1861C521.098 73.1861 522.057 73.9527 523.074 74.8652C524.914 76.5808 525.775 77.5481 525.775 77.9131C525.775 78.0409 525.932 78.2964 526.147 78.4971C526.343 78.6979 526.813 79.7017 527.165 80.7055L527.831 82.5488L541.531 82.4211C549.067 82.3663 556.641 82.2203 558.364 82.1291C560.086 82.0196 562.455 81.91 563.648 81.8553C564.823 81.8005 566.056 81.7093 566.389 81.6545C567.837 81.3625 569.168 80.377 569.696 79.1724C570.088 78.3146 570.107 76.161 569.716 74.8287C569.364 73.5694 568.424 71.8903 567.935 71.653C567.739 71.5435 567.465 71.3245 567.328 71.1603C566.154 69.7184 564.373 68.6964 562.102 68.1671C558.442 67.3276 552.747 68.2401 547.912 70.4302C547.207 70.7405 546.62 70.996 546.581 70.996C546.542 70.996 546.522 69.8462 546.522 68.4591V65.904L547.951 65.2652C550.691 64.0424 553.295 61.323 554.195 58.7862C554.567 57.6911 554.606 57.1436 554.645 52.9276C554.665 48.0911 554.723 47.6349 555.722 43.9482C555.956 43.1451 556.348 42.1596 556.622 41.7763C556.896 41.3748 557.072 40.9915 557.013 40.9003C556.955 40.8273 557.483 39.6592 558.188 38.3086C562.376 30.333 565.195 23.5802 566.213 19.1087C566.526 17.6669 566.584 15.7688 566.291 15.6045C566.173 15.5498 566.095 15.3125 566.095 15.0935C566.095 14.5095 565.019 11.3703 564.314 9.92849C563.12 7.42812 561.789 5.63953 559.343 3.30341C558.051 2.06236 556.602 0.80304 556.133 0.511032C555.271 0 555.213 0 552.355 0C549.771 0 549.38 0.036499 548.578 0.40152C548.088 0.620529 547.697 0.876045 547.697 0.949051C547.697 1.02206 547.149 1.35056 546.464 1.66084C544.663 2.50037 542.158 4.0882 540.807 5.25626C539.359 6.51557 537.617 8.52317 533.585 13.5969C530.336 17.6669 528.927 19.638 526.46 23.4524C525.638 24.7482 524.895 25.8615 524.816 25.9163C524.738 25.971 524.621 26.1535 524.542 26.3178C524.484 26.5003 523.818 27.4859 523.074 28.5079C522.35 29.5482 521.137 31.2638 520.413 32.3406C519.669 33.4356 518.945 34.3117 518.788 34.3117C518.455 34.3117 517.946 33.8737 517.946 33.5817C517.946 33.4722 518.592 32.7786 519.356 32.0486C520.882 30.6433 521.783 29.3657 522.605 27.5224C523.27 25.971 523.446 22.7041 522.937 21.0798C522.546 19.7657 521.861 18.5064 521.176 17.7216L520.647 17.1558L521.293 16.4441C522.898 14.765 523.799 12.6661 523.818 10.6585C523.818 8.12165 523.133 6.57033 520.706 3.57718C519.845 2.53688 519.003 1.38707 518.847 1.02205C518.475 0.20076 518.22 0.18251 516.185 0.98555C511.801 2.71938 506.986 5.87679 506.144 7.61063C506.007 7.92089 505.85 8.01215 505.635 7.92089C505.459 7.84789 504.05 7.73839 502.484 7.70188L499.666 7.62888L498.648 6.66158C498.1 6.11406 496.827 5.18326 495.81 4.56272C493.637 3.26691 488 0.547531 487.452 0.547531C487.159 0.547531 486.708 1.16805 485.534 3.13915C483.322 6.91709 482.97 7.59238 482.5 9.21671C481.776 11.7353 482.187 13.9802 483.733 15.7688L484.36 16.4806L483.89 17.2289C482.442 19.5832 481.874 20.7513 481.62 21.9376C481.013 24.5475 481.757 27.3399 483.812 30.2417L485.045 31.9938L484.673 32.5049C484.458 32.7786 484.066 33.4357 483.792 33.9649C483.401 34.768 483.303 34.8775 483.185 34.5672C482.148 31.9208 480.504 29.2014 476.785 23.9999C475.924 22.7954 474.515 20.9338 473.673 19.857C472.831 18.7802 472.146 17.8494 472.146 17.7946C472.146 17.7399 471.97 17.5209 471.774 17.3019C471.559 17.0646 470.267 15.5315 468.878 13.8707C467.508 12.2281 465.57 10.111 464.611 9.18021C462.928 7.57413 458.72 4.19771 458.406 4.19771C458.328 4.19771 458.25 4.0882 458.25 3.94219C458.25 3.81444 457.604 3.43117 456.821 3.0844C455.549 2.51862 455.236 2.46387 453.65 2.46387C450.969 2.46387 450.029 2.95665 446.78 6.0593C443.355 9.34447 441.828 11.7171 440.419 15.933C439.812 17.7216 439.793 17.8494 439.91 20.2402C440.106 24.7665 441.75 29.4387 445.919 37.2318C446.741 38.7832 447.524 40.3527 447.681 40.6995C447.818 41.0463 448.444 42.3603 449.07 43.6197C450.245 46.0288 451.399 49.0402 451.869 50.9565C452.084 51.7778 452.163 53.3291 452.163 56.3223C452.163 58.9504 452.241 60.8485 452.378 61.3413C452.848 62.9839 453.983 64.6447 455.725 66.269L457.408 67.8386L457.252 68.7329C457.173 69.2257 457.095 70.2477 457.095 70.996L457.075 72.3466L456.038 71.434C453.337 68.9702 450.303 67.9116 446.643 68.1306C443.198 68.3314 440.341 69.6272 437.562 72.2188C436.172 73.5146 435.624 76.307 436.27 78.6614ZM439.656 76.1063C439.871 75.7047 440.047 75.3032 440.047 75.212C440.047 74.993 440.38 74.5914 441.476 73.4416C442.807 72.0546 445.449 71.0325 447.974 70.9595C449.305 70.923 452.182 71.1785 452.182 71.3428C452.182 71.4158 452.691 71.6713 453.298 71.9086C454.903 72.5291 456.801 74.3359 457.721 76.1245C458.68 77.9679 458.7 78.8621 457.819 79.7017C457.252 80.2492 457.075 80.304 456.077 80.304C454.374 80.304 454.061 80.1032 453.552 78.6796C453.063 77.3291 452.28 75.796 451.889 75.431C451.732 75.3032 451.399 75.1937 451.125 75.1937H450.636L451.008 75.9603C451.497 76.9641 451.517 78.4059 451.047 79.0629C449.971 80.596 448.463 80.6872 446.996 79.3184C446.663 78.9899 446.604 78.7161 446.624 77.2561L446.643 75.5587H446.095C445.547 75.5587 445.332 75.8325 445.332 76.5625C445.332 78.3694 444.314 80.012 443.061 80.231C442.2 80.377 440.674 79.9937 440.145 79.5009C439.206 78.6066 439.01 77.2743 439.656 76.1063ZM446.526 17.1558C447.074 15.2943 447.896 13.9984 449.442 12.5749C451.028 11.1148 452.182 10.6585 453.924 10.8228C455.412 10.9505 456.762 11.5346 459.639 13.3232C466.314 17.4661 469.641 20.7513 472.792 26.2813C474.534 29.311 475.004 30.6615 475.552 34.1839C476.492 40.0972 476.257 41.2653 473.79 43.4371C470.815 46.047 466.979 49.9527 465.864 51.5223C464.513 53.4204 463.437 55.3185 462.262 57.9649C461.381 59.9542 460.579 61.0858 459.874 61.3413C458.857 61.688 457.369 60.6112 456.469 58.8592C455.823 57.6181 455.784 56.7421 456.097 52.3801C456.449 47.6714 455.647 43.9482 453.278 39.1117C452.691 37.9254 451.81 36.301 451.321 35.498C450.812 34.695 450.284 33.6729 450.108 33.2166C449.931 32.7604 449.677 32.1398 449.52 31.8478C449.031 30.7893 448.013 28.1794 447.074 25.5513C446.154 22.9779 446.115 22.8501 446.115 20.7148C446.115 19.0357 446.213 18.1961 446.526 17.1558ZM464.102 65.9953C465.648 61.8706 470.013 59.3154 474.339 60.009C476.413 60.3375 478.057 61.177 479.721 62.7283C480.504 63.4584 481.15 64.2067 481.15 64.3892C481.15 64.5717 481.306 64.882 481.522 65.0827C481.952 65.5207 482.089 66.3238 482.246 69.0432C482.324 70.3937 482.305 71.0873 482.148 71.2333C482.031 71.3428 481.933 71.58 481.933 71.7808C481.933 72.5656 480.7 74.4819 479.427 75.6682C476.961 77.9679 474.104 78.7344 470.815 78.0226C469.308 77.6941 468.408 77.2743 467.195 76.3435C465.472 75.0112 464.219 73.0584 463.73 70.9048C463.456 69.7549 463.652 67.1816 464.102 65.9953ZM484.947 35.3337C485.495 33.8919 487.041 33.1254 489.468 33.1254C490.819 33.1436 491.054 33.2166 492.893 34.2204C493.598 34.622 493.911 34.9505 494.4 35.8265L494.87 36.7208L494.44 37.1588C494.087 37.5056 493.794 37.5969 493.05 37.5969C492.247 37.5969 492.11 37.5421 492.11 37.2318C492.11 37.0311 492.013 36.8668 491.915 36.8668C491.797 36.8668 491.719 36.7391 491.719 36.5931C491.719 36.2645 490.877 35.4067 490.564 35.4067C490.447 35.4067 490.408 35.6258 490.466 35.9178C490.525 36.2098 490.447 36.7391 490.271 37.1223C490.016 37.7064 489.879 37.7976 489.527 37.7064C489.272 37.6516 488.959 37.5969 488.822 37.5969C488.666 37.5969 488.587 37.3048 488.587 36.7573C488.587 36.2645 488.47 35.8265 488.294 35.6623C488.039 35.425 487.922 35.4615 487.315 36.0273C486.943 36.374 486.63 36.7573 486.63 36.8668C486.63 37.1953 486.102 37.5969 485.652 37.5969C484.712 37.5969 484.438 36.7208 484.947 35.3337ZM485.397 20.806C485.906 19.7657 486.317 19.346 487.354 18.7984C487.824 18.5612 488.196 18.3057 488.196 18.2144C488.196 18.1231 487.824 17.7034 487.354 17.2654C485.906 15.8783 485.534 15.3855 485.201 14.4182C484.732 13.0859 484.771 10.5125 485.28 8.85168C485.495 8.1399 485.71 7.37337 485.789 7.11785C485.847 6.86234 485.965 6.62508 486.043 6.57033C486.121 6.51557 486.376 6.1323 486.611 5.71253C487.198 4.59923 488.098 3.70493 488.744 3.59543C490.036 3.35817 493.383 4.63573 495.34 6.11405C495.927 6.57033 496.456 6.93534 496.534 6.93534C496.808 6.93534 498.335 8.63268 498.667 9.30796C498.922 9.85548 499.137 10.038 499.47 10.038C499.724 10.038 499.998 9.91024 500.096 9.74598C500.253 9.47221 500.683 9.45396 503.639 9.52697C506.81 9.59998 507.025 9.58173 507.221 9.2532C507.455 8.81519 510.646 5.84029 510.842 5.84029C511.076 5.85854 513.543 4.67223 513.601 4.50797C513.64 4.43497 513.817 4.38022 513.993 4.38022C514.169 4.38022 514.697 4.25246 515.147 4.10645C515.598 3.96045 516.244 3.88744 516.557 3.94219C517.242 4.06995 518.397 5.16501 519.238 6.47907C519.806 7.37337 520.001 7.73838 520.491 8.85168C520.628 9.1437 520.784 10.3483 520.843 11.5163C520.961 14.3635 520.687 15.1483 519.003 16.7726C518.318 17.4296 517.751 18.0136 517.751 18.0684C517.751 18.1231 518.083 18.3604 518.494 18.5977C518.905 18.8349 519.336 19.1634 519.434 19.346C519.532 19.5285 519.786 19.9482 520.001 20.2768C520.334 20.7878 520.393 21.2076 520.393 22.8136C520.373 24.6205 520.334 24.8212 519.63 26.3178C518.671 28.3984 517.712 29.7672 516.107 31.3368C514.913 32.5231 514.736 32.6326 513.308 33.0159C512.466 33.2531 511.213 33.6364 510.528 33.8919C508.728 34.5672 506.124 34.8592 500.938 34.987C497.513 35.06 496.397 35.0417 496.495 34.8957C496.573 34.768 496.514 34.6767 496.377 34.6767C496.221 34.6767 495.634 34.3299 495.046 33.9284C493.755 33.0159 491.739 32.0486 490.545 31.7566C488.861 31.355 485.906 27.9969 485.045 25.5513C484.732 24.6752 484.947 21.7003 485.397 20.806ZM510.059 36.2828C510.47 35.8813 511.331 35.3155 511.977 35.0417C514.345 34.0379 515.089 33.7642 515.813 33.6547C516.518 33.5452 516.615 33.5999 518.025 34.8775C519.336 36.0455 519.512 36.2828 519.512 36.8668C519.512 37.7429 518.729 38.2174 517.574 38.0349C516.889 37.9254 516.772 37.8524 516.772 37.4691C516.772 36.9763 515.97 36.1368 515.5 36.1368C515.089 36.1368 515.128 36.3741 515.598 36.6843C515.813 36.8303 515.989 37.0858 515.989 37.2501C515.989 37.4326 516.107 37.5969 516.224 37.6334C516.674 37.7794 515.852 38.3269 515.206 38.3269C514.208 38.3269 512.72 36.7026 513.484 36.4471C513.621 36.4105 513.68 36.301 513.601 36.228C513.386 36.009 512.857 36.6113 512.857 37.0858C512.857 37.3231 512.681 37.6334 512.466 37.7794C512.251 37.9254 512.075 38.1809 512.075 38.3634C512.075 38.8562 510.685 38.8197 510.313 38.3269C510.156 38.1261 509.882 37.9619 509.687 37.9619C509.06 37.9619 509.256 37.1041 510.059 36.2828ZM522.957 65.7215C523.035 65.2652 523.251 64.7359 523.446 64.5352C523.662 64.3344 523.818 64.0242 523.818 63.8417C523.818 63.2759 526.539 60.9215 527.948 60.2827C533.056 57.9466 538.85 60.2645 540.886 65.466C541.512 67.0173 541.492 69.901 540.886 71.58C539.77 74.5732 537.245 76.7998 534.172 77.4751C530.864 78.1869 528.026 77.4203 525.541 75.1207C524.249 73.9162 523.035 71.9998 523.035 71.1968C523.035 70.996 522.937 70.777 522.82 70.704C522.605 70.5762 522.683 67.4371 522.957 65.7215ZM527.439 33.3261C528.222 29.1649 530.375 25.1862 534.798 19.5832C535.855 18.2509 537.323 16.6083 538.047 15.933C538.772 15.2395 540.22 13.8524 541.257 12.8669C543.528 10.6403 545.191 9.70948 549.4 8.30416C550.965 7.75663 551.533 7.66537 552.903 7.66537C553.862 7.66537 554.547 7.73838 554.547 7.84789C554.547 7.93914 554.684 8.0304 554.841 8.0304C554.997 8.0304 555.291 8.1399 555.467 8.28591C555.663 8.43192 556.211 8.83344 556.7 9.16196C558.736 10.5855 560.106 13.4509 560.067 16.2433C560.047 18.2327 559.617 21.9011 559.401 21.9011C559.323 21.9011 559.245 22.0836 559.245 22.3026C559.245 22.7224 550.378 42.2326 549.967 42.6889C549.674 43.0356 549.713 46.9961 550.026 49.2774C550.378 51.7413 550.32 55.6835 549.928 56.9246C549.145 59.4797 547.56 61.1405 545.955 61.1405C545.524 61.1405 545.25 60.9763 544.8 60.447C543.626 59.0417 542.49 57.3261 541.375 55.3002C537.989 49.0584 533.35 43.8934 529.553 42.0866C528.985 41.8311 528.398 41.6121 528.242 41.6121C528.065 41.6121 527.87 41.32 527.733 40.8273C527.615 40.4075 527.459 39.8782 527.38 39.641C527.087 38.7649 527.126 34.9505 527.439 33.3261ZM546.229 75.2667C547.168 73.7701 549.497 72.1458 552.296 71.0508C554.019 70.3755 554.117 70.3572 556.504 70.3572C558.305 70.3572 559.284 70.4485 560.223 70.704C563.198 71.507 565.625 73.0949 566.506 74.7557C566.878 75.4857 566.917 75.796 566.819 76.9823C566.682 78.7709 566.33 79.2272 564.901 79.5009C564.314 79.6104 563.648 79.7564 563.394 79.8294C563.14 79.9207 562.963 79.8842 562.963 79.7747C562.963 79.6652 562.787 79.5739 562.572 79.5739C562.357 79.5739 562.181 79.4827 562.181 79.3914C562.181 79.2819 562.024 79.2089 561.828 79.2089C561.496 79.2089 561.319 78.8439 560.713 77.0188C560.576 76.5625 560.399 75.9785 560.341 75.6865C560.145 74.8652 559.891 75.1207 559.754 76.307C559.636 77.5116 559.108 78.7891 558.599 79.1907C558.403 79.3184 558.266 79.5557 558.266 79.6834C558.266 79.8294 558.168 79.9389 558.07 79.9389C557.953 79.9389 557.875 79.8659 557.875 79.7929C557.875 79.7017 557.464 79.6834 556.974 79.7564C556.113 79.8842 555.134 79.6652 555.134 79.3367C555.134 79.2637 554.958 79.2089 554.743 79.2089C554.391 79.2089 554.351 79.0812 554.351 77.8401C554.351 77.0553 554.469 76.1975 554.626 75.8325C554.88 75.2667 554.88 75.1937 554.626 75.1937C554.488 75.1937 554.351 75.2667 554.351 75.3762C554.351 75.4675 554.175 75.5587 553.96 75.5587C553.706 75.5587 553.569 75.6865 553.569 75.9238C553.569 76.1245 553.471 76.2888 553.373 76.2888C553.255 76.2888 553.177 76.6173 553.177 77.0188C553.177 77.4021 553.079 77.9131 552.962 78.1504C552.531 79.0629 550.652 79.8294 549.38 79.6469C548.597 79.5192 546.914 78.8256 546.914 78.6249C546.914 78.5519 546.757 78.4789 546.542 78.4789C546.346 78.4789 546.111 78.2964 546.033 78.0591C545.935 77.8401 545.818 77.4933 545.74 77.2926C545.544 76.7998 545.7 76.161 546.229 75.2667Z" fill="#0F7499"/>
<path d="M468.159 66.4363C468.726 68.5717 470.194 70.3055 472.191 71.2363C473.091 71.6561 473.522 71.7291 474.833 71.7291C476.144 71.7291 476.575 71.6561 477.495 71.2363C483.132 68.6447 483.112 60.5778 477.475 57.9861C476.575 57.5846 476.144 57.4933 474.833 57.4933C473.522 57.4933 473.091 57.5846 472.171 58.0044C469.02 59.4279 467.278 63.1146 468.159 66.4363ZM469.744 62.4028C470.292 60.669 472.484 58.8622 474.031 58.8622C474.951 58.8622 476.751 59.7382 477.104 60.3405C477.436 60.9245 477.045 61.5816 476.281 61.7276C475.303 61.9101 474.403 62.8409 474.246 63.8447C474.128 64.5565 474.187 64.8485 474.618 65.615C475.342 66.8926 475.244 68.3526 474.442 68.3526C474.285 68.3526 474.148 68.4256 474.148 68.5352C474.148 68.6264 473.757 68.7177 473.287 68.7177C472.543 68.7177 472.328 68.6082 471.467 67.8416C469.627 66.2173 469.079 64.4652 469.744 62.4028Z" fill="#0F7499"/>
<path d="M489.161 18.2904C489.338 18.7102 489.71 18.546 490.199 17.8159C490.453 17.4144 490.884 17.0129 491.138 16.9034C491.53 16.7209 491.686 16.7756 492.215 17.1771C493.056 17.8342 494.27 18.3452 495.033 18.3452C495.797 18.3452 495.855 18.0714 495.19 17.5787C493.644 16.4471 493.526 14.3117 494.916 12.6509C495.601 11.8296 495.64 11.5193 495.033 11.7019C492.743 12.3771 488.613 17.0129 489.161 18.2904Z" fill="#0F7499"/>
<path d="M487.111 12.6374C487.307 13.7325 487.581 14.426 487.972 14.8458L488.383 15.2838L488.853 14.7363C489.107 14.426 489.323 14.134 489.323 14.0428C489.323 13.7507 491.456 11.9439 492.513 11.3416C493.12 11.0131 493.629 10.6664 493.629 10.5934C493.629 10.5021 493.981 10.4473 494.412 10.4473C494.842 10.4473 495.351 10.3743 495.547 10.2831C496.154 9.97282 497.504 9.71731 497.817 9.82682C498.444 10.0458 498.13 9.37055 497.132 8.36675C495.488 6.68768 492.063 4.71659 489.832 4.18731C488.775 3.9318 488.677 3.9318 488.364 4.22382C487.503 5.02685 486.7 10.4291 487.111 12.6374Z" fill="#0F7499"/>
<path d="M497.985 12.5048C498.298 12.5048 498.963 13.6181 499.159 14.4759C499.394 15.4432 499.14 16.593 498.494 17.3778C498.239 17.6881 498.024 18.0531 498.024 18.1626C498.024 18.5641 499.57 18.1808 500.568 17.542C501.253 17.104 501.821 16.885 502.252 16.885C503.035 16.885 503.132 16.5565 502.486 16.0455C502.271 15.863 501.469 14.9322 500.705 14.0014C499.962 13.0706 499.257 12.2675 499.12 12.2128C498.592 12.0303 497.965 12.0668 497.887 12.2675C497.828 12.3953 497.887 12.5048 497.985 12.5048Z" fill="#0F7499"/>
<path d="M500.023 22.9991C500.375 23.2729 500.865 23.5831 501.1 23.6926C501.354 23.8021 501.55 23.9481 501.55 24.0394C501.55 24.2584 502.979 24.0576 503.938 23.6926C504.349 23.5466 504.681 23.3459 504.681 23.2546C504.681 23.1634 504.857 23.0904 505.073 23.0904C505.288 23.0904 505.464 23.1634 505.464 23.2729C505.464 23.3641 505.64 23.4554 505.856 23.4554C506.071 23.4554 506.247 23.5284 506.247 23.6379C506.247 23.7291 506.423 23.8204 506.639 23.8204C506.854 23.8204 507.03 23.8934 507.03 24.0029C507.03 24.4227 508.948 24.0394 509.653 23.4736C510.162 23.0539 510.612 22.1596 510.416 21.9771C510.318 21.8858 509.927 22.1596 509.516 22.6341C508.831 23.3824 508.694 23.4554 507.911 23.4554C507.422 23.4554 507.03 23.3641 507.03 23.2729C507.03 23.1634 506.893 23.0904 506.717 23.0904C506.325 23.0904 505.914 22.6888 505.64 22.0501L505.425 21.5391L504.799 22.2326C504.094 23.0174 503.292 23.4554 502.567 23.4554C501.882 23.4554 500.415 22.7801 500.16 22.3421C499.945 21.9406 499.397 21.8676 499.397 22.2508C499.397 22.3968 499.69 22.7254 500.023 22.9991Z" fill="#0F7499"/>
<path d="M502.508 19.0387C502.704 19.2577 502.997 19.4402 503.134 19.4402C503.291 19.4402 503.545 19.6045 503.702 19.8052C503.858 20.006 504.113 20.1702 504.269 20.1702C504.406 20.1702 504.7 20.3345 504.896 20.5535C505.248 20.9368 505.248 20.9368 506.52 19.7322C507.871 18.4729 508.125 18.0349 507.362 18.2904C507.127 18.3634 505.855 18.4364 504.524 18.4364C503.212 18.4364 502.136 18.4912 502.136 18.5459C502.136 18.6007 502.293 18.8379 502.508 19.0387Z" fill="#0F7499"/>
<path d="M507.697 16.7025C508.127 16.7025 508.695 16.9216 509.38 17.3596C510.378 17.9984 511.924 18.3816 511.924 17.9801C511.924 17.8706 511.709 17.5056 511.455 17.1953C510.809 16.4105 510.554 15.2607 510.789 14.2934C510.985 13.4539 511.611 12.3953 511.983 12.2676C512.492 12.0851 511.826 11.7748 511.239 11.9208C510.809 12.0303 510.3 12.5048 509.419 13.6181C508.734 14.4577 507.931 15.4067 507.599 15.6987C506.855 16.4288 506.875 16.7025 507.697 16.7025Z" fill="#0F7499"/>
<path d="M511.409 9.22956C512.192 9.41207 513.092 9.61283 513.405 9.66758C513.718 9.72233 514.168 9.92309 514.384 10.1239C514.619 10.3064 515.167 10.6896 515.617 10.9634C516.067 11.2372 517.143 12.095 518.024 12.8615C518.905 13.6463 519.747 14.2851 519.903 14.2851C520.275 14.2851 520.686 13.4638 520.98 12.1497C521.175 11.2554 521.175 10.6896 520.999 9.37557C520.764 7.71473 519.923 5.21435 519.335 4.37481C519.042 3.95504 518.944 3.93679 518.161 4.0828C516.869 4.30181 515.03 5.0501 513.346 6.0174C511.78 6.92994 509.999 8.35351 509.999 8.70028C509.999 8.80979 510.645 9.04705 511.409 9.22956Z" fill="#0F7499"/>
<path d="M514.897 18.1626C515.68 18.1626 516.893 17.6516 517.735 16.9945C518.263 16.593 518.42 16.5383 518.811 16.7208C519.066 16.8303 519.496 17.2318 519.751 17.6333C520.573 18.8744 521.199 18.3451 520.553 16.958C519.516 14.7862 516.678 12.0303 514.897 11.5193C514.309 11.3368 514.349 11.647 515.034 12.4683C516.423 14.1292 516.306 16.2645 514.76 17.3961C514.094 17.8888 514.153 18.1626 514.897 18.1626Z" fill="#0F7499"/>
<path d="M527.386 65.7062C527.836 67.7686 529.461 69.7579 531.477 70.6887C532.397 71.1085 532.827 71.1815 534.139 71.1815C535.45 71.1815 535.881 71.1085 536.781 70.6887C541.459 68.5351 542.476 62.5123 538.797 58.8439C537.466 57.5116 536.076 56.9458 534.139 56.9458C532.827 56.9458 532.397 57.037 531.496 57.4386C528.365 58.8804 526.662 62.3116 527.386 65.7062ZM531.888 59.7564C532.221 59.1724 534.041 58.3146 534.941 58.3146C536.526 58.3146 538.699 60.1214 539.267 61.9465C539.873 63.8994 539.267 65.7427 537.505 67.2941C536.644 68.0606 536.429 68.1701 535.685 68.1701C535.215 68.1701 534.824 68.0789 534.824 67.9876C534.824 67.8781 534.687 67.8051 534.53 67.8051C533.728 67.8051 533.63 66.345 534.354 65.0675C535.059 63.8264 534.902 62.6948 533.904 61.837C533.532 61.5085 533.062 61.2348 532.847 61.2348C532.455 61.2348 531.692 60.6325 531.692 60.304C531.692 60.1945 531.79 59.9572 531.888 59.7564Z" fill="#0F7499"/>
<path d="M494.777 73.1891C495.208 74.4666 495.814 75.3609 496.793 76.2005C498.085 77.3138 498.437 77.478 499.611 77.478C500.923 77.478 501.96 76.7662 502.41 75.5434C502.704 74.7586 502.684 74.6856 502.332 74.3206C502.117 74.1199 501.941 73.7913 501.941 73.6088C501.941 73.4081 501.725 73.0613 501.451 72.824C501.099 72.4773 500.766 72.3678 500.081 72.3678C498.907 72.3678 498.926 72.6963 500.179 73.8278C500.708 74.3206 501.158 74.8134 501.158 74.9229C501.158 75.2149 500.238 76.018 499.885 76.018C499.729 76.018 499.592 75.9267 499.592 75.8354C499.592 75.7259 499.455 75.6529 499.298 75.6529C498.907 75.6529 497.243 74.1016 497.243 73.7366C497.243 73.5906 497.145 73.4628 497.047 73.4628C496.773 73.4628 496.813 72.7875 497.087 72.6598C497.282 72.5685 497.282 72.532 497.087 72.4408C496.676 72.2583 496.832 71.8385 497.537 71.1815C498.202 70.5609 498.241 70.5427 499.827 70.5427C501.236 70.5427 501.51 70.5974 501.745 70.9077C501.901 71.1085 502.175 71.2727 502.371 71.2727C502.567 71.2727 502.724 71.4005 502.724 71.5465C502.724 71.7107 502.9 72.0028 503.115 72.2218C503.311 72.4225 503.585 73.0613 503.702 73.6271C503.82 74.1929 503.976 74.9412 504.054 75.2879C504.152 75.7624 504.309 75.945 504.622 75.9815C505.033 76.0362 505.072 75.9632 505.072 75.3062C505.072 74.8864 505.151 74.5579 505.268 74.5579C505.366 74.5579 505.464 74.3024 505.464 74.0104C505.464 73.7001 505.542 73.4628 505.659 73.4628C505.757 73.4628 505.855 73.2073 505.855 72.9153C505.855 72.4955 505.933 72.3678 506.247 72.3678C506.481 72.3678 506.638 72.24 506.638 72.0758C506.638 71.729 507.108 71.2727 507.46 71.2727C507.617 71.2727 507.852 71.1085 508.008 70.9077C508.243 70.5974 508.517 70.5427 509.731 70.5427C510.983 70.5427 511.218 70.5974 511.629 70.999C512.06 71.4005 512.118 71.583 512.118 72.9153C512.118 74.2476 512.06 74.4301 511.629 74.8316C511.218 75.2332 510.983 75.2879 509.868 75.2879H508.595V74.5579C508.595 73.9739 508.674 73.8278 508.948 73.8278C509.143 73.8278 509.417 73.6636 509.574 73.4628C509.731 73.2621 510.005 73.0978 510.2 73.0978C510.416 73.0978 510.553 72.9701 510.553 72.7328C510.553 72.4225 510.416 72.3678 509.574 72.3678C509.026 72.3678 508.595 72.4408 508.595 72.5503C508.595 72.6415 508.419 72.7328 508.204 72.7328C507.949 72.7328 507.812 72.8606 507.812 73.0613C507.812 73.2438 507.636 73.4993 507.441 73.6271C507.166 73.8096 507.029 74.2111 506.932 74.9594C506.814 75.9267 506.834 76.091 507.245 76.4925C507.93 77.1678 508.752 77.478 509.907 77.478C511.335 77.478 512.079 77.1495 513.038 76.091C514.408 74.5396 514.937 73.3898 514.937 71.8203C514.956 70.6339 514.878 70.2872 514.33 69.2651C513.254 67.2028 511.551 65.834 508.634 64.6294C505.405 63.3153 502.704 63.3336 499.748 64.7024C497.615 65.688 495.071 67.8963 494.699 69.0826C494.425 69.9587 494.483 72.2948 494.777 73.1891ZM500.062 66.0347C501.96 64.8302 504.955 64.5199 506.99 65.3047C508.145 65.761 509.75 66.856 509.77 67.221C509.77 67.6225 508.83 68.3526 508.302 68.3526C508.028 68.3526 507.812 68.4256 507.812 68.5351C507.812 68.6263 507.617 68.7176 507.362 68.7176C507.108 68.7176 506.795 68.8271 506.658 68.9366C506.325 69.2651 501.706 69.2651 501.588 68.9366C501.549 68.8089 501.393 68.7176 501.236 68.7176C500.884 68.7176 498.985 67.0568 499.063 66.8195C499.103 66.71 499.553 66.345 500.062 66.0347Z" fill="#0F7499"/>
</svg>
