<svg width="728" height="116" viewBox="0 0 728 110" fill="none" xmlns="http://www.w3.org/2000/svg">
<path d="M0.998438 0.5C0.998438 0.7 4.59844 3.6 9.09844 6.7C13.5984 9.9 21.5984 15.6 26.9984 19.5C32.3984 23.3 46.7984 33.6 58.9984 42.3L81.0984 58.1L69.7984 66.2C63.5984 70.7 56.2984 76 53.4984 78C50.7984 80 37.7984 89.3 24.6984 98.6L0.898438 115.5L182.498 115.8C282.298 115.9 445.698 115.9 545.598 115.8L727.198 115.5L722.398 112.1C719.798 110.2 714 106.5 712.5 105.5C711.3 105.4 716 109.6 716 109C715.5 107.5 707.9 101.1 707 102C706.6 102.4 710.198 105.5 710.998 106C711.898 106.6 711.7 104.5 711 104.5C709.7 104.5 712.8 107.7 712.5 105.5C712.3 104.8 707.298 101.2 706.298 100.5C684.498 84.7 650.598 59.2 650.298 58.4C650.098 57.8 658.198 51.3 668.198 44C702.898 18.7 726.998 0.800002 726.998 0.400002C726.998 0.200002 563.698 0 363.998 0C164.398 0 0.998438 0.2 0.998438 0.5ZM134.198 86.7C135.598 87.9 135.998 89.8 135.998 94.7C135.998 98.2 136.498 102 136.998 103.1C137.798 104.6 137.698 105 136.498 105C135.698 105 134.998 104.6 134.998 104.1C134.998 103.6 133.698 103.8 131.998 104.6C127.198 107 121.998 104.5 121.998 99.7C121.998 96.6 124.898 94.1 129.398 93.3C132.398 92.8 132.998 92.3 132.998 90.2C132.998 87.9 132.798 87.8 128.498 88.2C123.698 88.8 122.498 87.5 126.298 86C129.698 84.6 132.198 84.8 134.198 86.7ZM421.898 85.4C421.698 85.6 420.198 86 418.498 86.4C416.298 86.9 415.898 86.8 416.998 86C418.398 85.1 422.898 84.5 421.898 85.4ZM428.498 89.3C428.798 90.5 428.698 92.7 428.198 94C427.398 96.2 427.198 96 426.898 91.7C426.498 86.8 427.498 85.3 428.498 89.3ZM422.798 94.9C417.898 95.9 415.998 97.6 415.998 101C415.998 104.8 420.498 106 424.998 103.3C427.698 101.7 428.198 101.7 428.998 103C430.498 105.4 430.098 106.6 428.498 104.4C427.498 103.1 426.798 102.9 426.298 103.6C424.398 106.4 415.698 106.4 414.698 103.7C414.498 103 414.498 101.1 414.698 99.3C415.298 95.8 418.098 94.1 423.498 94.2C426.198 94.2 426.198 94.3 422.798 94.9Z" fill="white"/>
<rect x="98" y="66" width="357" height="44" fill="white"/>
</svg>
