<svg width="598" height="168" viewBox="0 0 598 168" fill="none" xmlns="http://www.w3.org/2000/svg">
<path d="M2.5 101C2.5 91.335 10.335 83.5 20 83.5L578 83.5C587.665 83.5 595.5 91.335 595.5 101L595.5 148C595.5 157.665 587.665 165.5 578 165.5L20 165.5C10.335 165.5 2.5 157.665 2.5 148L2.5 101Z" fill="#0F7499" stroke="#0F7499" stroke-width="5"/>
<path d="M429.27 78.6614C429.759 80.4134 430.973 81.4537 433.341 82.1473C433.948 82.3115 438.43 82.3845 452.346 82.4393L470.568 82.5305L470.999 81.3625C471.821 79.2454 472.975 77.2925 474.013 76.2522C475.226 75.0659 477.007 73.7336 477.399 73.7336C477.555 73.7336 477.673 73.6606 477.673 73.5694C477.673 73.4051 483.349 70.6675 484.523 70.2659C485.893 69.8097 489.279 68.2036 489.886 67.7291C490.219 67.4736 490.826 66.9443 491.217 66.561C492.666 65.2104 492.587 65.9952 492.568 53.6759C492.548 43.3276 492.568 42.5246 492.92 41.2835C493.351 39.7687 493.742 39.1299 494.407 38.8379C495.601 38.3451 496.619 39.5679 497.324 42.3421C497.774 44.1124 498.028 49.8067 498.028 57.9101L498.028 65.1192L498.694 65.9405C499.066 66.3785 499.457 66.9078 499.555 67.1085C499.849 67.6013 501.747 68.5139 503.509 68.9884C504.311 69.2256 505.055 69.4629 505.172 69.5359C505.27 69.6089 506.21 69.8827 507.228 70.1564C509.478 70.7587 512.61 72.1093 513.178 72.7298C513.413 72.9853 513.745 73.1861 513.921 73.1861C514.098 73.1861 515.057 73.9526 516.074 74.8652C517.914 76.5808 518.775 77.5481 518.775 77.9131C518.775 78.0408 518.932 78.2963 519.147 78.4971C519.343 78.6979 519.813 79.7017 520.165 80.7055L520.831 82.5488L534.531 82.421C542.067 82.3663 549.641 82.2203 551.364 82.129C553.086 82.0195 555.455 81.91 556.648 81.8553C557.823 81.8005 559.056 81.7093 559.389 81.6545C560.837 81.3625 562.168 80.3769 562.696 79.1724C563.088 78.3146 563.107 76.161 562.716 74.8287C562.364 73.5694 561.424 71.8903 560.935 71.653C560.739 71.5435 560.465 71.3245 560.328 71.1602C559.154 69.7184 557.373 68.6964 555.102 68.1671C551.442 67.3275 545.747 68.2401 540.912 70.4302C540.207 70.7405 539.62 70.996 539.581 70.996C539.542 70.996 539.522 69.8462 539.522 68.4591L539.522 65.904L540.951 65.2652C543.691 64.0424 546.295 61.323 547.195 58.7861C547.567 57.6911 547.606 57.1435 547.645 52.9276C547.665 48.0911 547.723 47.6348 548.722 43.9481C548.956 43.1451 549.348 42.1596 549.622 41.7763C549.896 41.3748 550.072 40.9915 550.013 40.9002C549.955 40.8272 550.483 39.6592 551.188 38.3086C555.376 30.333 558.195 23.5801 559.213 19.1087C559.526 17.6668 559.584 15.7688 559.291 15.6045C559.173 15.5497 559.095 15.3125 559.095 15.0935C559.095 14.5094 558.019 11.3703 557.314 9.92846C556.12 7.42809 554.789 5.6395 552.343 3.30338C551.051 2.06232 549.602 0.803009 549.133 0.511002C548.271 -3.00958e-05 548.213 -3.00941e-05 545.355 -3.00122e-05C542.771 -2.99383e-05 542.38 0.0364691 541.578 0.40149C541.088 0.620499 540.697 0.876015 540.697 0.949021C540.697 1.02203 540.149 1.35053 539.464 1.66081C537.663 2.50034 535.158 4.08817 533.807 5.25623C532.359 6.51554 530.617 8.52314 526.585 13.5969C523.336 17.6668 521.927 19.6379 519.46 23.4524C518.638 24.7482 517.895 25.8615 517.816 25.9163C517.738 25.971 517.621 26.1535 517.542 26.3178C517.484 26.5003 516.818 27.4858 516.074 28.5079C515.35 29.5482 514.137 31.2638 513.413 32.3406C512.669 33.4356 511.945 34.3117 511.788 34.3117C511.455 34.3117 510.946 33.8736 510.946 33.5816C510.946 33.4721 511.592 32.7786 512.356 32.0486C513.882 30.6432 514.783 29.3657 515.605 27.5223C516.27 25.971 516.446 22.7041 515.937 21.0798C515.546 19.7657 514.861 18.5064 514.176 17.7216L513.647 17.1558L514.293 16.444C515.898 14.7649 516.799 12.6661 516.818 10.6585C516.818 8.12162 516.133 6.5703 513.706 3.57715C512.845 2.53685 512.003 1.38704 511.847 1.02202C511.475 0.200731 511.22 0.182481 509.185 0.985521C504.801 2.71935 499.986 5.87676 499.144 7.6106C499.007 7.92086 498.85 8.01212 498.635 7.92086C498.459 7.84786 497.05 7.73836 495.484 7.70185L492.666 7.62885L491.648 6.66155C491.1 6.11403 489.827 5.18323 488.81 4.56269C486.637 3.26688 481 0.547503 480.452 0.547503C480.159 0.547503 479.708 1.16802 478.534 3.13912C476.322 6.91706 475.97 7.59235 475.5 9.21668C474.776 11.7353 475.187 13.9802 476.733 15.7688L477.36 16.4805L476.89 17.2288C475.442 19.5832 474.874 20.7512 474.62 21.9376C474.013 24.5474 474.757 27.3398 476.812 30.2417L478.045 31.9938L477.673 32.5048C477.458 32.7786 477.066 33.4356 476.792 33.9649C476.401 34.7679 476.303 34.8774 476.185 34.5672C475.148 31.9208 473.504 29.2014 469.785 23.9999C468.924 22.7954 467.515 20.9338 466.673 19.857C465.831 18.7802 465.146 17.8494 465.146 17.7946C465.146 17.7399 464.97 17.5208 464.774 17.3018C464.559 17.0646 463.267 15.5315 461.878 13.8707C460.508 12.2281 458.57 10.111 457.611 9.18018C455.928 7.5741 451.72 4.19768 451.406 4.19768C451.328 4.19768 451.25 4.08818 451.25 3.94216C451.25 3.81441 450.604 3.43114 449.821 3.08438C448.549 2.5186 448.236 2.46385 446.65 2.46385C443.969 2.46385 443.029 2.95662 439.78 6.05928C436.355 9.34444 434.828 11.7171 433.419 15.933C432.812 17.7216 432.793 17.8494 432.91 20.2402C433.106 24.7664 434.75 29.4387 438.919 37.2318C439.741 38.7831 440.524 40.3527 440.681 40.6995C440.818 41.0463 441.444 42.3603 442.07 43.6196C443.245 46.0287 444.399 49.0401 444.869 50.9565C445.084 51.7778 445.163 53.3291 445.163 56.3223C445.163 58.9504 445.241 60.8485 445.378 61.3413C445.848 62.9838 446.983 64.6447 448.725 66.269L450.408 67.8386L450.252 68.7329C450.173 69.2256 450.095 70.2477 450.095 70.996L450.075 72.3465L449.038 71.434C446.337 68.9701 443.303 67.9116 439.643 68.1306C436.198 68.3313 433.341 69.6272 430.562 72.2188C429.172 73.5146 428.624 76.307 429.27 78.6614ZM432.656 76.1062C432.871 75.7047 433.047 75.3032 433.047 75.2119C433.047 74.9929 433.38 74.5914 434.476 73.4416C435.807 72.0545 438.449 71.0325 440.974 70.9595C442.305 70.923 445.182 71.1785 445.182 71.3427C445.182 71.4158 445.691 71.6713 446.298 71.9085C447.903 72.5291 449.801 74.3359 450.721 76.1245C451.68 77.9678 451.7 78.8621 450.819 79.7017C450.252 80.2492 450.075 80.3039 449.077 80.3039C447.374 80.3039 447.061 80.1032 446.552 78.6796C446.063 77.329 445.28 75.796 444.889 75.4309C444.732 75.3032 444.399 75.1937 444.125 75.1937L443.636 75.1937L444.008 75.9602C444.497 76.964 444.517 78.4058 444.047 79.0629C442.971 80.596 441.463 80.6872 439.996 79.3184C439.663 78.9899 439.604 78.7161 439.624 77.256L439.643 75.5587L439.095 75.5587C438.547 75.5587 438.332 75.8325 438.332 76.5625C438.332 78.3693 437.314 80.0119 436.061 80.2309C435.2 80.3769 433.674 79.9937 433.145 79.5009C432.206 78.6066 432.01 77.2743 432.656 76.1062ZM439.526 17.1558C440.074 15.2942 440.896 13.9984 442.442 12.5748C444.028 11.1148 445.182 10.6585 446.924 10.8228C448.412 10.9505 449.762 11.5345 452.639 13.3231C459.314 17.4661 462.641 20.7513 465.792 26.2813C467.534 29.3109 468.004 30.6615 468.552 34.1839C469.492 40.0972 469.257 41.2653 466.79 43.4371C463.815 46.047 459.979 49.9527 458.864 51.5223C457.513 53.4204 456.437 55.3185 455.262 57.9648C454.381 59.9542 453.579 61.0857 452.874 61.3413C451.857 61.688 450.369 60.6112 449.469 58.8591C448.823 57.6181 448.784 56.742 449.097 52.3801C449.449 47.6713 448.647 43.9481 446.278 39.1117C445.691 37.9253 444.81 36.301 444.321 35.498C443.812 34.6949 443.284 33.6729 443.108 33.2166C442.931 32.7603 442.677 32.1398 442.52 31.8478C442.031 30.7892 441.013 28.1794 440.074 25.5512C439.154 22.9779 439.115 22.8501 439.115 20.7147C439.115 19.0357 439.213 18.1961 439.526 17.1558ZM457.102 65.9952C458.648 61.8705 463.013 59.3154 467.339 60.0089C469.413 60.3375 471.057 61.177 472.721 62.7283C473.504 63.4584 474.15 64.2066 474.15 64.3892C474.15 64.5717 474.306 64.8819 474.522 65.0827C474.952 65.5207 475.089 66.3237 475.246 69.0431C475.324 70.3937 475.305 71.0872 475.148 71.2332C475.031 71.3427 474.933 71.58 474.933 71.7808C474.933 72.5656 473.7 74.4819 472.427 75.6682C469.961 77.9678 467.104 78.7344 463.815 78.0226C462.308 77.6941 461.408 77.2743 460.195 76.3435C458.472 75.0112 457.219 73.0583 456.73 70.9047C456.456 69.7549 456.652 67.1815 457.102 65.9952ZM477.947 35.3337C478.495 33.8919 480.041 33.1254 482.468 33.1254C483.819 33.1436 484.054 33.2166 485.893 34.2204C486.598 34.6219 486.911 34.9504 487.4 35.8265L487.87 36.7208L487.44 37.1588C487.087 37.5056 486.794 37.5968 486.05 37.5968C485.247 37.5968 485.11 37.5421 485.11 37.2318C485.11 37.0311 485.013 36.8668 484.915 36.8668C484.797 36.8668 484.719 36.739 484.719 36.593C484.719 36.2645 483.877 35.4067 483.564 35.4067C483.447 35.4067 483.408 35.6257 483.466 35.9177C483.525 36.2098 483.447 36.739 483.271 37.1223C483.016 37.7063 482.879 37.7976 482.527 37.7063C482.272 37.6516 481.959 37.5968 481.822 37.5968C481.666 37.5968 481.587 37.3048 481.587 36.7573C481.587 36.2645 481.47 35.8265 481.294 35.6622C481.039 35.425 480.922 35.4615 480.315 36.0273C479.943 36.374 479.63 36.7573 479.63 36.8668C479.63 37.1953 479.102 37.5968 478.652 37.5968C477.712 37.5968 477.438 36.7208 477.947 35.3337ZM478.397 20.806C478.906 19.7657 479.317 19.3459 480.354 18.7984C480.824 18.5611 481.196 18.3056 481.196 18.2144C481.196 18.1231 480.824 17.7033 480.354 17.2653C478.906 15.8783 478.534 15.3855 478.201 14.4182C477.732 13.0859 477.771 10.5125 478.28 8.85166C478.495 8.13987 478.71 7.37334 478.789 7.11782C478.847 6.86231 478.965 6.62505 479.043 6.5703C479.121 6.51554 479.376 6.13227 479.611 5.7125C480.198 4.5992 481.098 3.7049 481.744 3.5954C483.036 3.35814 486.383 4.63571 488.34 6.11402C488.927 6.5703 489.456 6.93531 489.534 6.93531C489.808 6.93531 491.335 8.63265 491.667 9.30793C491.922 9.85546 492.137 10.038 492.47 10.038C492.724 10.038 492.998 9.91021 493.096 9.74595C493.253 9.47219 493.683 9.45394 496.639 9.52694C499.81 9.59995 500.025 9.5817 500.221 9.25318C500.455 8.81516 503.646 5.84027 503.842 5.84027C504.076 5.85851 506.543 4.6722 506.601 4.50794C506.64 4.43494 506.817 4.38019 506.993 4.38019C507.169 4.38019 507.697 4.25243 508.147 4.10642C508.598 3.96042 509.244 3.88741 509.557 3.94216C510.242 4.06992 511.397 5.16498 512.238 6.47904C512.806 7.37334 513.001 7.73835 513.491 8.85166C513.628 9.14367 513.784 10.3482 513.843 11.5163C513.961 14.3634 513.687 15.1482 512.003 16.7726C511.318 17.4296 510.751 18.0136 510.751 18.0684C510.751 18.1231 511.083 18.3604 511.494 18.5976C511.905 18.8349 512.336 19.1634 512.434 19.3459C512.532 19.5284 512.786 19.9482 513.001 20.2767C513.334 20.7878 513.393 21.2075 513.393 22.8136C513.373 24.6204 513.334 24.8212 512.63 26.3178C511.671 28.3984 510.712 29.7672 509.107 31.3368C507.913 32.5231 507.736 32.6326 506.308 33.0159C505.466 33.2531 504.213 33.6364 503.528 33.8919C501.728 34.5672 499.124 34.8592 493.938 34.987C490.513 35.06 489.397 35.0417 489.495 34.8957C489.573 34.7679 489.514 34.6767 489.377 34.6767C489.221 34.6767 488.634 34.3299 488.046 33.9284C486.755 33.0159 484.739 32.0486 483.545 31.7565C481.861 31.355 478.906 27.9969 478.045 25.5512C477.732 24.6752 477.947 21.7003 478.397 20.806ZM503.059 36.2828C503.47 35.8812 504.331 35.3155 504.977 35.0417C507.345 34.0379 508.089 33.7641 508.813 33.6546C509.518 33.5451 509.615 33.5999 511.025 34.8774C512.336 36.0455 512.512 36.2828 512.512 36.8668C512.512 37.7428 511.729 38.2174 510.574 38.0349C509.889 37.9253 509.772 37.8523 509.772 37.4691C509.772 36.9763 508.97 36.1368 508.5 36.1368C508.089 36.1368 508.128 36.374 508.598 36.6843C508.813 36.8303 508.989 37.0858 508.989 37.2501C508.989 37.4326 509.107 37.5968 509.224 37.6333C509.674 37.7793 508.852 38.3269 508.206 38.3269C507.208 38.3269 505.72 36.7025 506.484 36.447C506.621 36.4105 506.68 36.301 506.601 36.228C506.386 36.009 505.857 36.6113 505.857 37.0858C505.857 37.3231 505.681 37.6333 505.466 37.7793C505.251 37.9253 505.075 38.1809 505.075 38.3634C505.075 38.8561 503.685 38.8196 503.313 38.3269C503.156 38.1261 502.882 37.9618 502.687 37.9618C502.06 37.9618 502.256 37.1041 503.059 36.2828ZM515.957 65.7215C516.035 65.2652 516.251 64.7359 516.446 64.5352C516.662 64.3344 516.818 64.0241 516.818 63.8416C516.818 63.2758 519.539 60.9215 520.948 60.2827C526.056 57.9466 531.85 60.2644 533.886 65.466C534.512 67.0173 534.492 69.9009 533.886 71.58C532.77 74.5732 530.245 76.7998 527.172 77.475C523.864 78.1868 521.026 77.4203 518.541 75.1207C517.249 73.9161 516.035 71.9998 516.035 71.1967C516.035 70.996 515.937 70.777 515.82 70.704C515.605 70.5762 515.683 67.4371 515.957 65.7215ZM520.439 33.3261C521.222 29.1649 523.375 25.1862 527.798 19.5832C528.855 18.2509 530.323 16.6083 531.047 15.933C531.772 15.2395 533.22 13.8524 534.257 12.8669C536.528 10.6403 538.191 9.70945 542.4 8.30413C543.965 7.7566 544.533 7.66534 545.903 7.66534C546.862 7.66534 547.547 7.73835 547.547 7.84786C547.547 7.93911 547.684 8.03037 547.841 8.03037C547.997 8.03037 548.291 8.13987 548.467 8.28588C548.663 8.43189 549.211 8.83341 549.7 9.16193C551.736 10.5855 553.106 13.4509 553.067 16.2433C553.047 18.2326 552.617 21.9011 552.401 21.9011C552.323 21.9011 552.245 22.0836 552.245 22.3026C552.245 22.7223 543.378 42.2326 542.967 42.6888C542.674 43.0356 542.713 46.996 543.026 49.2774C543.378 51.7413 543.32 55.6835 542.928 56.9245C542.145 59.4797 540.56 61.1405 538.955 61.1405C538.524 61.1405 538.25 60.9762 537.8 60.447C536.626 59.0416 535.49 57.3261 534.375 55.3002C530.989 49.0584 526.35 43.8934 522.553 42.0865C521.985 41.831 521.398 41.612 521.242 41.612C521.065 41.612 520.87 41.32 520.733 40.8272C520.615 40.4075 520.459 39.8782 520.38 39.6409C520.087 38.7649 520.126 34.9504 520.439 33.3261ZM539.229 75.2667C540.168 73.7701 542.497 72.1458 545.296 71.0507C547.019 70.3754 547.117 70.3572 549.504 70.3572C551.305 70.3572 552.284 70.4485 553.223 70.704C556.198 71.507 558.625 73.0948 559.506 74.7557C559.878 75.4857 559.917 75.796 559.819 76.9823C559.682 78.7709 559.33 79.2271 557.901 79.5009C557.314 79.6104 556.648 79.7564 556.394 79.8294C556.14 79.9207 555.963 79.8842 555.963 79.7747C555.963 79.6652 555.787 79.5739 555.572 79.5739C555.357 79.5739 555.181 79.4826 555.181 79.3914C555.181 79.2819 555.024 79.2089 554.828 79.2089C554.496 79.2089 554.319 78.8439 553.713 77.0188C553.576 76.5625 553.399 75.9785 553.341 75.6865C553.145 74.8652 552.891 75.1207 552.754 76.307C552.636 77.5115 552.108 78.7891 551.599 79.1906C551.403 79.3184 551.266 79.5557 551.266 79.6834C551.266 79.8294 551.168 79.9389 551.07 79.9389C550.953 79.9389 550.875 79.8659 550.875 79.7929C550.875 79.7017 550.464 79.6834 549.974 79.7564C549.113 79.8842 548.134 79.6652 548.134 79.3366C548.134 79.2636 547.958 79.2089 547.743 79.2089C547.391 79.2089 547.351 79.0811 547.351 77.8401C547.351 77.0553 547.469 76.1975 547.626 75.8325C547.88 75.2667 547.88 75.1937 547.626 75.1937C547.488 75.1937 547.351 75.2667 547.351 75.3762C547.351 75.4674 547.175 75.5587 546.96 75.5587C546.706 75.5587 546.569 75.6865 546.569 75.9237C546.569 76.1245 546.471 76.2887 546.373 76.2887C546.255 76.2887 546.177 76.6173 546.177 77.0188C546.177 77.402 546.079 77.9131 545.962 78.1503C545.531 79.0629 543.652 79.8294 542.38 79.6469C541.597 79.5191 539.914 78.8256 539.914 78.6249C539.914 78.5519 539.757 78.4788 539.542 78.4788C539.346 78.4788 539.111 78.2963 539.033 78.0591C538.935 77.8401 538.818 77.4933 538.74 77.2925C538.544 76.7998 538.7 76.161 539.229 75.2667Z" fill="#0F7499"/>
<path d="M459.159 67.4363C459.726 69.5716 461.194 71.3055 463.191 72.2363C464.091 72.656 464.522 72.729 465.833 72.729C467.144 72.729 467.575 72.656 468.495 72.2363C474.132 69.6446 474.112 61.5777 468.475 58.9861C467.575 58.5846 467.144 58.4933 465.833 58.4933C464.522 58.4933 464.091 58.5846 463.171 59.0043C460.02 60.4279 458.278 64.1146 459.159 67.4363ZM460.744 63.4028C461.292 61.669 463.484 59.8621 465.031 59.8621C465.951 59.8621 467.751 60.7382 468.104 61.3405C468.436 61.9245 468.045 62.5815 467.281 62.7275C466.303 62.91 465.403 63.8408 465.246 64.8446C465.128 65.5564 465.187 65.8484 465.618 66.615C466.342 67.8925 466.244 69.3526 465.442 69.3526C465.285 69.3526 465.148 69.4256 465.148 69.5351C465.148 69.6264 464.757 69.7176 464.287 69.7176C463.543 69.7176 463.328 69.6081 462.467 68.8416C460.627 67.2173 460.079 65.4652 460.744 63.4028Z" fill="#0F7499"/>
<path d="M480.161 19.2904C480.338 19.7102 480.71 19.5459 481.199 18.8159C481.453 18.4144 481.884 18.0128 482.138 17.9033C482.53 17.7208 482.686 17.7756 483.215 18.1771C484.056 18.8341 485.27 19.3452 486.033 19.3452C486.797 19.3452 486.855 19.0714 486.19 18.5786C484.644 17.4471 484.526 15.3117 485.916 13.6509C486.601 12.8296 486.64 12.5193 486.033 12.7018C483.743 13.3771 479.613 18.0128 480.161 19.2904Z" fill="#0F7499"/>
<path d="M480.162 9.85461C480.358 10.9497 480.632 11.6432 481.023 12.063L481.434 12.501L481.904 11.9535C482.158 11.6432 482.374 11.3512 482.374 11.2599C482.374 10.9679 484.507 9.16108 485.564 8.5588C486.171 8.23028 486.68 7.88352 486.68 7.81052C486.68 7.71926 487.032 7.66451 487.462 7.66451C487.893 7.66451 488.402 7.59151 488.598 7.50025C489.204 7.18999 490.555 6.93448 490.868 7.04398C491.494 7.26299 491.181 6.58771 490.183 5.58392C488.539 3.90484 485.114 1.93375 482.882 1.40448C481.826 1.14897 481.728 1.14897 481.415 1.44098C480.553 2.24402 479.751 7.64626 480.162 9.85461Z" fill="#0F7499"/>
<path d="M488.985 13.5048C489.298 13.5048 489.963 14.6181 490.159 15.4759C490.394 16.4432 490.14 17.593 489.494 18.3778C489.239 18.688 489.024 19.053 489.024 19.1625C489.024 19.5641 490.57 19.1808 491.568 18.542C492.253 18.104 492.821 17.885 493.252 17.885C494.035 17.885 494.132 17.5565 493.486 17.0454C493.271 16.8629 492.469 15.9321 491.705 15.0013C490.962 14.0705 490.257 13.2675 490.12 13.2128C489.592 13.0302 488.965 13.0667 488.887 13.2675C488.828 13.3953 488.887 13.5048 488.985 13.5048Z" fill="#0F7499"/>
<path d="M491.023 23.9991C491.375 24.2728 491.865 24.5831 492.1 24.6926C492.354 24.8021 492.55 24.9481 492.55 25.0394C492.55 25.2584 493.979 25.0576 494.938 24.6926C495.349 24.5466 495.681 24.3458 495.681 24.2546C495.681 24.1633 495.857 24.0903 496.073 24.0903C496.288 24.0903 496.464 24.1633 496.464 24.2728C496.464 24.3641 496.64 24.4553 496.856 24.4553C497.071 24.4553 497.247 24.5283 497.247 24.6379C497.247 24.7291 497.423 24.8204 497.639 24.8204C497.854 24.8204 498.03 24.8934 498.03 25.0029C498.03 25.4226 499.948 25.0394 500.653 24.4736C501.162 24.0538 501.612 23.1596 501.416 22.977C501.318 22.8858 500.927 23.1596 500.516 23.6341C499.831 24.3823 499.694 24.4553 498.911 24.4553C498.422 24.4553 498.03 24.3641 498.03 24.2728C498.03 24.1633 497.893 24.0903 497.717 24.0903C497.325 24.0903 496.914 23.6888 496.64 23.05L496.425 22.539L495.799 23.2326C495.094 24.0173 494.292 24.4553 493.567 24.4553C492.882 24.4553 491.415 23.7801 491.16 23.3421C490.945 22.9405 490.397 22.8675 490.397 23.2508C490.397 23.3968 490.69 23.7253 491.023 23.9991Z" fill="#0F7499"/>
<path d="M493.508 20.0387C493.704 20.2577 493.997 20.4402 494.134 20.4402C494.291 20.4402 494.545 20.6044 494.702 20.8052C494.858 21.0059 495.113 21.1702 495.269 21.1702C495.406 21.1702 495.7 21.3345 495.896 21.5535C496.248 21.9367 496.248 21.9367 497.52 20.7322C498.871 19.4729 499.125 19.0349 498.362 19.2904C498.127 19.3634 496.855 19.4364 495.524 19.4364C494.212 19.4364 493.136 19.4911 493.136 19.5459C493.136 19.6006 493.293 19.8379 493.508 20.0387Z" fill="#0F7499"/>
<path d="M498.697 17.7025C499.127 17.7025 499.695 17.9215 500.38 18.3596C501.378 18.9983 502.924 19.3816 502.924 18.9801C502.924 18.8706 502.709 18.5056 502.455 18.1953C501.809 17.4105 501.554 16.2607 501.789 15.2934C501.985 14.4539 502.611 13.3953 502.983 13.2675C503.492 13.085 502.826 12.7748 502.239 12.9208C501.809 13.0303 501.3 13.5048 500.419 14.6181C499.734 15.4577 498.931 16.4067 498.599 16.6987C497.855 17.4288 497.875 17.7025 498.697 17.7025Z" fill="#0F7499"/>
<path d="M502.375 7.17179C503.158 7.3543 504.059 7.55506 504.372 7.60981C504.685 7.66456 505.135 7.86532 505.35 8.06608C505.585 8.24859 506.133 8.63186 506.583 8.90563C507.034 9.17939 508.11 10.0372 508.991 10.8037C509.872 11.5885 510.713 12.2273 510.87 12.2273C511.242 12.2273 511.653 11.406 511.946 10.0919C512.142 9.19764 512.142 8.63186 511.966 7.3178C511.731 5.65696 510.889 3.15658 510.302 2.31704C510.009 1.89727 509.911 1.87902 509.128 2.02503C507.836 2.24404 505.996 2.99233 504.313 3.95963C502.747 4.87217 500.966 6.29574 500.966 6.64251C500.966 6.75202 501.612 6.98928 502.375 7.17179Z" fill="#0F7499"/>
<path d="M505.897 19.1626C506.68 19.1626 507.893 18.6515 508.735 17.9945C509.263 17.593 509.42 17.5382 509.811 17.7208C510.066 17.8303 510.496 18.2318 510.751 18.6333C511.573 19.8744 512.199 19.3451 511.553 17.958C510.516 15.7862 507.678 13.0303 505.897 12.5193C505.309 12.3367 505.349 12.647 506.034 13.4683C507.423 15.1291 507.306 17.2645 505.76 18.396C505.094 18.8888 505.153 19.1626 505.897 19.1626Z" fill="#0F7499"/>
<path d="M518.386 66.7062C518.836 68.7686 520.461 70.7579 522.477 71.6887C523.397 72.1085 523.827 72.1815 525.139 72.1815C526.45 72.1815 526.881 72.1085 527.781 71.6887C532.459 69.5351 533.476 63.5123 529.797 59.8439C528.466 58.5116 527.076 57.9458 525.139 57.9458C523.827 57.9458 523.397 58.037 522.496 58.4386C519.365 59.8804 517.662 63.3116 518.386 66.7062ZM522.888 60.7564C523.221 60.1724 525.041 59.3146 525.941 59.3146C527.526 59.3146 529.699 61.1214 530.267 62.9465C530.873 64.8994 530.267 66.7427 528.505 68.2941C527.644 69.0606 527.429 69.1701 526.685 69.1701C526.215 69.1701 525.824 69.0789 525.824 68.9876C525.824 68.8781 525.687 68.8051 525.53 68.8051C524.728 68.8051 524.63 67.345 525.354 66.0675C526.059 64.8264 525.902 63.6948 524.904 62.837C524.532 62.5085 524.062 62.2348 523.847 62.2348C523.455 62.2348 522.692 61.6325 522.692 61.304C522.692 61.1945 522.79 60.9572 522.888 60.7564Z" fill="#0F7499"/>
<path d="M485.777 74.189C486.208 75.4666 486.814 76.3609 487.793 77.2004C489.085 78.3137 489.437 78.478 490.611 78.478C491.923 78.478 492.96 77.7662 493.41 76.5434C493.704 75.7586 493.684 75.6856 493.332 75.3206C493.117 75.1198 492.941 74.7913 492.941 74.6088C492.941 74.408 492.725 74.0613 492.451 73.824C492.099 73.4772 491.766 73.3677 491.081 73.3677C489.907 73.3677 489.926 73.6962 491.179 74.8278C491.708 75.3206 492.158 75.8133 492.158 75.9228C492.158 76.2149 491.238 77.0179 490.885 77.0179C490.729 77.0179 490.592 76.9266 490.592 76.8354C490.592 76.7259 490.455 76.6529 490.298 76.6529C489.907 76.6529 488.243 75.1016 488.243 74.7365C488.243 74.5905 488.145 74.4628 488.047 74.4628C487.773 74.4628 487.813 73.7875 488.087 73.6597C488.282 73.5685 488.282 73.532 488.087 73.4407C487.676 73.2582 487.832 72.8384 488.537 72.1814C489.202 71.5609 489.241 71.5426 490.827 71.5426C492.236 71.5426 492.51 71.5974 492.745 71.9076C492.901 72.1084 493.175 72.2727 493.371 72.2727C493.567 72.2727 493.724 72.4004 493.724 72.5464C493.724 72.7107 493.9 73.0027 494.115 73.2217C494.311 73.4225 494.585 74.0613 494.702 74.627C494.82 75.1928 494.976 75.9411 495.054 76.2879C495.152 76.7624 495.309 76.9449 495.622 76.9814C496.033 77.0361 496.072 76.9631 496.072 76.3061C496.072 75.8863 496.151 75.5578 496.268 75.5578C496.366 75.5578 496.464 75.3023 496.464 75.0103C496.464 74.7 496.542 74.4628 496.659 74.4628C496.757 74.4628 496.855 74.2073 496.855 73.9152C496.855 73.4955 496.933 73.3677 497.247 73.3677C497.481 73.3677 497.638 73.24 497.638 73.0757C497.638 72.7289 498.108 72.2727 498.46 72.2727C498.617 72.2727 498.852 72.1084 499.008 71.9076C499.243 71.5974 499.517 71.5426 500.731 71.5426C501.983 71.5426 502.218 71.5974 502.629 71.9989C503.06 72.4004 503.118 72.5829 503.118 73.9152C503.118 75.2476 503.06 75.4301 502.629 75.8316C502.218 76.2331 501.983 76.2879 500.868 76.2879L499.595 76.2879L499.595 75.5578C499.595 74.9738 499.674 74.8278 499.948 74.8278C500.143 74.8278 500.417 74.6635 500.574 74.4628C500.731 74.262 501.005 74.0978 501.2 74.0978C501.416 74.0978 501.553 73.97 501.553 73.7327C501.553 73.4225 501.416 73.3677 500.574 73.3677C500.026 73.3677 499.595 73.4407 499.595 73.5502C499.595 73.6415 499.419 73.7327 499.204 73.7327C498.949 73.7327 498.812 73.8605 498.812 74.0613C498.812 74.2438 498.636 74.4993 498.441 74.627C498.166 74.8095 498.029 75.2111 497.932 75.9593C497.814 76.9266 497.834 77.0909 498.245 77.4924C498.93 78.1677 499.752 78.478 500.907 78.478C502.335 78.478 503.079 78.1495 504.038 77.0909C505.408 75.5396 505.937 74.3898 505.937 72.8202C505.956 71.6339 505.878 71.2871 505.33 70.2651C504.254 68.2027 502.551 66.8339 499.634 65.6293C496.405 64.3153 493.704 64.3335 490.748 65.7023C488.615 66.6879 486.071 68.8962 485.699 70.0826C485.425 70.9586 485.483 73.2947 485.777 74.189ZM491.062 67.0347C492.96 65.8301 495.955 65.5198 497.99 66.3046C499.145 66.7609 500.75 67.8559 500.77 68.221C500.77 68.6225 499.83 69.3525 499.302 69.3525C499.028 69.3525 498.812 69.4255 498.812 69.535C498.812 69.6263 498.617 69.7175 498.362 69.7175C498.108 69.7175 497.795 69.827 497.658 69.9365C497.325 70.2651 492.706 70.2651 492.588 69.9365C492.549 69.8088 492.393 69.7175 492.236 69.7175C491.884 69.7175 489.985 68.0567 490.063 67.8194C490.103 67.7099 490.553 67.3449 491.062 67.0347Z" fill="#0F7499"/>
</svg>
