<svg width="50" height="50" viewBox="0 0 50 50" fill="none" xmlns="http://www.w3.org/2000/svg">
<path fill-rule="evenodd" clip-rule="evenodd" d="M25.0002 11.1977C25.0002 10.2477 25.1335 9.32689 25.3825 8.45085C29.47 14.4602 32.2012 17.8988 39.4721 21.5019C38.5137 21.7446 37.5033 21.8748 36.4585 21.8748C30.0658 21.8748 25.0002 17.0321 25.0002 11.1977ZM22.9168 11.1977C22.9162 9.87743 23.1319 8.56595 23.5554 7.31543C20.8783 7.44043 18.2471 8.05605 15.8106 9.13314C13.6621 9.98743 11.7642 11.3705 10.2929 13.154C8.97758 14.9879 8.24212 17.174 8.18143 19.43C8.16893 19.9456 8.17622 20.4342 8.18351 20.9071C8.20747 22.5748 8.22934 24.0446 7.3908 25.7831C7.3908 25.7831 4.91164 28.0133 5.23872 29.804C5.56476 31.5936 8.79393 32.0852 8.79393 32.0852C8.79393 39.3165 15.6991 38.8561 19.146 38.1769L19.3502 38.1352C20.3814 37.9206 21.0554 37.6998 21.0554 37.6998V39.0581C21.0554 39.0581 21.1273 39.2873 21.3481 39.6071C21.4075 39.6915 21.4762 39.7842 21.5585 39.879C22.2043 40.6394 23.6106 41.6529 26.5043 41.6529C28.6856 41.8248 32.4189 40.3977 33.4085 38.3842V32.2279C36.3387 30.0363 38.7043 27.2071 39.3856 23.6592C38.4418 23.855 37.4627 23.9581 36.4585 23.9581C29.0439 23.9581 22.9168 18.3071 22.9168 11.1977V11.1977ZM41.8043 38.5415V31.2498C41.8043 30.6973 42.0238 30.1674 42.4145 29.7767C42.8052 29.386 43.3351 29.1665 43.8877 29.1665C45.0387 29.1665 45.9908 30.1061 45.8116 31.2436C45.0481 36.1081 41.8043 38.5415 41.8043 38.5415ZM43.3668 28.1248C43.7812 28.1248 44.1787 27.9602 44.4717 27.6672C44.7647 27.3741 44.9293 26.9767 44.9293 26.5623V24.3894L42.0002 27.3196C42.1354 27.5636 42.3334 27.7669 42.5737 27.9085C42.8141 28.0501 43.0879 28.1248 43.3668 28.1248V28.1248ZM41.8043 22.3061V24.5686L44.9293 21.4436V19.1811L41.8043 22.3061ZM41.8043 11.979V19.3602L44.9293 16.2352V11.979C44.9293 11.5646 44.7647 11.1671 44.4717 10.8741C44.1787 10.5811 43.7812 10.4165 43.3668 10.4165C42.9524 10.4165 42.555 10.5811 42.262 10.8741C41.969 11.1671 41.8043 11.5646 41.8043 11.979V11.979Z" fill="black"/>
</svg>
