<svg width="598" height="168" viewBox="0 0 598 168" fill="none" xmlns="http://www.w3.org/2000/svg">
<path d="M2.5 101C2.5 91.335 10.335 83.5 20 83.5H578C587.665 83.5 595.5 91.335 595.5 101V148C595.5 157.665 587.665 165.5 578 165.5H20C10.335 165.5 2.5 157.665 2.5 148V101Z" fill="#0F7499" stroke="#0F7499" stroke-width="5"/>
<path d="M183.779 107.4C186.883 107.4 189.587 107.912 191.891 108.936C194.195 109.96 195.971 111.432 197.219 113.352C198.467 115.272 199.091 117.512 199.091 120.072C199.091 122.632 198.467 124.872 197.219 126.792C195.971 128.712 194.195 130.184 191.891 131.208C189.587 132.232 186.883 132.744 183.779 132.744H178.931V141H167.603V107.4H183.779ZM183.059 124.008C184.595 124.008 185.747 123.672 186.515 123C187.283 122.296 187.667 121.32 187.667 120.072C187.667 118.824 187.283 117.864 186.515 117.192C185.747 116.488 184.595 116.136 183.059 116.136H178.931V124.008H183.059ZM213.259 117.576C215.179 115.368 218.011 114.264 221.755 114.264V123.864C220.891 123.736 220.091 123.672 219.355 123.672C215.643 123.672 213.787 125.56 213.787 129.336V141H202.939V114.744H213.259V117.576ZM238.467 141.48C235.555 141.48 232.931 140.904 230.595 139.752C228.291 138.568 226.483 136.952 225.171 134.904C223.859 132.824 223.203 130.472 223.203 127.848C223.203 125.224 223.859 122.888 225.171 120.84C226.483 118.76 228.291 117.144 230.595 115.992C232.931 114.84 235.555 114.264 238.467 114.264C241.411 114.264 244.035 114.84 246.339 115.992C248.675 117.144 250.483 118.76 251.763 120.84C253.075 122.888 253.731 125.224 253.731 127.848C253.731 130.472 253.075 132.824 251.763 134.904C250.483 136.952 248.675 138.568 246.339 139.752C244.035 140.904 241.411 141.48 238.467 141.48ZM238.467 133.032C239.715 133.032 240.739 132.584 241.539 131.688C242.339 130.76 242.739 129.48 242.739 127.848C242.739 126.216 242.339 124.952 241.539 124.056C240.739 123.16 239.715 122.712 238.467 122.712C237.219 122.712 236.195 123.16 235.395 124.056C234.595 124.952 234.195 126.216 234.195 127.848C234.195 129.48 234.595 130.76 235.395 131.688C236.195 132.584 237.219 133.032 238.467 133.032ZM286.167 105.384V141H275.847V138.84C274.279 140.6 271.879 141.48 268.647 141.48C266.343 141.48 264.215 140.936 262.263 139.848C260.343 138.728 258.807 137.128 257.655 135.048C256.535 132.968 255.975 130.568 255.975 127.848C255.975 125.128 256.535 122.744 257.655 120.696C258.807 118.616 260.343 117.032 262.263 115.944C264.215 114.824 266.343 114.264 268.647 114.264C271.559 114.264 273.783 115.016 275.319 116.52V105.384H286.167ZM271.239 133.032C272.487 133.032 273.511 132.584 274.311 131.688C275.111 130.76 275.511 129.48 275.511 127.848C275.511 126.216 275.111 124.952 274.311 124.056C273.511 123.16 272.487 122.712 271.239 122.712C269.991 122.712 268.967 123.16 268.167 124.056C267.367 124.952 266.967 126.216 266.967 127.848C266.967 129.48 267.367 130.76 268.167 131.688C268.967 132.584 269.991 133.032 271.239 133.032ZM319.674 114.744V141H309.354V138.504C308.394 139.496 307.274 140.248 305.994 140.76C304.714 141.24 303.354 141.48 301.914 141.48C298.586 141.48 295.914 140.472 293.898 138.456C291.882 136.408 290.874 133.336 290.874 129.24V114.744H301.722V127.368C301.722 129.16 302.01 130.44 302.586 131.208C303.162 131.976 304.01 132.36 305.13 132.36C306.186 132.36 307.066 131.944 307.77 131.112C308.474 130.248 308.826 128.904 308.826 127.08V114.744H319.674ZM338.598 141.48C335.622 141.48 332.95 140.904 330.582 139.752C328.246 138.6 326.406 136.984 325.062 134.904C323.75 132.824 323.094 130.472 323.094 127.848C323.094 125.224 323.75 122.888 325.062 120.84C326.406 118.76 328.246 117.144 330.582 115.992C332.95 114.84 335.622 114.264 338.598 114.264C341.798 114.264 344.534 114.952 346.806 116.328C349.078 117.704 350.646 119.608 351.51 122.04L343.11 126.168C342.086 123.864 340.566 122.712 338.55 122.712C337.27 122.712 336.198 123.16 335.334 124.056C334.502 124.952 334.086 126.216 334.086 127.848C334.086 129.512 334.502 130.792 335.334 131.688C336.198 132.584 337.27 133.032 338.55 133.032C340.566 133.032 342.086 131.88 343.11 129.576L351.51 133.704C350.646 136.136 349.078 138.04 346.806 139.416C344.534 140.792 341.798 141.48 338.598 141.48ZM373.83 140.088C372.198 141.016 369.974 141.48 367.158 141.48C363.478 141.48 360.646 140.6 358.662 138.84C356.678 137.048 355.686 134.376 355.686 130.824V124.104H352.086V116.184H355.686V108.84H366.534V116.184H371.91V124.104H366.534V130.728C366.534 131.528 366.742 132.152 367.158 132.6C367.574 133.048 368.118 133.272 368.79 133.272C369.718 133.272 370.534 133.032 371.238 132.552L373.83 140.088ZM389.733 141.48C386.821 141.48 384.197 140.904 381.861 139.752C379.557 138.568 377.749 136.952 376.437 134.904C375.125 132.824 374.469 130.472 374.469 127.848C374.469 125.224 375.125 122.888 376.437 120.84C377.749 118.76 379.557 117.144 381.861 115.992C384.197 114.84 386.821 114.264 389.733 114.264C392.677 114.264 395.301 114.84 397.605 115.992C399.941 117.144 401.749 118.76 403.029 120.84C404.341 122.888 404.997 125.224 404.997 127.848C404.997 130.472 404.341 132.824 403.029 134.904C401.749 136.952 399.941 138.568 397.605 139.752C395.301 140.904 392.677 141.48 389.733 141.48ZM389.733 133.032C390.981 133.032 392.005 132.584 392.805 131.688C393.605 130.76 394.005 129.48 394.005 127.848C394.005 126.216 393.605 124.952 392.805 124.056C392.005 123.16 390.981 122.712 389.733 122.712C388.485 122.712 387.461 123.16 386.661 124.056C385.861 124.952 385.461 126.216 385.461 127.848C385.461 129.48 385.861 130.76 386.661 131.688C387.461 132.584 388.485 133.032 389.733 133.032ZM418.664 141.48C416.424 141.48 414.216 141.24 412.04 140.76C409.864 140.28 408.104 139.656 406.76 138.888L409.736 131.736C410.952 132.472 412.392 133.048 414.056 133.464C415.72 133.88 417.336 134.088 418.904 134.088C420.152 134.088 421.016 133.992 421.496 133.8C422.008 133.576 422.264 133.256 422.264 132.84C422.264 132.424 421.944 132.136 421.304 131.976C420.696 131.816 419.688 131.656 418.28 131.496C416.136 131.24 414.312 130.92 412.808 130.536C411.304 130.12 409.976 129.336 408.824 128.184C407.704 127.032 407.144 125.384 407.144 123.24C407.144 121.544 407.656 120.024 408.68 118.68C409.704 117.336 411.224 116.264 413.24 115.464C415.288 114.664 417.736 114.264 420.584 114.264C422.568 114.264 424.504 114.456 426.392 114.84C428.312 115.192 429.944 115.72 431.288 116.424L428.312 123.576C426.008 122.296 423.48 121.656 420.728 121.656C418.36 121.656 417.176 122.072 417.176 122.904C417.176 123.32 417.496 123.624 418.136 123.816C418.776 123.976 419.784 124.136 421.16 124.296C423.304 124.552 425.112 124.888 426.584 125.304C428.088 125.72 429.4 126.504 430.52 127.656C431.672 128.808 432.248 130.456 432.248 132.6C432.248 134.232 431.736 135.72 430.712 137.064C429.688 138.408 428.152 139.48 426.104 140.28C424.056 141.08 421.576 141.48 418.664 141.48Z" fill="#FAFAFA"/>
<path d="M429.27 78.6614C429.759 80.4135 430.973 81.4538 433.341 82.1473C433.948 82.3116 438.43 82.3846 452.346 82.4393L470.568 82.5306L470.999 81.3625C471.821 79.2454 472.975 77.2926 474.013 76.2523C475.226 75.066 477.007 73.7336 477.399 73.7336C477.555 73.7336 477.673 73.6606 477.673 73.5694C477.673 73.4051 483.349 70.6675 484.523 70.266C485.893 69.8097 489.279 68.2036 489.886 67.7291C490.219 67.4736 490.826 66.9443 491.217 66.561C492.666 65.2105 492.587 65.9953 492.568 53.6759C492.548 43.3276 492.568 42.5246 492.92 41.2835C493.351 39.7687 493.742 39.1299 494.407 38.8379C495.601 38.3451 496.619 39.568 497.324 42.3421C497.774 44.1124 498.028 49.8067 498.028 57.9101V65.1192L498.694 65.9405C499.066 66.3785 499.457 66.9078 499.555 67.1086C499.849 67.6013 501.747 68.5139 503.509 68.9884C504.311 69.2257 505.055 69.4629 505.172 69.5359C505.27 69.6089 506.21 69.8827 507.228 70.1565C509.478 70.7587 512.61 72.1093 513.178 72.7298C513.413 72.9854 513.745 73.1861 513.921 73.1861C514.098 73.1861 515.057 73.9527 516.074 74.8652C517.914 76.5808 518.775 77.5481 518.775 77.9131C518.775 78.0409 518.932 78.2964 519.147 78.4971C519.343 78.6979 519.813 79.7017 520.165 80.7055L520.831 82.5488L534.531 82.4211C542.067 82.3663 549.641 82.2203 551.364 82.1291C553.086 82.0196 555.455 81.91 556.648 81.8553C557.823 81.8005 559.056 81.7093 559.389 81.6545C560.837 81.3625 562.168 80.377 562.696 79.1724C563.088 78.3146 563.107 76.161 562.716 74.8287C562.364 73.5694 561.424 71.8903 560.935 71.653C560.739 71.5435 560.465 71.3245 560.328 71.1603C559.154 69.7184 557.373 68.6964 555.102 68.1671C551.442 67.3276 545.747 68.2401 540.912 70.4302C540.207 70.7405 539.62 70.996 539.581 70.996C539.542 70.996 539.522 69.8462 539.522 68.4591V65.904L540.951 65.2652C543.691 64.0424 546.295 61.323 547.195 58.7862C547.567 57.6911 547.606 57.1436 547.645 52.9276C547.665 48.0911 547.723 47.6349 548.722 43.9482C548.956 43.1451 549.348 42.1596 549.622 41.7763C549.896 41.3748 550.072 40.9915 550.013 40.9003C549.955 40.8273 550.483 39.6592 551.188 38.3086C555.376 30.333 558.195 23.5802 559.213 19.1087C559.526 17.6669 559.584 15.7688 559.291 15.6045C559.173 15.5498 559.095 15.3125 559.095 15.0935C559.095 14.5095 558.019 11.3703 557.314 9.92849C556.12 7.42812 554.789 5.63953 552.343 3.30341C551.051 2.06236 549.602 0.80304 549.133 0.511032C548.271 0 548.213 0 545.355 0C542.771 0 542.38 0.036499 541.578 0.40152C541.088 0.620529 540.697 0.876045 540.697 0.949051C540.697 1.02206 540.149 1.35056 539.464 1.66084C537.663 2.50037 535.158 4.0882 533.807 5.25626C532.359 6.51557 530.617 8.52317 526.585 13.5969C523.336 17.6669 521.927 19.638 519.46 23.4524C518.638 24.7482 517.895 25.8615 517.816 25.9163C517.738 25.971 517.621 26.1535 517.542 26.3178C517.484 26.5003 516.818 27.4859 516.074 28.5079C515.35 29.5482 514.137 31.2638 513.413 32.3406C512.669 33.4356 511.945 34.3117 511.788 34.3117C511.455 34.3117 510.946 33.8737 510.946 33.5817C510.946 33.4722 511.592 32.7786 512.356 32.0486C513.882 30.6433 514.783 29.3657 515.605 27.5224C516.27 25.971 516.446 22.7041 515.937 21.0798C515.546 19.7657 514.861 18.5064 514.176 17.7216L513.647 17.1558L514.293 16.4441C515.898 14.765 516.799 12.6661 516.818 10.6585C516.818 8.12165 516.133 6.57033 513.706 3.57718C512.845 2.53688 512.003 1.38707 511.847 1.02205C511.475 0.20076 511.22 0.18251 509.185 0.98555C504.801 2.71938 499.986 5.87679 499.144 7.61063C499.007 7.92089 498.85 8.01215 498.635 7.92089C498.459 7.84789 497.05 7.73839 495.484 7.70188L492.666 7.62888L491.648 6.66158C491.1 6.11406 489.827 5.18326 488.81 4.56272C486.637 3.26691 481 0.547531 480.452 0.547531C480.159 0.547531 479.708 1.16805 478.534 3.13915C476.322 6.91709 475.97 7.59238 475.5 9.21671C474.776 11.7353 475.187 13.9802 476.733 15.7688L477.36 16.4806L476.89 17.2289C475.442 19.5832 474.874 20.7513 474.62 21.9376C474.013 24.5475 474.757 27.3399 476.812 30.2417L478.045 31.9938L477.673 32.5049C477.458 32.7786 477.066 33.4357 476.792 33.9649C476.401 34.768 476.303 34.8775 476.185 34.5672C475.148 31.9208 473.504 29.2014 469.785 23.9999C468.924 22.7954 467.515 20.9338 466.673 19.857C465.831 18.7802 465.146 17.8494 465.146 17.7946C465.146 17.7399 464.97 17.5209 464.774 17.3019C464.559 17.0646 463.267 15.5315 461.878 13.8707C460.508 12.2281 458.57 10.111 457.611 9.18021C455.928 7.57413 451.72 4.19771 451.406 4.19771C451.328 4.19771 451.25 4.0882 451.25 3.94219C451.25 3.81444 450.604 3.43117 449.821 3.0844C448.549 2.51862 448.236 2.46387 446.65 2.46387C443.969 2.46387 443.029 2.95665 439.78 6.0593C436.355 9.34447 434.828 11.7171 433.419 15.933C432.812 17.7216 432.793 17.8494 432.91 20.2402C433.106 24.7665 434.75 29.4387 438.919 37.2318C439.741 38.7832 440.524 40.3527 440.681 40.6995C440.818 41.0463 441.444 42.3603 442.07 43.6197C443.245 46.0288 444.399 49.0402 444.869 50.9565C445.084 51.7778 445.163 53.3291 445.163 56.3223C445.163 58.9504 445.241 60.8485 445.378 61.3413C445.848 62.9839 446.983 64.6447 448.725 66.269L450.408 67.8386L450.252 68.7329C450.173 69.2257 450.095 70.2477 450.095 70.996L450.075 72.3466L449.038 71.434C446.337 68.9702 443.303 67.9116 439.643 68.1306C436.198 68.3314 433.341 69.6272 430.562 72.2188C429.172 73.5146 428.624 76.307 429.27 78.6614ZM432.656 76.1063C432.871 75.7047 433.047 75.3032 433.047 75.212C433.047 74.993 433.38 74.5914 434.476 73.4416C435.807 72.0546 438.449 71.0325 440.974 70.9595C442.305 70.923 445.182 71.1785 445.182 71.3428C445.182 71.4158 445.691 71.6713 446.298 71.9086C447.903 72.5291 449.801 74.3359 450.721 76.1245C451.68 77.9679 451.7 78.8621 450.819 79.7017C450.252 80.2492 450.075 80.304 449.077 80.304C447.374 80.304 447.061 80.1032 446.552 78.6796C446.063 77.3291 445.28 75.796 444.889 75.431C444.732 75.3032 444.399 75.1937 444.125 75.1937H443.636L444.008 75.9603C444.497 76.9641 444.517 78.4059 444.047 79.0629C442.971 80.596 441.463 80.6872 439.996 79.3184C439.663 78.9899 439.604 78.7161 439.624 77.2561L439.643 75.5587H439.095C438.547 75.5587 438.332 75.8325 438.332 76.5625C438.332 78.3694 437.314 80.012 436.061 80.231C435.2 80.377 433.674 79.9937 433.145 79.5009C432.206 78.6066 432.01 77.2743 432.656 76.1063ZM439.526 17.1558C440.074 15.2943 440.896 13.9984 442.442 12.5749C444.028 11.1148 445.182 10.6585 446.924 10.8228C448.412 10.9505 449.762 11.5346 452.639 13.3232C459.314 17.4661 462.641 20.7513 465.792 26.2813C467.534 29.311 468.004 30.6615 468.552 34.1839C469.492 40.0972 469.257 41.2653 466.79 43.4371C463.815 46.047 459.979 49.9527 458.864 51.5223C457.513 53.4204 456.437 55.3185 455.262 57.9649C454.381 59.9542 453.579 61.0858 452.874 61.3413C451.857 61.688 450.369 60.6112 449.469 58.8592C448.823 57.6181 448.784 56.7421 449.097 52.3801C449.449 47.6714 448.647 43.9482 446.278 39.1117C445.691 37.9254 444.81 36.301 444.321 35.498C443.812 34.695 443.284 33.6729 443.108 33.2166C442.931 32.7604 442.677 32.1398 442.52 31.8478C442.031 30.7893 441.013 28.1794 440.074 25.5513C439.154 22.9779 439.115 22.8501 439.115 20.7148C439.115 19.0357 439.213 18.1961 439.526 17.1558ZM457.102 65.9953C458.648 61.8706 463.013 59.3154 467.339 60.009C469.413 60.3375 471.057 61.177 472.721 62.7283C473.504 63.4584 474.15 64.2067 474.15 64.3892C474.15 64.5717 474.306 64.882 474.522 65.0827C474.952 65.5207 475.089 66.3238 475.246 69.0432C475.324 70.3937 475.305 71.0873 475.148 71.2333C475.031 71.3428 474.933 71.58 474.933 71.7808C474.933 72.5656 473.7 74.4819 472.427 75.6682C469.961 77.9679 467.104 78.7344 463.815 78.0226C462.308 77.6941 461.408 77.2743 460.195 76.3435C458.472 75.0112 457.219 73.0584 456.73 70.9048C456.456 69.7549 456.652 67.1816 457.102 65.9953ZM477.947 35.3337C478.495 33.8919 480.041 33.1254 482.468 33.1254C483.819 33.1436 484.054 33.2166 485.893 34.2204C486.598 34.622 486.911 34.9505 487.4 35.8265L487.87 36.7208L487.44 37.1588C487.087 37.5056 486.794 37.5969 486.05 37.5969C485.247 37.5969 485.11 37.5421 485.11 37.2318C485.11 37.0311 485.013 36.8668 484.915 36.8668C484.797 36.8668 484.719 36.7391 484.719 36.5931C484.719 36.2645 483.877 35.4067 483.564 35.4067C483.447 35.4067 483.408 35.6258 483.466 35.9178C483.525 36.2098 483.447 36.7391 483.271 37.1223C483.016 37.7064 482.879 37.7976 482.527 37.7064C482.272 37.6516 481.959 37.5969 481.822 37.5969C481.666 37.5969 481.587 37.3048 481.587 36.7573C481.587 36.2645 481.47 35.8265 481.294 35.6623C481.039 35.425 480.922 35.4615 480.315 36.0273C479.943 36.374 479.63 36.7573 479.63 36.8668C479.63 37.1953 479.102 37.5969 478.652 37.5969C477.712 37.5969 477.438 36.7208 477.947 35.3337ZM478.397 20.806C478.906 19.7657 479.317 19.346 480.354 18.7984C480.824 18.5612 481.196 18.3057 481.196 18.2144C481.196 18.1231 480.824 17.7034 480.354 17.2654C478.906 15.8783 478.534 15.3855 478.201 14.4182C477.732 13.0859 477.771 10.5125 478.28 8.85168C478.495 8.1399 478.71 7.37337 478.789 7.11785C478.847 6.86234 478.965 6.62508 479.043 6.57033C479.121 6.51557 479.376 6.1323 479.611 5.71253C480.198 4.59923 481.098 3.70493 481.744 3.59543C483.036 3.35817 486.383 4.63573 488.34 6.11405C488.927 6.57033 489.456 6.93534 489.534 6.93534C489.808 6.93534 491.335 8.63268 491.667 9.30796C491.922 9.85548 492.137 10.038 492.47 10.038C492.724 10.038 492.998 9.91024 493.096 9.74598C493.253 9.47221 493.683 9.45396 496.639 9.52697C499.81 9.59998 500.025 9.58173 500.221 9.2532C500.455 8.81519 503.646 5.84029 503.842 5.84029C504.076 5.85854 506.543 4.67223 506.601 4.50797C506.64 4.43497 506.817 4.38022 506.993 4.38022C507.169 4.38022 507.697 4.25246 508.147 4.10645C508.598 3.96045 509.244 3.88744 509.557 3.94219C510.242 4.06995 511.397 5.16501 512.238 6.47907C512.806 7.37337 513.001 7.73838 513.491 8.85168C513.628 9.1437 513.784 10.3483 513.843 11.5163C513.961 14.3635 513.687 15.1483 512.003 16.7726C511.318 17.4296 510.751 18.0136 510.751 18.0684C510.751 18.1231 511.083 18.3604 511.494 18.5977C511.905 18.8349 512.336 19.1634 512.434 19.346C512.532 19.5285 512.786 19.9482 513.001 20.2768C513.334 20.7878 513.393 21.2076 513.393 22.8136C513.373 24.6205 513.334 24.8212 512.63 26.3178C511.671 28.3984 510.712 29.7672 509.107 31.3368C507.913 32.5231 507.736 32.6326 506.308 33.0159C505.466 33.2531 504.213 33.6364 503.528 33.8919C501.728 34.5672 499.124 34.8592 493.938 34.987C490.513 35.06 489.397 35.0417 489.495 34.8957C489.573 34.768 489.514 34.6767 489.377 34.6767C489.221 34.6767 488.634 34.3299 488.046 33.9284C486.755 33.0159 484.739 32.0486 483.545 31.7566C481.861 31.355 478.906 27.9969 478.045 25.5513C477.732 24.6752 477.947 21.7003 478.397 20.806ZM503.059 36.2828C503.47 35.8813 504.331 35.3155 504.977 35.0417C507.345 34.0379 508.089 33.7642 508.813 33.6547C509.518 33.5452 509.615 33.5999 511.025 34.8775C512.336 36.0455 512.512 36.2828 512.512 36.8668C512.512 37.7429 511.729 38.2174 510.574 38.0349C509.889 37.9254 509.772 37.8524 509.772 37.4691C509.772 36.9763 508.97 36.1368 508.5 36.1368C508.089 36.1368 508.128 36.3741 508.598 36.6843C508.813 36.8303 508.989 37.0858 508.989 37.2501C508.989 37.4326 509.107 37.5969 509.224 37.6334C509.674 37.7794 508.852 38.3269 508.206 38.3269C507.208 38.3269 505.72 36.7026 506.484 36.4471C506.621 36.4105 506.68 36.301 506.601 36.228C506.386 36.009 505.857 36.6113 505.857 37.0858C505.857 37.3231 505.681 37.6334 505.466 37.7794C505.251 37.9254 505.075 38.1809 505.075 38.3634C505.075 38.8562 503.685 38.8197 503.313 38.3269C503.156 38.1261 502.882 37.9619 502.687 37.9619C502.06 37.9619 502.256 37.1041 503.059 36.2828ZM515.957 65.7215C516.035 65.2652 516.251 64.7359 516.446 64.5352C516.662 64.3344 516.818 64.0242 516.818 63.8417C516.818 63.2759 519.539 60.9215 520.948 60.2827C526.056 57.9466 531.85 60.2645 533.886 65.466C534.512 67.0173 534.492 69.901 533.886 71.58C532.77 74.5732 530.245 76.7998 527.172 77.4751C523.864 78.1869 521.026 77.4203 518.541 75.1207C517.249 73.9162 516.035 71.9998 516.035 71.1968C516.035 70.996 515.937 70.777 515.82 70.704C515.605 70.5762 515.683 67.4371 515.957 65.7215ZM520.439 33.3261C521.222 29.1649 523.375 25.1862 527.798 19.5832C528.855 18.2509 530.323 16.6083 531.047 15.933C531.772 15.2395 533.22 13.8524 534.257 12.8669C536.528 10.6403 538.191 9.70948 542.4 8.30416C543.965 7.75663 544.533 7.66537 545.903 7.66537C546.862 7.66537 547.547 7.73838 547.547 7.84789C547.547 7.93914 547.684 8.0304 547.841 8.0304C547.997 8.0304 548.291 8.1399 548.467 8.28591C548.663 8.43192 549.211 8.83344 549.7 9.16196C551.736 10.5855 553.106 13.4509 553.067 16.2433C553.047 18.2327 552.617 21.9011 552.401 21.9011C552.323 21.9011 552.245 22.0836 552.245 22.3026C552.245 22.7224 543.378 42.2326 542.967 42.6889C542.674 43.0356 542.713 46.9961 543.026 49.2774C543.378 51.7413 543.32 55.6835 542.928 56.9246C542.145 59.4797 540.56 61.1405 538.955 61.1405C538.524 61.1405 538.25 60.9763 537.8 60.447C536.626 59.0417 535.49 57.3261 534.375 55.3002C530.989 49.0584 526.35 43.8934 522.553 42.0866C521.985 41.8311 521.398 41.6121 521.242 41.6121C521.065 41.6121 520.87 41.32 520.733 40.8273C520.615 40.4075 520.459 39.8782 520.38 39.641C520.087 38.7649 520.126 34.9505 520.439 33.3261ZM539.229 75.2667C540.168 73.7701 542.497 72.1458 545.296 71.0508C547.019 70.3755 547.117 70.3572 549.504 70.3572C551.305 70.3572 552.284 70.4485 553.223 70.704C556.198 71.507 558.625 73.0949 559.506 74.7557C559.878 75.4857 559.917 75.796 559.819 76.9823C559.682 78.7709 559.33 79.2272 557.901 79.5009C557.314 79.6104 556.648 79.7564 556.394 79.8294C556.14 79.9207 555.963 79.8842 555.963 79.7747C555.963 79.6652 555.787 79.5739 555.572 79.5739C555.357 79.5739 555.181 79.4827 555.181 79.3914C555.181 79.2819 555.024 79.2089 554.828 79.2089C554.496 79.2089 554.319 78.8439 553.713 77.0188C553.576 76.5625 553.399 75.9785 553.341 75.6865C553.145 74.8652 552.891 75.1207 552.754 76.307C552.636 77.5116 552.108 78.7891 551.599 79.1907C551.403 79.3184 551.266 79.5557 551.266 79.6834C551.266 79.8294 551.168 79.9389 551.07 79.9389C550.953 79.9389 550.875 79.8659 550.875 79.7929C550.875 79.7017 550.464 79.6834 549.974 79.7564C549.113 79.8842 548.134 79.6652 548.134 79.3367C548.134 79.2637 547.958 79.2089 547.743 79.2089C547.391 79.2089 547.351 79.0812 547.351 77.8401C547.351 77.0553 547.469 76.1975 547.626 75.8325C547.88 75.2667 547.88 75.1937 547.626 75.1937C547.488 75.1937 547.351 75.2667 547.351 75.3762C547.351 75.4675 547.175 75.5587 546.96 75.5587C546.706 75.5587 546.569 75.6865 546.569 75.9238C546.569 76.1245 546.471 76.2888 546.373 76.2888C546.255 76.2888 546.177 76.6173 546.177 77.0188C546.177 77.4021 546.079 77.9131 545.962 78.1504C545.531 79.0629 543.652 79.8294 542.38 79.6469C541.597 79.5192 539.914 78.8256 539.914 78.6249C539.914 78.5519 539.757 78.4789 539.542 78.4789C539.346 78.4789 539.111 78.2964 539.033 78.0591C538.935 77.8401 538.818 77.4933 538.74 77.2926C538.544 76.7998 538.7 76.161 539.229 75.2667Z" fill="#0F7499"/>
<path d="M459.159 67.4363C459.726 69.5717 461.194 71.3055 463.191 72.2363C464.091 72.6561 464.522 72.7291 465.833 72.7291C467.144 72.7291 467.575 72.6561 468.495 72.2363C474.132 69.6447 474.112 61.5778 468.475 58.9861C467.575 58.5846 467.144 58.4933 465.833 58.4933C464.522 58.4933 464.091 58.5846 463.171 59.0044C460.02 60.4279 458.278 64.1146 459.159 67.4363ZM460.744 63.4028C461.292 61.669 463.484 59.8622 465.031 59.8622C465.951 59.8622 467.751 60.7382 468.104 61.3405C468.436 61.9245 468.045 62.5816 467.281 62.7276C466.303 62.9101 465.403 63.8409 465.246 64.8447C465.128 65.5565 465.187 65.8485 465.618 66.615C466.342 67.8926 466.244 69.3526 465.442 69.3526C465.285 69.3526 465.148 69.4256 465.148 69.5352C465.148 69.6264 464.757 69.7177 464.287 69.7177C463.543 69.7177 463.328 69.6082 462.467 68.8416C460.627 67.2173 460.079 65.4652 460.744 63.4028Z" fill="#0F7499"/>
<path d="M480.161 19.2904C480.338 19.7102 480.71 19.546 481.199 18.8159C481.453 18.4144 481.884 18.0129 482.138 17.9034C482.53 17.7209 482.686 17.7756 483.215 18.1771C484.056 18.8342 485.27 19.3452 486.033 19.3452C486.797 19.3452 486.855 19.0714 486.19 18.5787C484.644 17.4471 484.526 15.3117 485.916 13.6509C486.601 12.8296 486.64 12.5193 486.033 12.7019C483.743 13.3771 479.613 18.0129 480.161 19.2904Z" fill="#0F7499"/>
<path d="M480.162 9.85461C480.358 10.9497 480.632 11.6432 481.023 12.063L481.434 12.501L481.904 11.9535C482.158 11.6432 482.374 11.3512 482.374 11.2599C482.374 10.9679 484.507 9.16108 485.564 8.5588C486.171 8.23028 486.68 7.88352 486.68 7.81052C486.68 7.71926 487.032 7.66451 487.462 7.66451C487.893 7.66451 488.402 7.59151 488.598 7.50025C489.204 7.18999 490.555 6.93448 490.868 7.04398C491.494 7.26299 491.181 6.58771 490.183 5.58392C488.539 3.90484 485.114 1.93375 482.882 1.40448C481.826 1.14897 481.728 1.14897 481.415 1.44098C480.553 2.24401 479.751 7.64626 480.162 9.85461Z" fill="#0F7499"/>
<path d="M488.985 13.5048C489.298 13.5048 489.963 14.6181 490.159 15.4759C490.394 16.4432 490.14 17.593 489.494 18.3778C489.239 18.6881 489.024 19.0531 489.024 19.1626C489.024 19.5641 490.57 19.1808 491.568 18.542C492.253 18.104 492.821 17.885 493.252 17.885C494.035 17.885 494.132 17.5565 493.486 17.0455C493.271 16.863 492.469 15.9322 491.705 15.0014C490.962 14.0706 490.257 13.2675 490.12 13.2128C489.592 13.0303 488.965 13.0668 488.887 13.2675C488.828 13.3953 488.887 13.5048 488.985 13.5048Z" fill="#0F7499"/>
<path d="M491.023 23.9991C491.375 24.2729 491.865 24.5831 492.1 24.6926C492.354 24.8021 492.55 24.9481 492.55 25.0394C492.55 25.2584 493.979 25.0576 494.938 24.6926C495.349 24.5466 495.681 24.3459 495.681 24.2546C495.681 24.1634 495.857 24.0904 496.073 24.0904C496.288 24.0904 496.464 24.1634 496.464 24.2729C496.464 24.3641 496.64 24.4554 496.856 24.4554C497.071 24.4554 497.247 24.5284 497.247 24.6379C497.247 24.7291 497.423 24.8204 497.639 24.8204C497.854 24.8204 498.03 24.8934 498.03 25.0029C498.03 25.4227 499.948 25.0394 500.653 24.4736C501.162 24.0539 501.612 23.1596 501.416 22.9771C501.318 22.8858 500.927 23.1596 500.516 23.6341C499.831 24.3824 499.694 24.4554 498.911 24.4554C498.422 24.4554 498.03 24.3641 498.03 24.2729C498.03 24.1634 497.893 24.0904 497.717 24.0904C497.325 24.0904 496.914 23.6888 496.64 23.0501L496.425 22.5391L495.799 23.2326C495.094 24.0174 494.292 24.4554 493.567 24.4554C492.882 24.4554 491.415 23.7801 491.16 23.3421C490.945 22.9406 490.397 22.8676 490.397 23.2508C490.397 23.3968 490.69 23.7254 491.023 23.9991Z" fill="#0F7499"/>
<path d="M493.508 20.0387C493.704 20.2577 493.997 20.4402 494.134 20.4402C494.291 20.4402 494.545 20.6045 494.702 20.8052C494.858 21.006 495.113 21.1702 495.269 21.1702C495.406 21.1702 495.7 21.3345 495.896 21.5535C496.248 21.9368 496.248 21.9368 497.52 20.7322C498.871 19.4729 499.125 19.0349 498.362 19.2904C498.127 19.3634 496.855 19.4364 495.524 19.4364C494.212 19.4364 493.136 19.4912 493.136 19.5459C493.136 19.6007 493.293 19.8379 493.508 20.0387Z" fill="#0F7499"/>
<path d="M498.697 17.7025C499.127 17.7025 499.695 17.9216 500.38 18.3596C501.378 18.9984 502.924 19.3816 502.924 18.9801C502.924 18.8706 502.709 18.5056 502.455 18.1953C501.809 17.4105 501.554 16.2607 501.789 15.2934C501.985 14.4539 502.611 13.3953 502.983 13.2676C503.492 13.0851 502.826 12.7748 502.239 12.9208C501.809 13.0303 501.3 13.5048 500.419 14.6181C499.734 15.4577 498.931 16.4067 498.599 16.6987C497.855 17.4288 497.875 17.7025 498.697 17.7025Z" fill="#0F7499"/>
<path d="M502.375 7.17182C503.158 7.35433 504.059 7.55509 504.372 7.60984C504.685 7.66459 505.135 7.86535 505.35 8.06611C505.585 8.24862 506.133 8.63189 506.583 8.90566C507.034 9.17942 508.11 10.0372 508.991 10.8038C509.872 11.5885 510.713 12.2273 510.87 12.2273C511.242 12.2273 511.653 11.406 511.946 10.092C512.142 9.19767 512.142 8.63189 511.966 7.31783C511.731 5.65699 510.889 3.15662 510.302 2.31707C510.009 1.8973 509.911 1.87905 509.128 2.02506C507.836 2.24407 505.996 2.99236 504.313 3.95966C502.747 4.8722 500.966 6.29577 500.966 6.64254C500.966 6.75205 501.612 6.98931 502.375 7.17182Z" fill="#0F7499"/>
<path d="M505.897 19.1626C506.68 19.1626 507.893 18.6516 508.735 17.9945C509.263 17.593 509.42 17.5383 509.811 17.7208C510.066 17.8303 510.496 18.2318 510.751 18.6333C511.573 19.8744 512.199 19.3451 511.553 17.958C510.516 15.7862 507.678 13.0303 505.897 12.5193C505.309 12.3368 505.349 12.647 506.034 13.4683C507.423 15.1292 507.306 17.2645 505.76 18.3961C505.094 18.8888 505.153 19.1626 505.897 19.1626Z" fill="#0F7499"/>
<path d="M518.386 66.7062C518.836 68.7686 520.461 70.7579 522.477 71.6887C523.397 72.1085 523.827 72.1815 525.139 72.1815C526.45 72.1815 526.881 72.1085 527.781 71.6887C532.459 69.5351 533.476 63.5123 529.797 59.8439C528.466 58.5116 527.076 57.9458 525.139 57.9458C523.827 57.9458 523.397 58.037 522.496 58.4386C519.365 59.8804 517.662 63.3116 518.386 66.7062ZM522.888 60.7564C523.221 60.1724 525.041 59.3146 525.941 59.3146C527.526 59.3146 529.699 61.1214 530.267 62.9465C530.873 64.8994 530.267 66.7427 528.505 68.2941C527.644 69.0606 527.429 69.1701 526.685 69.1701C526.215 69.1701 525.824 69.0789 525.824 68.9876C525.824 68.8781 525.687 68.8051 525.53 68.8051C524.728 68.8051 524.63 67.345 525.354 66.0675C526.059 64.8264 525.902 63.6948 524.904 62.837C524.532 62.5085 524.062 62.2348 523.847 62.2348C523.455 62.2348 522.692 61.6325 522.692 61.304C522.692 61.1945 522.79 60.9572 522.888 60.7564Z" fill="#0F7499"/>
<path d="M485.777 74.1891C486.208 75.4666 486.814 76.3609 487.793 77.2005C489.085 78.3138 489.437 78.478 490.611 78.478C491.923 78.478 492.96 77.7662 493.41 76.5434C493.704 75.7586 493.684 75.6856 493.332 75.3206C493.117 75.1199 492.941 74.7913 492.941 74.6088C492.941 74.4081 492.725 74.0613 492.451 73.824C492.099 73.4773 491.766 73.3678 491.081 73.3678C489.907 73.3678 489.926 73.6963 491.179 74.8278C491.708 75.3206 492.158 75.8134 492.158 75.9229C492.158 76.2149 491.238 77.018 490.885 77.018C490.729 77.018 490.592 76.9267 490.592 76.8354C490.592 76.7259 490.455 76.6529 490.298 76.6529C489.907 76.6529 488.243 75.1016 488.243 74.7366C488.243 74.5906 488.145 74.4628 488.047 74.4628C487.773 74.4628 487.813 73.7875 488.087 73.6598C488.282 73.5685 488.282 73.532 488.087 73.4408C487.676 73.2583 487.832 72.8385 488.537 72.1815C489.202 71.5609 489.241 71.5427 490.827 71.5427C492.236 71.5427 492.51 71.5974 492.745 71.9077C492.901 72.1085 493.175 72.2727 493.371 72.2727C493.567 72.2727 493.724 72.4005 493.724 72.5465C493.724 72.7107 493.9 73.0028 494.115 73.2218C494.311 73.4225 494.585 74.0613 494.702 74.6271C494.82 75.1929 494.976 75.9412 495.054 76.2879C495.152 76.7624 495.309 76.945 495.622 76.9815C496.033 77.0362 496.072 76.9632 496.072 76.3062C496.072 75.8864 496.151 75.5579 496.268 75.5579C496.366 75.5579 496.464 75.3024 496.464 75.0104C496.464 74.7001 496.542 74.4628 496.659 74.4628C496.757 74.4628 496.855 74.2073 496.855 73.9153C496.855 73.4955 496.933 73.3678 497.247 73.3678C497.481 73.3678 497.638 73.24 497.638 73.0758C497.638 72.729 498.108 72.2727 498.46 72.2727C498.617 72.2727 498.852 72.1085 499.008 71.9077C499.243 71.5974 499.517 71.5427 500.731 71.5427C501.983 71.5427 502.218 71.5974 502.629 71.999C503.06 72.4005 503.118 72.583 503.118 73.9153C503.118 75.2476 503.06 75.4301 502.629 75.8316C502.218 76.2332 501.983 76.2879 500.868 76.2879H499.595V75.5579C499.595 74.9739 499.674 74.8278 499.948 74.8278C500.143 74.8278 500.417 74.6636 500.574 74.4628C500.731 74.2621 501.005 74.0978 501.2 74.0978C501.416 74.0978 501.553 73.9701 501.553 73.7328C501.553 73.4225 501.416 73.3678 500.574 73.3678C500.026 73.3678 499.595 73.4408 499.595 73.5503C499.595 73.6415 499.419 73.7328 499.204 73.7328C498.949 73.7328 498.812 73.8606 498.812 74.0613C498.812 74.2438 498.636 74.4993 498.441 74.6271C498.166 74.8096 498.029 75.2111 497.932 75.9594C497.814 76.9267 497.834 77.091 498.245 77.4925C498.93 78.1678 499.752 78.478 500.907 78.478C502.335 78.478 503.079 78.1495 504.038 77.091C505.408 75.5396 505.937 74.3898 505.937 72.8203C505.956 71.6339 505.878 71.2872 505.33 70.2651C504.254 68.2028 502.551 66.834 499.634 65.6294C496.405 64.3153 493.704 64.3336 490.748 65.7024C488.615 66.688 486.071 68.8963 485.699 70.0826C485.425 70.9587 485.483 73.2948 485.777 74.1891ZM491.062 67.0347C492.96 65.8302 495.955 65.5199 497.99 66.3047C499.145 66.761 500.75 67.856 500.77 68.221C500.77 68.6225 499.83 69.3526 499.302 69.3526C499.028 69.3526 498.812 69.4256 498.812 69.5351C498.812 69.6263 498.617 69.7176 498.362 69.7176C498.108 69.7176 497.795 69.8271 497.658 69.9366C497.325 70.2651 492.706 70.2651 492.588 69.9366C492.549 69.8089 492.393 69.7176 492.236 69.7176C491.884 69.7176 489.985 68.0568 490.063 67.8195C490.103 67.71 490.553 67.345 491.062 67.0347Z" fill="#0F7499"/>
</svg>
