<svg width="56" height="119" viewBox="0 0 56 119" fill="none" xmlns="http://www.w3.org/2000/svg">
<path d="M7.81056 118.649C5.98881 118.653 4.22333 117.965 2.82058 116.704C2.03109 115.994 1.37848 115.122 0.900126 114.138C0.421775 113.154 0.127083 112.077 0.0329293 110.97C-0.0612242 109.862 0.0470116 108.745 0.351435 107.683C0.655859 106.62 1.15048 105.634 1.80699 104.779L36.7368 59.4481L3.05449 14.0326C2.40684 13.1675 1.92319 12.1721 1.63134 11.1037C1.33949 10.0352 1.2452 8.91466 1.35388 7.80652C1.46256 6.69838 1.77207 5.62446 2.26463 4.64649C2.75718 3.66852 3.42307 2.80578 4.22401 2.10787C5.03072 1.33795 5.97543 0.757207 6.99886 0.402095C8.02229 0.0469823 9.10235 -0.0748336 10.1712 0.044286C11.2401 0.163406 12.2748 0.520892 13.2103 1.09431C14.1458 1.66773 14.9619 2.4447 15.6074 3.37646L53.2661 54.12C54.4129 55.6333 55.0398 57.5315 55.0398 59.4904C55.0398 61.4493 54.4129 63.3475 53.2661 64.8608L14.2819 115.604C13.4998 116.628 12.5062 117.437 11.3818 117.966C10.2574 118.495 9.03393 118.729 7.81056 118.649Z" fill="#569CB6"/>
</svg>
