<svg width="56" height="119" viewBox="0 0 56 119" fill="none" xmlns="http://www.w3.org/2000/svg">
<path d="M47.2305 0.0153058C49.0522 0.0114449 50.8177 0.699654 52.2204 1.96047C53.0099 2.67045 53.6625 3.54241 54.1409 4.52639C54.6192 5.51037 54.9139 6.58703 55.0081 7.69473C55.1022 8.80244 54.994 9.91941 54.6896 10.9817C54.3852 12.0439 53.8905 13.0306 53.234 13.8852L18.3042 59.2161L51.9865 104.632C52.6342 105.497 53.1178 106.492 53.4097 107.561C53.7015 108.629 53.7958 109.75 53.6871 110.858C53.5785 111.966 53.2689 113.04 52.7764 114.018C52.2838 114.996 51.6179 115.858 50.817 116.556C50.0103 117.326 49.0656 117.907 48.0422 118.262C47.0187 118.617 45.9387 118.739 44.8698 118.62C43.8009 118.501 42.7662 118.143 41.8308 117.57C40.8953 116.997 40.0792 116.22 39.4336 115.288L1.77493 64.5442C0.628162 63.0309 0.00125164 61.1328 0.00125164 59.1739C0.00125164 57.2149 0.628162 55.3168 1.77493 53.8035L40.7591 3.05993C41.5412 2.03645 42.5348 1.22739 43.6592 0.698403C44.7836 0.169412 46.0071 -0.0646203 47.2305 0.0153058Z" fill="#569CB6"/>
</svg>
